SplineFontDB: 3.0
FontName: Gelasio-Italic
FullName: Gelasio Italic
FamilyName: Gelasio
Weight: Book
Copyright: Copyright (c) 2012, Sorkin Type Co (www.sorkintype.com) with Reserved Font Name 'Gelasio'
Version: 1.000
ItalicAngle: -9
UnderlinePosition: -137
UnderlineWidth: 106
Ascent: 1638
Descent: 410
sfntRevision: 0x00010000
LayerCount: 2
Layer: 0 1 "Back"  1
Layer: 1 1 "Fore"  0
XUID: [1021 631 1661839179 5020860]
FSType: 0
OS2Version: 3
OS2_WeightWidthSlopeOnly: 0
OS2_UseTypoMetrics: 1
CreationTime: 1353034860
ModificationTime: 1353589327
PfmFamily: 17
TTFWeight: 400
TTFWidth: 5
LineGap: 0
VLineGap: 0
Panose: 2 4 5 2 5 4 5 9 3 3
OS2TypoAscent: 1889
OS2TypoAOffset: 0
OS2TypoDescent: -671
OS2TypoDOffset: 0
OS2TypoLinegap: 0
OS2WinAscent: 1889
OS2WinAOffset: 0
OS2WinDescent: 671
OS2WinDOffset: 0
HheadAscent: 1889
HheadAOffset: 0
HheadDescent: -671
HheadDOffset: 0
OS2SubXSize: 1434
OS2SubYSize: 1331
OS2SubXOff: 35
OS2SubYOff: 155
OS2SupXSize: 1434
OS2SupYSize: 1331
OS2SupXOff: 125
OS2SupYOff: 542
OS2StrikeYSize: 126
OS2StrikeYPos: 559
OS2FamilyClass: 1027
OS2Vendor: 'STC '
OS2CodePages: 00000093.00000000
OS2UnicodeRanges: a00000ef.4000204a.00000000.00000000
Lookup: 1 0 0 "'aalt' Access All Alternates in Latin lookup 0"  {"'aalt' Access All Alternates in Latin lookup 0 subtable"  } ['aalt' ('DFLT' <'dflt' > 'latn' <'MOL ' 'ROM ' 'TRK ' 'dflt' > ) ]
Lookup: 6 0 0 "'ordn' Ordinals in Latin lookup 1"  {"'ordn' Ordinals in Latin lookup 1 contextual 0"  "'ordn' Ordinals in Latin lookup 1 contextual 1"  "'ordn' Ordinals in Latin lookup 1 contextual 2"  "'ordn' Ordinals in Latin lookup 1 contextual 3"  } ['ordn' ('latn' <'MOL ' 'ROM ' 'TRK ' 'dflt' > ) ]
Lookup: 1 0 0 "'locl' Localized Forms in Latin lookup 2"  {"'locl' Localized Forms in Latin lookup 2 subtable"  } ['locl' ('latn' <'AZE ' > ) ]
Lookup: 1 0 0 "'locl' Localized Forms in Latin lookup 3"  {"'locl' Localized Forms in Latin lookup 3 subtable"  } ['locl' ('latn' <'CRT ' > ) ]

StartChar: .notdef
Encoding: 65536 -1 0
Width: 2048
GlyphClass: 2
Flags: W
LayerCount: 2
Fore
SplineSet
246 1547 m 1,0,-1
 1802 1547 l 1,1,-1
 1802 0 l 1,2,-1
 246 0 l 1,3,-1
 246 1547 l 1,0,-1
1696 90 m 1,4,-1
 1696 1457 l 1,5,-1
 352 1457 l 1,6,-1
 352 90 l 1,7,-1
 1696 90 l 1,4,-1
936 767 m 1,8,-1
 571 1138 l 1,9,-1
 663 1224 l 1,10,-1
 1024 857 l 1,11,-1
 1385 1224 l 1,12,-1
 1477 1138 l 1,13,-1
 1112 767 l 1,14,-1
 1477 397 l 1,15,-1
 1385 312 l 1,16,-1
 1024 678 l 1,17,-1
 663 312 l 1,18,-1
 571 397 l 1,19,-1
 936 767 l 1,8,-1
EndSplineSet
EndChar

StartChar: exclam
Encoding: 33 33 3
Width: 678
GlyphClass: 2
Flags: W
LayerCount: 2
Fore
SplineSet
274 432 m 1,0,1
 288 650 288 650 295.5 817.5 c 128,-1,2
 303 985 303 985 306.5 1103.5 c 128,-1,3
 310 1222 310 1222 312 1293 c 128,-1,4
 314 1364 314 1364 318 1389 c 0,5,6
 322 1418 322 1418 335.5 1443.5 c 128,-1,7
 349 1469 349 1469 369.5 1487.5 c 128,-1,8
 390 1506 390 1506 415 1517 c 128,-1,9
 440 1528 440 1528 468 1528 c 0,10,11
 495 1528 495 1528 517.5 1517 c 128,-1,12
 540 1506 540 1506 555.5 1487.5 c 128,-1,13
 571 1469 571 1469 577.5 1443.5 c 128,-1,14
 584 1418 584 1418 580 1389 c 0,15,16
 576 1364 576 1364 556 1293 c 128,-1,17
 536 1222 536 1222 504.5 1103.5 c 128,-1,18
 473 985 473 985 434 817.5 c 128,-1,19
 395 650 395 650 354 432 c 1,20,-1
 274 432 l 1,0,1
135 104 m 0,21,22
 135 135 135 135 145 161.5 c 128,-1,23
 155 188 155 188 173.5 207.5 c 128,-1,24
 192 227 192 227 218 238 c 128,-1,25
 244 249 244 249 276 249 c 0,26,27
 335 249 335 249 367 212.5 c 128,-1,28
 399 176 399 176 399 122 c 0,29,30
 399 89 399 89 388 61.5 c 128,-1,31
 377 34 377 34 357.5 14 c 128,-1,32
 338 -6 338 -6 312.5 -17 c 128,-1,33
 287 -28 287 -28 257 -28 c 0,34,35
 228 -28 228 -28 205 -17.5 c 128,-1,36
 182 -7 182 -7 166.5 11 c 128,-1,37
 151 29 151 29 143 53 c 128,-1,38
 135 77 135 77 135 104 c 0,21,22
EndSplineSet
EndChar

StartChar: numbersign
Encoding: 35 35 5
Width: 1317
GlyphClass: 2
Flags: W
LayerCount: 2
Fore
SplineSet
342 420 m 1,0,-1
 108 420 l 1,1,-1
 123 526 l 1,2,-1
 377 526 l 1,3,-1
 507 900 l 1,4,-1
 233 900 l 1,5,-1
 249 1006 l 1,6,-1
 543 1006 l 1,7,-1
 687 1419 l 1,8,-1
 814 1419 l 1,9,-1
 669 1006 l 1,10,-1
 960 1006 l 1,11,-1
 1104 1419 l 1,12,-1
 1231 1419 l 1,13,-1
 1086 1006 l 1,14,-1
 1319 1006 l 1,15,-1
 1303 900 l 1,16,-1
 1050 900 l 1,17,-1
 919 526 l 1,18,-1
 1173 526 l 1,19,-1
 1158 420 l 1,20,-1
 884 420 l 1,21,-1
 739 0 l 1,22,-1
 614 0 l 1,23,-1
 759 420 l 1,24,-1
 467 420 l 1,25,-1
 322 0 l 1,26,-1
 197 0 l 1,27,-1
 342 420 l 1,0,-1
794 526 m 1,28,-1
 924 900 l 1,29,-1
 633 900 l 1,30,-1
 502 526 l 1,31,-1
 794 526 l 1,28,-1
EndSplineSet
EndChar

StartChar: dollar
Encoding: 36 36 6
Width: 1249
GlyphClass: 2
Flags: W
LayerCount: 2
Fore
SplineSet
90 72 m 0,0,1
 102 125 102 125 112 183 c 128,-1,2
 122 241 122 241 130 295 c 128,-1,3
 138 349 138 349 142.5 395 c 128,-1,4
 147 441 147 441 149 471 c 1,5,6
 150 503 150 503 164 511.5 c 128,-1,7
 178 520 178 520 198 520 c 0,8,9
 215 520 215 520 231 509 c 128,-1,10
 247 498 247 498 247 478 c 1,11,12
 248 465 248 465 248 445 c 128,-1,13
 248 425 248 425 251 397.5 c 128,-1,14
 254 370 254 370 261 335 c 128,-1,15
 268 300 268 300 282 257 c 0,16,17
 300 203 300 203 332 165.5 c 128,-1,18
 364 128 364 128 405.5 104.5 c 128,-1,19
 447 81 447 81 495.5 70 c 128,-1,20
 544 59 544 59 594 59 c 0,21,22
 660 59 660 59 717 73 c 128,-1,23
 774 87 774 87 815.5 115 c 128,-1,24
 857 143 857 143 880 185.5 c 128,-1,25
 903 228 903 228 900 286 c 0,26,27
 898 336 898 336 869.5 379 c 128,-1,28
 841 422 841 422 797.5 459.5 c 128,-1,29
 754 497 754 497 701 530.5 c 128,-1,30
 648 564 648 564 597 595 c 0,31,32
 538 631 538 631 482.5 673 c 128,-1,33
 427 715 427 715 383.5 766 c 128,-1,34
 340 817 340 817 312 878.5 c 128,-1,35
 284 940 284 940 281 1015 c 0,36,37
 278 1083 278 1083 304.5 1143.5 c 128,-1,38
 331 1204 331 1204 384 1251 c 128,-1,39
 437 1298 437 1298 515 1328 c 128,-1,40
 593 1358 593 1358 693 1366 c 1,41,-1
 726 1574 l 1,42,-1
 832 1574 l 1,43,-1
 800 1366 l 1,44,45
 832 1363 832 1363 863.5 1355.5 c 128,-1,46
 895 1348 895 1348 922 1339.5 c 128,-1,47
 949 1331 949 1331 968.5 1323 c 128,-1,48
 988 1315 988 1315 997 1311 c 0,49,50
 1004 1307 1004 1307 1010.5 1307.5 c 128,-1,51
 1017 1308 1017 1308 1022 1308 c 0,52,53
 1037 1308 1037 1308 1047.5 1315 c 128,-1,54
 1058 1322 1058 1322 1067.5 1330 c 128,-1,55
 1077 1338 1077 1338 1087 1345 c 128,-1,56
 1097 1352 1097 1352 1111 1352 c 0,57,58
 1130 1352 1130 1352 1144.5 1342 c 128,-1,59
 1159 1332 1159 1332 1159 1318 c 256,60,61
 1159 1304 1159 1304 1155 1270.5 c 128,-1,62
 1151 1237 1151 1237 1146.5 1193.5 c 128,-1,63
 1142 1150 1142 1150 1137 1101 c 128,-1,64
 1132 1052 1132 1052 1131 1007 c 0,65,66
 1130 986 1130 986 1125.5 974.5 c 128,-1,67
 1121 963 1121 963 1113.5 957 c 128,-1,68
 1106 951 1106 951 1096.5 949.5 c 128,-1,69
 1087 948 1087 948 1077 948 c 0,70,71
 1061 948 1061 948 1048 954 c 128,-1,72
 1035 960 1035 960 1035 970 c 0,73,74
 1032 1051 1032 1051 1008 1111 c 128,-1,75
 984 1171 984 1171 945.5 1210.5 c 128,-1,76
 907 1250 907 1250 857.5 1270 c 128,-1,77
 808 1290 808 1290 753 1290 c 0,78,79
 697 1290 697 1290 645 1280 c 128,-1,80
 593 1270 593 1270 554 1245.5 c 128,-1,81
 515 1221 515 1221 493 1181 c 128,-1,82
 471 1141 471 1141 473 1081 c 0,83,84
 474 1033 474 1033 501 988 c 128,-1,85
 528 943 528 943 567 903.5 c 128,-1,86
 606 864 606 864 652 831.5 c 128,-1,87
 698 799 698 799 739 776 c 0,88,89
 802 740 802 740 864 700.5 c 128,-1,90
 926 661 926 661 975.5 611.5 c 128,-1,91
 1025 562 1025 562 1057.5 501 c 128,-1,92
 1090 440 1090 440 1093 361 c 256,93,94
 1096 282 1096 282 1061.5 211.5 c 128,-1,95
 1027 141 1027 141 962.5 88 c 128,-1,96
 898 35 898 35 807.5 3 c 128,-1,97
 717 -29 717 -29 609 -30 c 1,98,-1
 577 -245 l 1,99,-1
 471 -245 l 1,100,-1
 504 -24 l 1,101,102
 454 -17 454 -17 413.5 -5 c 128,-1,103
 373 7 373 7 340 21.5 c 128,-1,104
 307 36 307 36 281.5 51 c 128,-1,105
 256 66 256 66 238 78 c 0,106,107
 233 82 233 82 223.5 77 c 128,-1,108
 214 72 214 72 205 61 c 0,109,110
 188 39 188 39 166.5 29.5 c 128,-1,111
 145 20 145 20 130 20 c 0,112,113
 110 20 110 20 98 37 c 128,-1,114
 86 54 86 54 90 72 c 0,0,1
EndSplineSet
EndChar

StartChar: percent
Encoding: 37 37 7
Width: 1673
GlyphClass: 2
Flags: W
LayerCount: 2
Fore
SplineSet
393 711 m 0,0,1
 318 711 318 711 260.5 736.5 c 128,-1,2
 203 762 203 762 167 809.5 c 128,-1,3
 131 857 131 857 117.5 924.5 c 128,-1,4
 104 992 104 992 116 1076 c 0,5,6
 128 1162 128 1162 161.5 1231 c 128,-1,7
 195 1300 195 1300 245 1348.5 c 128,-1,8
 295 1397 295 1397 360.5 1423 c 128,-1,9
 426 1449 426 1449 501 1449 c 0,10,11
 579 1449 579 1449 637.5 1423 c 128,-1,12
 696 1397 696 1397 733 1348.5 c 128,-1,13
 770 1300 770 1300 784 1231 c 128,-1,14
 798 1162 798 1162 786 1076 c 0,15,16
 774 992 774 992 740 924.5 c 128,-1,17
 706 857 706 857 655 809.5 c 128,-1,18
 604 762 604 762 537.5 736.5 c 128,-1,19
 471 711 471 711 393 711 c 0,0,1
406 788 m 0,20,21
 500 788 500 788 547.5 859 c 128,-1,22
 595 930 595 930 616 1076 c 0,23,24
 637 1225 637 1225 608 1298.5 c 128,-1,25
 579 1372 579 1372 485 1372 c 256,26,27
 391 1372 391 1372 343.5 1298.5 c 128,-1,28
 296 1225 296 1225 275 1076 c 0,29,30
 254 930 254 930 282.5 859 c 128,-1,31
 311 788 311 788 406 788 c 0,20,21
798 336 m 0,32,33
 810 422 810 422 843.5 491 c 128,-1,34
 877 560 877 560 927 608.5 c 128,-1,35
 977 657 977 657 1042.5 683 c 128,-1,36
 1108 709 1108 709 1183 709 c 0,37,38
 1261 709 1261 709 1319.5 683 c 128,-1,39
 1378 657 1378 657 1415 608.5 c 128,-1,40
 1452 560 1452 560 1466 491 c 128,-1,41
 1480 422 1480 422 1468 336 c 0,42,43
 1456 252 1456 252 1422 184.5 c 128,-1,44
 1388 117 1388 117 1337 69.5 c 128,-1,45
 1286 22 1286 22 1219.5 -3.5 c 128,-1,46
 1153 -29 1153 -29 1075 -29 c 0,47,48
 1000 -29 1000 -29 942.5 -3.5 c 128,-1,49
 885 22 885 22 849 69.5 c 128,-1,50
 813 117 813 117 799.5 184.5 c 128,-1,51
 786 252 786 252 798 336 c 0,32,33
957 336 m 0,52,53
 936 190 936 190 964.5 119 c 128,-1,54
 993 48 993 48 1088 48 c 0,55,56
 1182 48 1182 48 1229.5 119 c 128,-1,57
 1277 190 1277 190 1298 336 c 0,58,59
 1319 485 1319 485 1290 558.5 c 128,-1,60
 1261 632 1261 632 1167 632 c 256,61,62
 1073 632 1073 632 1025.5 558.5 c 128,-1,63
 978 485 978 485 957 336 c 0,52,53
263 0 m 1,64,-1
 1159 1419 l 1,65,-1
 1306 1419 l 1,66,-1
 408 0 l 1,67,-1
 263 0 l 1,64,-1
EndSplineSet
Ligature2: "'frac' Diagonal Fractions in Latin lookup 11 subtable" zero slash zero
EndChar

StartChar: ampersand
Encoding: 38 38 8
Width: 1454
GlyphClass: 2
Flags: W
LayerCount: 2
Fore
SplineSet
46 284 m 0,0,1
 46 365 46 365 79.5 433.5 c 128,-1,2
 113 502 113 502 169 560 c 128,-1,3
 225 618 225 618 297.5 667 c 128,-1,4
 370 716 370 716 449 758 c 1,5,6
 429 794 429 794 410.5 832 c 128,-1,7
 392 870 392 870 378 909.5 c 128,-1,8
 364 949 364 949 355.5 989.5 c 128,-1,9
 347 1030 347 1030 347 1070 c 0,10,11
 347 1144 347 1144 372.5 1212.5 c 128,-1,12
 398 1281 398 1281 451.5 1333.5 c 128,-1,13
 505 1386 505 1386 587.5 1417 c 128,-1,14
 670 1448 670 1448 784 1448 c 0,15,16
 854 1448 854 1448 908 1432.5 c 128,-1,17
 962 1417 962 1417 998.5 1389.5 c 128,-1,18
 1035 1362 1035 1362 1053.5 1323.5 c 128,-1,19
 1072 1285 1072 1285 1072 1239 c 0,20,21
 1072 1177 1072 1177 1056 1125.5 c 128,-1,22
 1040 1074 1040 1074 1012.5 1032 c 128,-1,23
 985 990 985 990 949 956 c 128,-1,24
 913 922 913 922 873.5 894.5 c 128,-1,25
 834 867 834 867 793 844 c 128,-1,26
 752 821 752 821 715 802 c 0,27,28
 704 797 704 797 694 791 c 128,-1,29
 684 785 684 785 675 780 c 1,30,31
 719 715 719 715 797 601 c 128,-1,32
 875 487 875 487 993 326 c 1,33,34
 1028 368 1028 368 1054.5 415 c 128,-1,35
 1081 462 1081 462 1100.5 507.5 c 128,-1,36
 1120 553 1120 553 1133.5 595.5 c 128,-1,37
 1147 638 1147 638 1155.5 670.5 c 128,-1,38
 1164 703 1164 703 1168.5 724 c 128,-1,39
 1173 745 1173 745 1175 748 c 0,40,41
 1185 768 1185 768 1175.5 781 c 128,-1,42
 1166 794 1166 794 1147.5 801.5 c 128,-1,43
 1129 809 1129 809 1107 812.5 c 128,-1,44
 1085 816 1085 816 1069 818 c 0,45,46
 1051 820 1051 820 1047 829.5 c 128,-1,47
 1043 839 1043 839 1046 855 c 0,48,49
 1048 870 1048 870 1059 883 c 128,-1,50
 1070 896 1070 896 1087 896 c 2,51,-1
 1480 896 l 2,52,53
 1497 896 1497 896 1503 883 c 128,-1,54
 1509 870 1509 870 1507 855 c 1,55,56
 1499 818 1499 818 1466 818 c 0,57,58
 1415 818 1415 818 1383 798.5 c 128,-1,59
 1351 779 1351 779 1320 741 c 1,60,61
 1295 706 1295 706 1270 648 c 128,-1,62
 1245 590 1245 590 1214 522.5 c 128,-1,63
 1183 455 1183 455 1143 384.5 c 128,-1,64
 1103 314 1103 314 1047 254 c 1,65,66
 1064 231 1064 231 1081 208 c 128,-1,67
 1098 185 1098 185 1116 162 c 0,68,69
 1128 147 1128 147 1145.5 133 c 128,-1,70
 1163 119 1163 119 1184 107.5 c 128,-1,71
 1205 96 1205 96 1228.5 88.5 c 128,-1,72
 1252 81 1252 81 1275 78 c 0,73,74
 1295 76 1295 76 1301.5 70 c 128,-1,75
 1308 64 1308 64 1304 41 c 0,76,77
 1301 26 1301 26 1290.5 13 c 128,-1,78
 1280 0 1280 0 1263 0 c 2,79,-1
 969 0 l 1,80,-1
 886 119 l 1,81,82
 848 88 848 88 802.5 61 c 128,-1,83
 757 34 757 34 704.5 14 c 128,-1,84
 652 -6 652 -6 594.5 -17.5 c 128,-1,85
 537 -29 537 -29 476 -29 c 0,86,87
 374 -29 374 -29 294.5 -9 c 128,-1,88
 215 11 215 11 159.5 50.5 c 128,-1,89
 104 90 104 90 75 148.5 c 128,-1,90
 46 207 46 207 46 284 c 0,0,1
658 849 m 2,91,92
 715 878 715 878 755 911 c 128,-1,93
 795 944 795 944 822 978 c 128,-1,94
 849 1012 849 1012 864.5 1046.5 c 128,-1,95
 880 1081 880 1081 888 1113 c 128,-1,96
 896 1145 896 1145 898 1173.5 c 128,-1,97
 900 1202 900 1202 900 1225 c 0,98,99
 900 1249 900 1249 891.5 1274.5 c 128,-1,100
 883 1300 883 1300 865.5 1321.5 c 128,-1,101
 848 1343 848 1343 820.5 1357 c 128,-1,102
 793 1371 793 1371 754 1371 c 0,103,104
 701 1371 701 1371 662 1345.5 c 128,-1,105
 623 1320 623 1320 597 1279.5 c 128,-1,106
 571 1239 571 1239 558 1190 c 128,-1,107
 545 1141 545 1141 545 1094 c 0,108,109
 545 1038 545 1038 560.5 984.5 c 128,-1,110
 576 931 576 931 611 878 c 0,111,112
 612 875 612 875 615 870 c 128,-1,113
 618 865 618 865 622 859 c 128,-1,114
 626 853 626 853 629.5 847.5 c 128,-1,115
 633 842 633 842 636 838 c 1,116,-1
 658 849 l 2,91,92
265 309 m 0,117,118
 265 262 265 262 278 222.5 c 128,-1,119
 291 183 291 183 320 153.5 c 128,-1,120
 349 124 349 124 395 107.5 c 128,-1,121
 441 91 441 91 507 91 c 0,122,123
 544 91 544 91 580.5 93.5 c 128,-1,124
 617 96 617 96 657 106 c 128,-1,125
 697 116 697 116 741 136 c 128,-1,126
 785 156 785 156 837 191 c 1,127,-1
 494 688 l 1,128,129
 443 653 443 653 400.5 613 c 128,-1,130
 358 573 358 573 328 526.5 c 128,-1,131
 298 480 298 480 281.5 426 c 128,-1,132
 265 372 265 372 265 309 c 0,117,118
EndSplineSet
EndChar

StartChar: quotesingle
Encoding: 39 39 9
Width: 440
GlyphClass: 2
Flags: W
LayerCount: 2
Fore
SplineSet
210 967 m 1,0,1
 210 1014 210 1014 209.5 1070 c 128,-1,2
 209 1126 209 1126 208.5 1184.5 c 128,-1,3
 208 1243 208 1243 207 1299.5 c 128,-1,4
 206 1356 206 1356 206 1404.5 c 128,-1,5
 206 1453 206 1453 207 1489 c 128,-1,6
 208 1525 208 1525 210 1542 c 0,7,8
 214 1571 214 1571 224.5 1596.5 c 128,-1,9
 235 1622 235 1622 251.5 1640.5 c 128,-1,10
 268 1659 268 1659 290.5 1670 c 128,-1,11
 313 1681 313 1681 341 1681 c 0,12,13
 368 1681 368 1681 387.5 1670 c 128,-1,14
 407 1659 407 1659 418 1640.5 c 128,-1,15
 429 1622 429 1622 432.5 1596.5 c 128,-1,16
 436 1571 436 1571 432 1542 c 0,17,18
 430 1525 430 1525 420.5 1489 c 128,-1,19
 411 1453 411 1453 397.5 1404.5 c 128,-1,20
 384 1356 384 1356 367.5 1299.5 c 128,-1,21
 351 1243 351 1243 333.5 1184.5 c 128,-1,22
 316 1126 316 1126 299.5 1070 c 128,-1,23
 283 1014 283 1014 270 967 c 1,24,-1
 210 967 l 1,25,-1
 210 967 l 1,0,1
EndSplineSet
EndChar

StartChar: parenleft
Encoding: 40 40 10
Width: 768
GlyphClass: 2
Flags: W
LayerCount: 2
Fore
SplineSet
207 522 m 1,0,1
 216 653 216 653 247 784 c 128,-1,2
 278 915 278 915 329.5 1033.5 c 128,-1,3
 381 1152 381 1152 451 1252.5 c 128,-1,4
 521 1353 521 1353 607 1423 c 128,-1,5
 693 1493 693 1493 794 1528 c 128,-1,6
 895 1563 895 1563 1009 1550 c 1,7,-1
 973 1463 l 1,8,9
 902 1472 902 1472 835 1442.5 c 128,-1,10
 768 1413 768 1413 708 1353 c 128,-1,11
 648 1293 648 1293 596.5 1206 c 128,-1,12
 545 1119 545 1119 505.5 1013.5 c 128,-1,13
 466 908 466 908 440.5 787 c 128,-1,14
 415 666 415 666 407 538 c 0,15,16
 398 385 398 385 404.5 270.5 c 128,-1,17
 411 156 411 156 428 72.5 c 128,-1,18
 445 -11 445 -11 470.5 -67.5 c 128,-1,19
 496 -124 496 -124 525 -161.5 c 128,-1,20
 554 -199 554 -199 584.5 -221 c 128,-1,21
 615 -243 615 -243 643 -257 c 1,22,-1
 628 -340 l 1,23,24
 573 -330 573 -330 518.5 -299.5 c 128,-1,25
 464 -269 464 -269 414.5 -218.5 c 128,-1,26
 365 -168 365 -168 323 -96.5 c 128,-1,27
 281 -25 281 -25 252.5 67.5 c 128,-1,28
 224 160 224 160 211.5 273.5 c 128,-1,29
 199 387 199 387 207 522 c 1,0,1
EndSplineSet
EndChar

StartChar: asterisk
Encoding: 42 42 12
Width: 967
GlyphClass: 2
Flags: W
LayerCount: 2
Fore
SplineSet
266 620 m 0,0,1
 229 620 229 620 205 647.5 c 128,-1,2
 181 675 181 675 186 714 c 0,3,4
 188 732 188 732 197 751 c 128,-1,5
 206 770 206 770 220 786 c 0,6,7
 228 795 228 795 254 817 c 128,-1,8
 280 839 280 839 314 867 c 128,-1,9
 348 895 348 895 384.5 924.5 c 128,-1,10
 421 954 421 954 450 980 c 1,11,12
 432 985 432 985 394.5 987.5 c 128,-1,13
 357 990 357 990 316 992 c 128,-1,14
 275 994 275 994 239 996 c 128,-1,15
 203 998 203 998 188 1003 c 0,16,17
 155 1014 155 1014 135 1038.5 c 128,-1,18
 115 1063 115 1063 120 1098 c 0,19,20
 127 1145 127 1145 160.5 1169.5 c 128,-1,21
 194 1194 194 1194 231 1194 c 0,22,23
 252 1194 252 1194 273 1187 c 0,24,25
 283 1184 283 1184 307 1168.5 c 128,-1,26
 331 1153 331 1153 361 1133.5 c 128,-1,27
 391 1114 391 1114 423.5 1092.5 c 128,-1,28
 456 1071 456 1071 485 1056 c 1,29,30
 485 1087 485 1087 481.5 1130.5 c 128,-1,31
 478 1174 478 1174 474.5 1216 c 128,-1,32
 471 1258 471 1258 468 1291.5 c 128,-1,33
 465 1325 465 1325 467 1336 c 0,34,35
 474 1384 474 1384 503 1416.5 c 128,-1,36
 532 1449 532 1449 581 1449 c 0,37,38
 629 1449 629 1449 649 1416.5 c 128,-1,39
 669 1384 669 1384 662 1336 c 0,40,41
 661 1329 661 1329 655 1311.5 c 128,-1,42
 649 1294 649 1294 640.5 1270.5 c 128,-1,43
 632 1247 632 1247 622 1220 c 128,-1,44
 612 1193 612 1193 602.5 1167.5 c 128,-1,45
 593 1142 593 1142 585.5 1120.5 c 128,-1,46
 578 1099 578 1099 574 1086 c 0,47,48
 571 1078 571 1078 570.5 1075.5 c 128,-1,49
 570 1073 570 1073 569.5 1071.5 c 128,-1,50
 569 1070 569 1070 568 1067 c 128,-1,51
 567 1064 567 1064 565 1055 c 1,52,53
 596 1071 596 1071 635.5 1092.5 c 128,-1,54
 675 1114 675 1114 711 1134 c 128,-1,55
 747 1154 747 1154 775.5 1169 c 128,-1,56
 804 1184 804 1184 813 1187 c 0,57,58
 824 1190 824 1190 836 1192 c 128,-1,59
 848 1194 848 1194 857 1194 c 0,60,61
 875 1194 875 1194 892 1188 c 128,-1,62
 909 1182 909 1182 921 1169.5 c 128,-1,63
 933 1157 933 1157 938.5 1138.5 c 128,-1,64
 944 1120 944 1120 941 1096 c 0,65,66
 936 1062 936 1062 909.5 1038 c 128,-1,67
 883 1014 883 1014 845 1003 c 0,68,69
 828 998 828 998 792.5 995.5 c 128,-1,70
 757 993 757 993 716.5 991.5 c 128,-1,71
 676 990 676 990 638 987.5 c 128,-1,72
 600 985 600 985 579 980 c 1,73,74
 599 956 599 956 622 933 c 128,-1,75
 645 910 645 910 668.5 887 c 128,-1,76
 692 864 692 864 713.5 839.5 c 128,-1,77
 735 815 735 815 752 788 c 0,78,79
 763 771 763 771 767 751.5 c 128,-1,80
 771 732 771 732 769 714 c 0,81,82
 766 696 766 696 756.5 679 c 128,-1,83
 747 662 747 662 733 649.5 c 128,-1,84
 719 637 719 637 700.5 629 c 128,-1,85
 682 621 682 621 663 621 c 0,86,87
 638 621 638 621 616 635.5 c 128,-1,88
 594 650 594 650 580 673 c 0,89,90
 575 682 575 682 566.5 714.5 c 128,-1,91
 558 747 558 747 548 787.5 c 128,-1,92
 538 828 538 828 528 868.5 c 128,-1,93
 518 909 518 909 509 934 c 1,94,95
 493 910 493 910 471.5 870.5 c 128,-1,96
 450 831 450 831 428.5 790.5 c 128,-1,97
 407 750 407 750 389 717 c 128,-1,98
 371 684 371 684 362 673 c 0,99,100
 341 648 341 648 315.5 634 c 128,-1,101
 290 620 290 620 266 620 c 0,0,1
EndSplineSet
EndChar

StartChar: plus
Encoding: 43 43 13
Width: 1317
GlyphClass: 2
Flags: W
LayerCount: 2
Fore
SplineSet
190 618 m 1,0,-1
 582 618 l 1,1,-1
 582 1027 l 1,2,-1
 728 1027 l 1,3,-1
 728 618 l 1,4,-1
 1117 618 l 1,5,-1
 1117 492 l 1,6,-1
 728 492 l 1,7,-1
 728 40 l 1,8,-1
 582 40 l 1,9,-1
 582 492 l 1,10,-1
 190 492 l 1,11,-1
 190 618 l 1,0,-1
EndSplineSet
EndChar

StartChar: comma
Encoding: 44 44 14
Width: 553
GlyphClass: 2
Flags: W
LayerCount: 2
Fore
SplineSet
116 107 m 0,0,1
 116 144 116 144 128.5 172 c 128,-1,2
 141 200 141 200 162 219 c 128,-1,3
 183 238 183 238 210 247.5 c 128,-1,4
 237 257 237 257 266 257 c 0,5,6
 288 257 288 257 312 248 c 128,-1,7
 336 239 336 239 356 219 c 128,-1,8
 376 199 376 199 389 167 c 128,-1,9
 402 135 402 135 402 89 c 0,10,11
 402 28 402 28 376.5 -39 c 128,-1,12
 351 -106 351 -106 312.5 -166.5 c 128,-1,13
 274 -227 274 -227 228.5 -276.5 c 128,-1,14
 183 -326 183 -326 143 -352 c 0,15,16
 130 -360 130 -360 115 -360 c 256,17,18
 100 -360 100 -360 85.5 -347 c 128,-1,19
 71 -334 71 -334 71 -320 c 0,20,21
 71 -303 71 -303 101 -271 c 1,22,23
 131 -241 131 -241 151.5 -204.5 c 128,-1,24
 172 -168 172 -168 184 -132.5 c 128,-1,25
 196 -97 196 -97 201.5 -66.5 c 128,-1,26
 207 -36 207 -36 207 -17 c 2,27,-1
 207 -7 l 1,28,29
 206 -3 206 -3 192 0.5 c 128,-1,30
 178 4 178 4 161 14.5 c 128,-1,31
 144 25 144 25 130 46 c 128,-1,32
 116 67 116 67 116 107 c 0,0,1
EndSplineSet
EndChar

StartChar: hyphen
Encoding: 45 45 15
Width: 766
GlyphClass: 2
Flags: W
LayerCount: 2
Fore
SplineSet
122 622 m 1,0,-1
 679 622 l 1,1,-1
 661 496 l 1,2,-1
 104 496 l 1,3,-1
 122 622 l 1,0,-1
EndSplineSet
EndChar

StartChar: period
Encoding: 46 46 16
Width: 553
GlyphClass: 2
Flags: W
LayerCount: 2
Fore
SplineSet
107 112 m 0,0,1
 107 143 107 143 117 169.5 c 128,-1,2
 127 196 127 196 145.5 215.5 c 128,-1,3
 164 235 164 235 190 246 c 128,-1,4
 216 257 216 257 248 257 c 0,5,6
 307 257 307 257 339 220.5 c 128,-1,7
 371 184 371 184 371 130 c 0,8,9
 371 97 371 97 360 69.5 c 128,-1,10
 349 42 349 42 329.5 22 c 128,-1,11
 310 2 310 2 284.5 -9 c 128,-1,12
 259 -20 259 -20 229 -20 c 0,13,14
 200 -20 200 -20 177 -9.5 c 128,-1,15
 154 1 154 1 138.5 19 c 128,-1,16
 123 37 123 37 115 61 c 128,-1,17
 107 85 107 85 107 112 c 0,0,1
EndSplineSet
EndChar

StartChar: slash
Encoding: 47 47 17
Width: 961
GlyphClass: 2
Flags: W
LayerCount: 2
Fore
SplineSet
886 1547 m 1,0,-1
 1023 1547 l 1,1,-1
 150 -340 l 1,2,-1
 15 -340 l 1,3,-1
 886 1547 l 1,0,-1
EndSplineSet
EndChar

StartChar: zero
Encoding: 48 48 18
Width: 1257
GlyphClass: 2
Flags: W
LayerCount: 2
Fore
SplineSet
534 -29 m 256,0,1
 419 -29 419 -29 336 13.5 c 128,-1,2
 253 56 253 56 203.5 135.5 c 128,-1,3
 154 215 154 215 139.5 328 c 128,-1,4
 125 441 125 441 148 582 c 1,5,6
 170 726 170 726 222 841 c 128,-1,7
 274 956 274 956 350 1037 c 128,-1,8
 426 1118 426 1118 524 1161.5 c 128,-1,9
 622 1205 622 1205 737 1205 c 256,10,11
 852 1205 852 1205 934 1161.5 c 128,-1,12
 1016 1118 1016 1118 1064.5 1037 c 128,-1,13
 1113 956 1113 956 1126.5 841 c 128,-1,14
 1140 726 1140 726 1118 582 c 1,15,16
 1095 441 1095 441 1044 328 c 128,-1,17
 993 215 993 215 918 135.5 c 128,-1,18
 843 56 843 56 746 13.5 c 128,-1,19
 649 -29 649 -29 534 -29 c 256,0,1
553 66 m 0,20,21
 631 66 631 66 687.5 97.5 c 128,-1,22
 744 129 744 129 784.5 193.5 c 128,-1,23
 825 258 825 258 852.5 354.5 c 128,-1,24
 880 451 880 451 901 582 c 0,25,26
 922 715 922 715 925 814 c 128,-1,27
 928 913 928 913 907 979 c 128,-1,28
 886 1045 886 1045 839 1077.5 c 128,-1,29
 792 1110 792 1110 714 1110 c 0,30,31
 635 1110 635 1110 578.5 1077.5 c 128,-1,32
 522 1045 522 1045 481 979 c 128,-1,33
 440 913 440 913 412 814 c 128,-1,34
 384 715 384 715 363 582 c 0,35,36
 342 451 342 451 340 354.5 c 128,-1,37
 338 258 338 258 359 193.5 c 128,-1,38
 380 129 380 129 427 97.5 c 128,-1,39
 474 66 474 66 553 66 c 0,20,21
EndSplineSet
EndChar

StartChar: one
Encoding: 49 49 19
Width: 881
GlyphClass: 2
Flags: W
LayerCount: 2
Fore
SplineSet
76 41 m 0,0,1
 78 57 78 57 86 66.5 c 128,-1,2
 94 76 94 76 114 78 c 0,3,4
 138 80 138 80 172.5 84 c 128,-1,5
 207 88 207 88 238.5 95.5 c 128,-1,6
 270 103 270 103 293 114 c 128,-1,7
 316 125 316 125 318 142 c 2,8,-1
 454 994 l 1,9,10
 432 991 432 991 401.5 989 c 128,-1,11
 371 987 371 987 340 986 c 128,-1,12
 309 985 309 985 281 984.5 c 128,-1,13
 253 984 253 984 236 984 c 256,14,15
 219 984 219 984 211.5 994 c 128,-1,16
 204 1004 204 1004 206 1015 c 0,17,18
 209 1038 209 1038 219 1054 c 128,-1,19
 229 1070 229 1070 250 1072 c 0,20,21
 273 1074 273 1074 318.5 1082 c 128,-1,22
 364 1090 364 1090 417 1105 c 128,-1,23
 470 1120 470 1120 523 1141 c 128,-1,24
 576 1162 576 1162 615 1189 c 1,25,-1
 684 1189 l 1,26,-1
 525 175 l 2,27,28
 520 143 520 143 537.5 124.5 c 128,-1,29
 555 106 555 106 582 96 c 128,-1,30
 609 86 609 86 639.5 83 c 128,-1,31
 670 80 670 80 693 78 c 0,32,33
 714 76 714 76 720.5 70 c 128,-1,34
 727 64 727 64 724 41 c 0,35,36
 722 30 722 30 712 15 c 128,-1,37
 702 0 702 0 685 0 c 2,38,-1
 105 0 l 2,39,40
 88 0 88 0 81 15 c 128,-1,41
 74 30 74 30 76 41 c 0,0,1
EndSplineSet
Substitution2: "'sups' Superscript in Latin lookup 10 subtable" onesuperior
EndChar

StartChar: two
Encoding: 50 50 20
Width: 1145
GlyphClass: 2
Flags: W
LayerCount: 2
Fore
SplineSet
69 75 m 1,0,1
 154 127 154 127 239.5 187 c 128,-1,2
 325 247 325 247 404.5 311 c 128,-1,3
 484 375 484 375 553.5 442.5 c 128,-1,4
 623 510 623 510 676.5 578.5 c 128,-1,5
 730 647 730 647 765 715.5 c 128,-1,6
 800 784 800 784 809 850 c 0,7,8
 814 888 814 888 813.5 932.5 c 128,-1,9
 813 977 813 977 795.5 1015 c 128,-1,10
 778 1053 778 1053 739 1078.5 c 128,-1,11
 700 1104 700 1104 629 1104 c 0,12,13
 573 1104 573 1104 537 1096 c 128,-1,14
 501 1088 501 1088 478.5 1076.5 c 128,-1,15
 456 1065 456 1065 444 1053 c 128,-1,16
 432 1041 432 1041 424 1033 c 1,17,-1
 350 838 l 2,18,19
 339 808 339 808 323.5 791 c 128,-1,20
 308 774 308 774 278 774 c 0,21,22
 267 774 267 774 251 777 c 128,-1,23
 235 780 235 780 219 787.5 c 128,-1,24
 203 795 203 795 189.5 808 c 128,-1,25
 176 821 176 821 170 841 c 128,-1,26
 164 861 164 861 168 889.5 c 128,-1,27
 172 918 172 918 190 957 c 0,28,29
 211 1002 211 1002 253.5 1046.5 c 128,-1,30
 296 1091 296 1091 355.5 1126 c 128,-1,31
 415 1161 415 1161 488.5 1183 c 128,-1,32
 562 1205 562 1205 646 1205 c 0,33,34
 746 1205 746 1205 821 1181.5 c 128,-1,35
 896 1158 896 1158 944 1113 c 128,-1,36
 992 1068 992 1068 1011 1002 c 128,-1,37
 1030 936 1030 936 1018 851 c 0,38,39
 1009 787 1009 787 977.5 724 c 128,-1,40
 946 661 946 661 897.5 600 c 128,-1,41
 849 539 849 539 787 481 c 128,-1,42
 725 423 725 423 655 368 c 128,-1,43
 585 313 585 313 511 262 c 128,-1,44
 437 211 437 211 364 165 c 1,45,-1
 958 165 l 1,46,-1
 925 0 l 1,47,-1
 58 0 l 1,48,-1
 69 75 l 1,0,1
EndSplineSet
Substitution2: "'sups' Superscript in Latin lookup 10 subtable" twosuperior
EndChar

StartChar: three
Encoding: 51 51 21
Width: 1130
GlyphClass: 2
Flags: W
LayerCount: 2
Fore
SplineSet
104 17 m 0,0,1
 117 17 117 17 131 12 c 128,-1,2
 145 7 145 7 157 -2 c 128,-1,3
 169 -11 169 -11 176.5 -24 c 128,-1,4
 184 -37 184 -37 184 -54 c 1,5,-1
 109 -267 l 1,6,7
 115 -289 115 -289 129.5 -312.5 c 128,-1,8
 144 -336 144 -336 171 -355.5 c 128,-1,9
 198 -375 198 -375 240 -387.5 c 128,-1,10
 282 -400 282 -400 345 -400 c 0,11,12
 428 -400 428 -400 498.5 -371.5 c 128,-1,13
 569 -343 569 -343 620 -291.5 c 128,-1,14
 671 -240 671 -240 699.5 -168.5 c 128,-1,15
 728 -97 728 -97 728 -11 c 0,16,17
 728 77 728 77 699 135 c 128,-1,18
 670 193 670 193 626 227.5 c 128,-1,19
 582 262 582 262 531 276 c 128,-1,20
 480 290 480 290 435 290 c 2,21,-1
 372 290 l 1,22,-1
 394 404 l 1,23,-1
 457 404 l 2,24,25
 521 404 521 404 585 435 c 128,-1,26
 649 466 649 466 700.5 522 c 128,-1,27
 752 578 752 578 784 655.5 c 128,-1,28
 816 733 816 733 816 825 c 0,29,30
 816 858 816 858 808 890 c 128,-1,31
 800 922 800 922 779.5 947 c 128,-1,32
 759 972 759 972 723.5 987.5 c 128,-1,33
 688 1003 688 1003 632 1003 c 0,34,35
 586 1003 586 1003 552.5 995 c 128,-1,36
 519 987 519 987 495 975.5 c 128,-1,37
 471 964 471 964 456 952 c 128,-1,38
 441 940 441 940 433 932 c 1,39,-1
 349 737 l 2,40,41
 336 707 336 707 319.5 690 c 128,-1,42
 303 673 303 673 273 673 c 0,43,44
 260 673 260 673 242 676.5 c 128,-1,45
 224 680 224 680 207.5 690 c 128,-1,46
 191 700 191 700 179 717.5 c 128,-1,47
 167 735 167 735 167 762 c 0,48,49
 167 780 167 780 173.5 803.5 c 128,-1,50
 180 827 180 827 195 856 c 0,51,52
 219 901 219 901 264.5 945.5 c 128,-1,53
 310 990 310 990 372.5 1025 c 128,-1,54
 435 1060 435 1060 511.5 1082 c 128,-1,55
 588 1104 588 1104 674 1104 c 0,56,57
 754 1104 754 1104 819 1084.5 c 128,-1,58
 884 1065 884 1065 930 1028.5 c 128,-1,59
 976 992 976 992 1001 938.5 c 128,-1,60
 1026 885 1026 885 1026 817 c 0,61,62
 1026 734 1026 734 993 660 c 128,-1,63
 960 586 960 586 903.5 525.5 c 128,-1,64
 847 465 847 465 772.5 421 c 128,-1,65
 698 377 698 377 615 355 c 1,66,67
 644 352 644 352 680 342.5 c 128,-1,68
 716 333 716 333 753 315.5 c 128,-1,69
 790 298 790 298 825 271.5 c 128,-1,70
 860 245 860 245 887.5 208 c 128,-1,71
 915 171 915 171 931.5 122.5 c 128,-1,72
 948 74 948 74 948 13 c 0,73,74
 948 -95 948 -95 903.5 -188 c 128,-1,75
 859 -281 859 -281 780.5 -349.5 c 128,-1,76
 702 -418 702 -418 595 -456.5 c 128,-1,77
 488 -495 488 -495 362 -495 c 0,78,79
 320 -495 320 -495 272.5 -489.5 c 128,-1,80
 225 -484 225 -484 179 -471 c 128,-1,81
 133 -458 133 -458 90.5 -436 c 128,-1,82
 48 -414 48 -414 16 -380.5 c 128,-1,83
 -16 -347 -16 -347 -35 -300.5 c 128,-1,84
 -54 -254 -54 -254 -54 -193 c 0,85,86
 -54 -150 -54 -150 -43 -111.5 c 128,-1,87
 -32 -73 -32 -73 -11.5 -44.5 c 128,-1,88
 9 -16 9 -16 38.5 0.5 c 128,-1,89
 68 17 68 17 104 17 c 0,0,1
EndSplineSet
Substitution2: "'sups' Superscript in Latin lookup 10 subtable" threesuperior
EndChar

StartChar: four
Encoding: 52 52 22
Width: 1157
GlyphClass: 2
Flags: W
LayerCount: 2
Fore
SplineSet
2 87 m 1,0,-1
 826 1293 l 2,1,2
 831 1302 831 1302 849.5 1313 c 128,-1,3
 868 1324 868 1324 890 1324 c 0,4,5
 917 1324 917 1324 939 1315 c 128,-1,6
 961 1306 961 1306 976.5 1292.5 c 128,-1,7
 992 1279 992 1279 1000.5 1262.5 c 128,-1,8
 1009 1246 1009 1246 1009 1231 c 0,9,10
 1009 1213 1009 1213 1003 1201 c 1,11,-1
 207 164 l 1,12,-1
 679 164 l 1,13,-1
 744 536 l 1,14,-1
 803 576 l 1,15,-1
 923 576 l 1,16,-1
 852 164 l 1,17,-1
 1068 164 l 1,18,-1
 1050 0 l 1,19,-1
 824 0 l 1,20,-1
 755 -384 l 1,21,-1
 582 -384 l 1,22,-1
 651 0 l 1,23,-1
 36 0 l 1,24,-1
 2 87 l 1,0,-1
EndSplineSet
EndChar

StartChar: five
Encoding: 53 53 23
Width: 1081
GlyphClass: 2
Flags: W
LayerCount: 2
Fore
SplineSet
70 23 m 0,0,1
 109 23 109 23 121 3.5 c 128,-1,2
 133 -16 133 -16 133 -52 c 0,3,4
 133 -70 133 -70 134.5 -95.5 c 128,-1,5
 136 -121 136 -121 138 -146.5 c 128,-1,6
 140 -172 140 -172 142 -195 c 128,-1,7
 144 -218 144 -218 147 -230 c 0,8,9
 153 -249 153 -249 173 -263 c 0,10,11
 190 -276 190 -276 223 -286 c 128,-1,12
 256 -296 256 -296 313 -297 c 0,13,14
 384 -298 384 -298 443.5 -273.5 c 128,-1,15
 503 -249 503 -249 551 -207 c 128,-1,16
 599 -165 599 -165 635 -108 c 128,-1,17
 671 -51 671 -51 695 13.5 c 128,-1,18
 719 78 719 78 731 147 c 128,-1,19
 743 216 743 216 743 282 c 0,20,21
 743 342 743 342 728 386 c 128,-1,22
 713 430 713 430 686.5 459 c 128,-1,23
 660 488 660 488 623 502 c 128,-1,24
 586 516 586 516 541 516 c 0,25,26
 502 516 502 516 457.5 508.5 c 128,-1,27
 413 501 413 501 368.5 484.5 c 128,-1,28
 324 468 324 468 283.5 442 c 128,-1,29
 243 416 243 416 213 380 c 1,30,-1
 152 413 l 1,31,-1
 373 1189 l 1,32,-1
 1091 1189 l 1,33,-1
 1058 1020 l 1,34,-1
 466 1020 l 1,35,-1
 322 564 l 1,36,37
 351 578 351 578 386 589.5 c 128,-1,38
 421 601 421 601 457.5 609.5 c 128,-1,39
 494 618 494 618 529 622.5 c 128,-1,40
 564 627 564 627 594 627 c 0,41,42
 685 627 685 627 754.5 603 c 128,-1,43
 824 579 824 579 870.5 535.5 c 128,-1,44
 917 492 917 492 941 430.5 c 128,-1,45
 965 369 965 369 965 293 c 0,46,47
 965 202 965 202 942.5 116.5 c 128,-1,48
 920 31 920 31 879 -45.5 c 128,-1,49
 838 -122 838 -122 779.5 -185.5 c 128,-1,50
 721 -249 721 -249 648.5 -295 c 128,-1,51
 576 -341 576 -341 491.5 -366.5 c 128,-1,52
 407 -392 407 -392 313 -392 c 0,53,54
 254 -392 254 -392 190 -376.5 c 128,-1,55
 126 -361 126 -361 73 -328.5 c 128,-1,56
 20 -296 20 -296 -14.5 -247.5 c 128,-1,57
 -49 -199 -49 -199 -49 -133 c 0,58,59
 -49 -91 -49 -91 -37.5 -61 c 128,-1,60
 -26 -31 -26 -31 -8 -12.5 c 128,-1,61
 10 6 10 6 31 14.5 c 128,-1,62
 52 23 52 23 70 23 c 0,0,1
EndSplineSet
EndChar

StartChar: six
Encoding: 54 54 24
Width: 1159
GlyphClass: 2
Flags: W
LayerCount: 2
Fore
SplineSet
101 399 m 0,0,1
 101 522 101 522 133.5 645.5 c 128,-1,2
 166 769 166 769 228 885 c 128,-1,3
 290 1001 290 1001 380.5 1105 c 128,-1,4
 471 1209 471 1209 587 1293.5 c 128,-1,5
 703 1378 703 1378 843.5 1439 c 128,-1,6
 984 1500 984 1500 1146 1529 c 1,7,-1
 1129 1437 l 1,8,9
 971 1401 971 1401 851 1332.5 c 128,-1,10
 731 1264 731 1264 643.5 1177.5 c 128,-1,11
 556 1091 556 1091 498 993 c 128,-1,12
 440 895 440 895 406 799 c 1,13,14
 432 823 432 823 467 846.5 c 128,-1,15
 502 870 502 870 543.5 889.5 c 128,-1,16
 585 909 585 909 632.5 921 c 128,-1,17
 680 933 680 933 732 933 c 0,18,19
 826 933 826 933 892.5 908.5 c 128,-1,20
 959 884 959 884 1001.5 839.5 c 128,-1,21
 1044 795 1044 795 1063.5 734.5 c 128,-1,22
 1083 674 1083 674 1083 602 c 0,23,24
 1083 519 1083 519 1064.5 440 c 128,-1,25
 1046 361 1046 361 1010.5 290.5 c 128,-1,26
 975 220 975 220 925 161.5 c 128,-1,27
 875 103 875 103 811.5 60.5 c 128,-1,28
 748 18 748 18 673 -5.5 c 128,-1,29
 598 -29 598 -29 513 -29 c 0,30,31
 410 -29 410 -29 332.5 5.5 c 128,-1,32
 255 40 255 40 203.5 98.5 c 128,-1,33
 152 157 152 157 126.5 235 c 128,-1,34
 101 313 101 313 101 399 c 0,0,1
295 297 m 0,35,36
 295 242 295 242 307 199 c 128,-1,37
 319 156 319 156 345.5 126.5 c 128,-1,38
 372 97 372 97 414.5 81.5 c 128,-1,39
 457 66 457 66 518 66 c 0,40,41
 604 66 604 66 669 111 c 128,-1,42
 734 156 734 156 778 230.5 c 128,-1,43
 822 305 822 305 844 400.5 c 128,-1,44
 866 496 866 496 866 598 c 0,45,46
 866 698 866 698 822 756.5 c 128,-1,47
 778 815 778 815 683 815 c 0,48,49
 635 815 635 815 589 802.5 c 128,-1,50
 543 790 543 790 502 770 c 128,-1,51
 461 750 461 750 425.5 723.5 c 128,-1,52
 390 697 390 697 363 670 c 1,53,54
 336 582 336 582 315.5 487.5 c 128,-1,55
 295 393 295 393 295 297 c 0,35,36
EndSplineSet
EndChar

StartChar: seven
Encoding: 55 55 25
Width: 1018
GlyphClass: 2
Flags: W
LayerCount: 2
Fore
SplineSet
916 1028 m 1,0,-1
 420 1028 l 2,1,2
 390 1028 390 1028 361.5 1012.5 c 128,-1,3
 333 997 333 997 308.5 973.5 c 128,-1,4
 284 950 284 950 263.5 921 c 128,-1,5
 243 892 243 892 227.5 865 c 128,-1,6
 212 838 212 838 202.5 816.5 c 128,-1,7
 193 795 193 795 190 785 c 0,8,9
 183 765 183 765 167.5 758.5 c 128,-1,10
 152 752 152 752 136 752 c 0,11,12
 125 752 125 752 111.5 760.5 c 128,-1,13
 98 769 98 769 102 786 c 2,14,-1
 215 1190 l 1,15,-1
 1052 1189 l 1,16,-1
 1091 1122 l 1,17,-1
 279 -383 l 1,18,-1
 57 -382 l 1,19,-1
 916 1028 l 1,0,-1
EndSplineSet
EndChar

StartChar: eight
Encoding: 56 56 26
Width: 1221
GlyphClass: 2
Flags: W
LayerCount: 2
Fore
SplineSet
120 311 m 0,0,1
 120 385 120 385 147.5 452.5 c 128,-1,2
 175 520 175 520 222.5 577 c 128,-1,3
 270 634 270 634 334 678.5 c 128,-1,4
 398 723 398 723 471 751 c 1,5,6
 440 782 440 782 414.5 814.5 c 128,-1,7
 389 847 389 847 370.5 884 c 128,-1,8
 352 921 352 921 341.5 963 c 128,-1,9
 331 1005 331 1005 331 1055 c 0,10,11
 331 1146 331 1146 370 1219 c 128,-1,12
 409 1292 409 1292 473.5 1343 c 128,-1,13
 538 1394 538 1394 621 1421.5 c 128,-1,14
 704 1449 704 1449 792 1449 c 0,15,16
 892 1449 892 1449 963 1426.5 c 128,-1,17
 1034 1404 1034 1404 1079 1364 c 128,-1,18
 1124 1324 1124 1324 1145 1270 c 128,-1,19
 1166 1216 1166 1216 1166 1153 c 0,20,21
 1166 1081 1166 1081 1139.5 1018 c 128,-1,22
 1113 955 1113 955 1070 903.5 c 128,-1,23
 1027 852 1027 852 972.5 812 c 128,-1,24
 918 772 918 772 863 745 c 1,25,26
 907 715 907 715 945.5 680.5 c 128,-1,27
 984 646 984 646 1013 605 c 128,-1,28
 1042 564 1042 564 1059 516 c 128,-1,29
 1076 468 1076 468 1076 412 c 0,30,31
 1076 332 1076 332 1042 253 c 128,-1,32
 1008 174 1008 174 943 111.5 c 128,-1,33
 878 49 878 49 783 10 c 128,-1,34
 688 -29 688 -29 567 -29 c 0,35,36
 452 -29 452 -29 367.5 -3 c 128,-1,37
 283 23 283 23 228 68.5 c 128,-1,38
 173 114 173 114 146.5 176.5 c 128,-1,39
 120 239 120 239 120 311 c 0,0,1
787 793 m 1,40,41
 834 817 834 817 870 858 c 128,-1,42
 906 899 906 899 931 948 c 128,-1,43
 956 997 956 997 968.5 1051 c 128,-1,44
 981 1105 981 1105 981 1155 c 0,45,46
 981 1197 981 1197 970 1233.5 c 128,-1,47
 959 1270 959 1270 935 1296.5 c 128,-1,48
 911 1323 911 1323 873 1338.5 c 128,-1,49
 835 1354 835 1354 781 1354 c 0,50,51
 730 1354 730 1354 685 1336.5 c 128,-1,52
 640 1319 640 1319 606 1284.5 c 128,-1,53
 572 1250 572 1250 552.5 1198.5 c 128,-1,54
 533 1147 533 1147 533 1079 c 256,55,56
 533 1011 533 1011 588.5 949 c 128,-1,57
 644 887 644 887 741 830 c 1,58,-1
 787 793 l 1,40,41
309 322 m 0,59,60
 309 278 309 278 320 232.5 c 128,-1,61
 331 187 331 187 359.5 150 c 128,-1,62
 388 113 388 113 436.5 89.5 c 128,-1,63
 485 66 485 66 559 66 c 0,64,65
 623 66 623 66 679.5 83.5 c 128,-1,66
 736 101 736 101 778 135.5 c 128,-1,67
 820 170 820 170 844.5 222 c 128,-1,68
 869 274 869 274 869 343 c 0,69,70
 869 394 869 394 848 435 c 128,-1,71
 827 476 827 476 794 509.5 c 128,-1,72
 761 543 761 543 720.5 570 c 128,-1,73
 680 597 680 597 641 621 c 0,74,75
 615 636 615 636 590 657 c 128,-1,76
 565 678 565 678 541 695 c 1,77,78
 489 672 489 672 446.5 631.5 c 128,-1,79
 404 591 404 591 373.5 541 c 128,-1,80
 343 491 343 491 326 434 c 128,-1,81
 309 377 309 377 309 322 c 0,59,60
EndSplineSet
EndChar

StartChar: nine
Encoding: 57 57 27
Width: 1159
GlyphClass: 2
Flags: W
LayerCount: 2
Fore
SplineSet
58 -261 m 1,0,1
 216 -225 216 -225 336 -156.5 c 128,-1,2
 456 -88 456 -88 543.5 -1.5 c 128,-1,3
 631 85 631 85 688.5 183 c 128,-1,4
 746 281 746 281 781 377 c 1,5,6
 755 353 755 353 720 329.5 c 128,-1,7
 685 306 685 306 643.5 286.5 c 128,-1,8
 602 267 602 267 554.5 255 c 128,-1,9
 507 243 507 243 455 243 c 0,10,11
 361 243 361 243 294.5 267.5 c 128,-1,12
 228 292 228 292 185.5 336.5 c 128,-1,13
 143 381 143 381 123.5 441.5 c 128,-1,14
 104 502 104 502 104 574 c 0,15,16
 104 657 104 657 122.5 736 c 128,-1,17
 141 815 141 815 176.5 885.5 c 128,-1,18
 212 956 212 956 262 1014.5 c 128,-1,19
 312 1073 312 1073 375.5 1115.5 c 128,-1,20
 439 1158 439 1158 514 1181.5 c 128,-1,21
 589 1205 589 1205 674 1205 c 0,22,23
 777 1205 777 1205 854.5 1170.5 c 128,-1,24
 932 1136 932 1136 983.5 1077.5 c 128,-1,25
 1035 1019 1035 1019 1060.5 941 c 128,-1,26
 1086 863 1086 863 1086 777 c 0,27,28
 1086 654 1086 654 1053.5 530.5 c 128,-1,29
 1021 407 1021 407 959 291 c 128,-1,30
 897 175 897 175 806.5 71 c 128,-1,31
 716 -33 716 -33 600 -117.5 c 128,-1,32
 484 -202 484 -202 343.5 -263 c 128,-1,33
 203 -324 203 -324 41 -353 c 1,34,-1
 58 -261 l 1,0,1
504 361 m 0,35,36
 552 361 552 361 598 373.5 c 128,-1,37
 644 386 644 386 685 406 c 128,-1,38
 726 426 726 426 761.5 452.5 c 128,-1,39
 797 479 797 479 824 506 c 1,40,41
 851 594 851 594 871.5 688.5 c 128,-1,42
 892 783 892 783 892 879 c 0,43,44
 892 934 892 934 880 977 c 128,-1,45
 868 1020 868 1020 841.5 1049.5 c 128,-1,46
 815 1079 815 1079 772.5 1094.5 c 128,-1,47
 730 1110 730 1110 669 1110 c 0,48,49
 583 1110 583 1110 518 1065 c 128,-1,50
 453 1020 453 1020 409 945.5 c 128,-1,51
 365 871 365 871 343 775.5 c 128,-1,52
 321 680 321 680 321 578 c 0,53,54
 321 478 321 478 365 419.5 c 128,-1,55
 409 361 409 361 504 361 c 0,35,36
EndSplineSet
EndChar

StartChar: less
Encoding: 60 60 30
Width: 1317
GlyphClass: 2
Flags: W
LayerCount: 2
Fore
SplineSet
187 614 m 1,0,-1
 1105 1091 l 1,1,-1
 1105 945 l 1,2,-1
 335 554 l 1,3,-1
 1105 164 l 1,4,-1
 1105 20 l 1,5,-1
 187 495 l 1,6,-1
 187 614 l 1,0,-1
EndSplineSet
EndChar

StartChar: equal
Encoding: 61 61 31
Width: 1317
GlyphClass: 2
Flags: W
LayerCount: 2
Fore
SplineSet
190 839 m 1,0,-1
 1123 839 l 1,1,-1
 1123 693 l 1,2,-1
 190 693 l 1,3,-1
 190 839 l 1,0,-1
190 415 m 1,4,-1
 1123 415 l 1,5,-1
 1123 269 l 1,6,-1
 190 269 l 1,7,-1
 190 415 l 1,4,-1
EndSplineSet
EndChar

StartChar: question
Encoding: 63 63 33
Width: 981
GlyphClass: 2
Flags: W
LayerCount: 2
Fore
SplineSet
382 706 m 1,0,1
 409 708 409 708 443.5 720.5 c 128,-1,2
 478 733 478 733 514.5 755.5 c 128,-1,3
 551 778 551 778 586.5 810.5 c 128,-1,4
 622 843 622 843 652.5 886 c 128,-1,5
 683 929 683 929 704.5 981.5 c 128,-1,6
 726 1034 726 1034 735 1096 c 0,7,8
 739 1127 739 1127 740.5 1165 c 128,-1,9
 742 1203 742 1203 738.5 1241.5 c 128,-1,10
 735 1280 735 1280 724.5 1316.5 c 128,-1,11
 714 1353 714 1353 694 1381 c 128,-1,12
 674 1409 674 1409 643 1426 c 128,-1,13
 612 1443 612 1443 567 1443 c 0,14,15
 519 1443 519 1443 483 1428 c 128,-1,16
 447 1413 447 1413 423 1395 c 0,17,18
 395 1374 395 1374 375 1347 c 1,19,-1
 301 1117 l 2,20,21
 293 1094 293 1094 273 1086.5 c 128,-1,22
 253 1079 253 1079 221 1079 c 0,23,24
 200 1079 200 1079 177 1090 c 128,-1,25
 154 1101 154 1101 140 1125.5 c 128,-1,26
 126 1150 126 1150 127.5 1189 c 128,-1,27
 129 1228 129 1228 158 1284 c 0,28,29
 180 1328 180 1328 220 1372 c 128,-1,30
 260 1416 260 1416 314 1450.5 c 128,-1,31
 368 1485 368 1485 434.5 1506.5 c 128,-1,32
 501 1528 501 1528 577 1528 c 0,33,34
 691 1528 691 1528 768 1494.5 c 128,-1,35
 845 1461 845 1461 889.5 1404 c 128,-1,36
 934 1347 934 1347 948.5 1270.5 c 128,-1,37
 963 1194 963 1194 951 1107 c 0,38,39
 937 1004 937 1004 890 918 c 128,-1,40
 843 832 843 832 777 767 c 128,-1,41
 711 702 711 702 633 658.5 c 128,-1,42
 555 615 555 615 479 598 c 1,43,-1
 447 377 l 1,44,-1
 335 377 l 1,45,-1
 382 706 l 1,0,1
222 122 m 256,46,47
 226 150 226 150 240 174.5 c 128,-1,48
 254 199 254 199 275.5 217.5 c 128,-1,49
 297 236 297 236 324 246.5 c 128,-1,50
 351 257 351 257 381 257 c 256,51,52
 411 257 411 257 435 246.5 c 128,-1,53
 459 236 459 236 475.5 217.5 c 128,-1,54
 492 199 492 199 499.5 174.5 c 128,-1,55
 507 150 507 150 503 122 c 256,56,57
 499 94 499 94 484.5 68 c 128,-1,58
 470 42 470 42 448 22.5 c 128,-1,59
 426 3 426 3 399 -8.5 c 128,-1,60
 372 -20 372 -20 342 -20 c 256,61,62
 312 -20 312 -20 288 -8.5 c 128,-1,63
 264 3 264 3 248 22.5 c 128,-1,64
 232 42 232 42 225 68 c 128,-1,65
 218 94 218 94 222 122 c 256,46,47
EndSplineSet
EndChar

StartChar: at
Encoding: 64 64 34
Width: 1903
GlyphClass: 2
Flags: W
LayerCount: 2
Fore
SplineSet
155 361 m 0,0,1
 155 527 155 527 197.5 667 c 128,-1,2
 240 807 240 807 314 920 c 128,-1,3
 388 1033 388 1033 487 1118.5 c 128,-1,4
 586 1204 586 1204 700 1262 c 128,-1,5
 814 1320 814 1320 936.5 1349 c 128,-1,6
 1059 1378 1059 1378 1179 1378 c 0,7,8
 1253 1378 1253 1378 1328 1363.5 c 128,-1,9
 1403 1349 1403 1349 1471.5 1319.5 c 128,-1,10
 1540 1290 1540 1290 1599.5 1244.5 c 128,-1,11
 1659 1199 1659 1199 1703.5 1137 c 128,-1,12
 1748 1075 1748 1075 1773 996.5 c 128,-1,13
 1798 918 1798 918 1798 822 c 0,14,15
 1798 707 1798 707 1769 609 c 128,-1,16
 1740 511 1740 511 1692.5 432.5 c 128,-1,17
 1645 354 1645 354 1584.5 294 c 128,-1,18
 1524 234 1524 234 1461 193.5 c 128,-1,19
 1398 153 1398 153 1338 132.5 c 128,-1,20
 1278 112 1278 112 1231 112 c 0,21,22
 1177 112 1177 112 1139 125.5 c 128,-1,23
 1101 139 1101 139 1077 160 c 128,-1,24
 1053 181 1053 181 1041.5 207 c 128,-1,25
 1030 233 1030 233 1029 259 c 1,26,27
 1014 232 1014 232 985 207 c 128,-1,28
 956 182 956 182 921.5 162.5 c 128,-1,29
 887 143 887 143 850.5 131.5 c 128,-1,30
 814 120 814 120 783 120 c 0,31,32
 741 120 741 120 700.5 128 c 128,-1,33
 660 136 660 136 628.5 160 c 128,-1,34
 597 184 597 184 577.5 229.5 c 128,-1,35
 558 275 558 275 558 350 c 0,36,37
 558 409 558 409 575 479 c 128,-1,38
 592 549 592 549 623.5 619 c 128,-1,39
 655 689 655 689 701 755 c 128,-1,40
 747 821 747 821 805.5 871.5 c 128,-1,41
 864 922 864 922 933.5 952.5 c 128,-1,42
 1003 983 1003 983 1083 983 c 0,43,44
 1129 983 1129 983 1158 969.5 c 128,-1,45
 1187 956 1187 956 1203.5 935 c 128,-1,46
 1220 914 1220 914 1226.5 888 c 128,-1,47
 1233 862 1233 862 1234 838 c 1,48,-1
 1277 956 l 1,49,-1
 1449 956 l 1,50,-1
 1206 369 l 2,51,52
 1201 356 1201 356 1193.5 330.5 c 128,-1,53
 1186 305 1186 305 1186 279 c 0,54,55
 1186 248 1186 248 1202 224.5 c 128,-1,56
 1218 201 1218 201 1262 201 c 0,57,58
 1295 201 1295 201 1339.5 219.5 c 128,-1,59
 1384 238 1384 238 1432.5 274 c 128,-1,60
 1481 310 1481 310 1528 362.5 c 128,-1,61
 1575 415 1575 415 1612 482.5 c 128,-1,62
 1649 550 1649 550 1672 631.5 c 128,-1,63
 1695 713 1695 713 1695 807 c 0,64,65
 1695 929 1695 929 1649 1018 c 128,-1,66
 1603 1107 1603 1107 1528 1165.5 c 128,-1,67
 1453 1224 1453 1224 1356.5 1252 c 128,-1,68
 1260 1280 1260 1280 1159 1280 c 0,69,70
 1030 1280 1030 1280 915 1246 c 128,-1,71
 800 1212 800 1212 702.5 1151 c 128,-1,72
 605 1090 605 1090 527.5 1004.5 c 128,-1,73
 450 919 450 919 395.5 815 c 128,-1,74
 341 711 341 711 312 592.5 c 128,-1,75
 283 474 283 474 283 347 c 0,76,77
 283 223 283 223 315 132 c 128,-1,78
 347 41 347 41 399.5 -23 c 128,-1,79
 452 -87 452 -87 519 -127 c 128,-1,80
 586 -167 586 -167 654.5 -189 c 128,-1,81
 723 -211 723 -211 788 -219 c 128,-1,82
 853 -227 853 -227 902 -227 c 0,83,84
 968 -227 968 -227 1026 -219 c 128,-1,85
 1084 -211 1084 -211 1133.5 -198 c 128,-1,86
 1183 -185 1183 -185 1224 -168.5 c 128,-1,87
 1265 -152 1265 -152 1298 -134 c 0,88,89
 1375 -93 1375 -93 1428 -40 c 1,90,-1
 1482 -109 l 1,91,92
 1455 -130 1455 -130 1398 -165.5 c 128,-1,93
 1341 -201 1341 -201 1263 -236 c 128,-1,94
 1185 -271 1185 -271 1089 -296.5 c 128,-1,95
 993 -322 993 -322 887 -322 c 0,96,97
 809 -322 809 -322 724 -306 c 128,-1,98
 639 -290 639 -290 557.5 -256 c 128,-1,99
 476 -222 476 -222 403 -168 c 128,-1,100
 330 -114 330 -114 275 -38 c 128,-1,101
 220 38 220 38 187.5 137 c 128,-1,102
 155 236 155 236 155 361 c 0,0,1
749 296 m 0,103,104
 749 279 749 279 752 263.5 c 128,-1,105
 755 248 755 248 763 236.5 c 128,-1,106
 771 225 771 225 785 218 c 128,-1,107
 799 211 799 211 822 211 c 0,108,109
 841 211 841 211 860.5 218.5 c 128,-1,110
 880 226 880 226 899.5 238 c 128,-1,111
 919 250 919 250 937 265.5 c 128,-1,112
 955 281 955 281 971 298 c 0,113,114
 1009 337 1009 337 1044 386 c 1,115,-1
 1173 726 l 1,116,117
 1172 749 1172 749 1172 778.5 c 128,-1,118
 1172 808 1172 808 1164.5 833.5 c 128,-1,119
 1157 859 1157 859 1137 876.5 c 128,-1,120
 1117 894 1117 894 1077 894 c 0,121,122
 1026 894 1026 894 982.5 860 c 128,-1,123
 939 826 939 826 904 773.5 c 128,-1,124
 869 721 869 721 842 658.5 c 128,-1,125
 815 596 815 596 796.5 539.5 c 128,-1,126
 778 483 778 483 768 439.5 c 128,-1,127
 758 396 758 396 757 383 c 0,128,129
 756 366 756 366 752.5 342.5 c 128,-1,130
 749 319 749 319 749 296 c 0,103,104
EndSplineSet
EndChar

StartChar: A
Encoding: 65 65 35
Width: 1374
GlyphClass: 2
Flags: W
LayerCount: 2
Fore
SplineSet
-102 0 m 2,0,1
 -110 0 -110 0 -115.5 6 c 128,-1,2
 -121 12 -121 12 -124 20 c 128,-1,3
 -127 28 -127 28 -128 36.5 c 128,-1,4
 -129 45 -129 45 -128 51 c 0,5,6
 -127 73 -127 73 -119 79.5 c 128,-1,7
 -111 86 -111 86 -90 88 c 0,8,9
 -71 90 -71 90 -45.5 90 c 128,-1,10
 -20 90 -20 90 7 95.5 c 128,-1,11
 34 101 34 101 58.5 116.5 c 128,-1,12
 83 132 83 132 100 165 c 2,13,-1
 772 1472 l 1,14,-1
 808 1472 l 1,15,-1
 1173 165 l 1,16,17
 1181 132 1181 132 1197.5 116.5 c 128,-1,18
 1214 101 1214 101 1234 95.5 c 128,-1,19
 1254 90 1254 90 1275.5 90 c 128,-1,20
 1297 90 1297 90 1315 88 c 0,21,22
 1335 86 1335 86 1342.5 80 c 128,-1,23
 1350 74 1350 74 1348 51 c 0,24,25
 1347 45 1347 45 1344 36.5 c 128,-1,26
 1341 28 1341 28 1336 20 c 128,-1,27
 1331 12 1331 12 1324 6 c 128,-1,28
 1317 0 1317 0 1309 0 c 2,29,-1
 793 0 l 2,30,31
 784 0 784 0 778.5 6 c 128,-1,32
 773 12 773 12 769.5 20 c 128,-1,33
 766 28 766 28 764.5 36.5 c 128,-1,34
 763 45 763 45 764 51 c 0,35,36
 765 67 765 67 772.5 76.5 c 128,-1,37
 780 86 780 86 800 88 c 0,38,39
 834 90 834 90 863.5 90.5 c 128,-1,40
 893 91 893 91 913 94.5 c 128,-1,41
 933 98 933 98 942.5 106 c 128,-1,42
 952 114 952 114 948 132 c 2,43,-1
 861 492 l 1,44,-1
 396 492 l 1,45,-1
 220 132 l 2,46,47
 212 114 212 114 220.5 106 c 128,-1,48
 229 98 229 98 248.5 94.5 c 128,-1,49
 268 91 268 91 297 90.5 c 128,-1,50
 326 90 326 90 360 88 c 0,51,52
 379 86 379 86 385 76.5 c 128,-1,53
 391 67 391 67 390 51 c 0,54,55
 389 45 389 45 386 36.5 c 128,-1,56
 383 28 383 28 378 20 c 128,-1,57
 373 12 373 12 366.5 6 c 128,-1,58
 360 0 360 0 351 0 c 2,59,-1
 -102 0 l 2,0,1
840 580 m 1,60,-1
 708 1126 l 1,61,-1
 439 580 l 1,62,-1
 840 580 l 1,60,-1
EndSplineSet
EndChar

StartChar: B
Encoding: 66 66 36
Width: 1339
GlyphClass: 2
Flags: W
LayerCount: 2
Fore
SplineSet
30 0 m 2,0,1
 21 0 21 0 15.5 5.5 c 128,-1,2
 10 11 10 11 7 19.5 c 128,-1,3
 4 28 4 28 3.5 36.5 c 128,-1,4
 3 45 3 45 3 51 c 0,5,6
 5 66 5 66 13 76 c 128,-1,7
 21 86 21 86 41 88 c 0,8,9
 69 90 69 90 96.5 94 c 128,-1,10
 124 98 124 98 146 105.5 c 128,-1,11
 168 113 168 113 182.5 124 c 128,-1,12
 197 135 197 135 200 152 c 2,13,-1
 371 1234 l 2,14,15
 372 1239 372 1239 372 1248 c 0,16,17
 372 1275 372 1275 358 1291 c 128,-1,18
 344 1307 344 1307 322.5 1315 c 128,-1,19
 301 1323 301 1323 274.5 1326 c 128,-1,20
 248 1329 248 1329 224 1331 c 0,21,22
 207 1333 207 1333 199.5 1337 c 128,-1,23
 192 1341 192 1341 193 1355 c 0,24,25
 193 1363 193 1363 194 1368 c 0,26,27
 195 1374 195 1374 198.5 1382.5 c 128,-1,28
 202 1391 202 1391 207.5 1399 c 128,-1,29
 213 1407 213 1407 220 1413 c 128,-1,30
 227 1419 227 1419 236 1419 c 2,31,-1
 769 1419 l 2,32,33
 873 1419 873 1419 959 1405.5 c 128,-1,34
 1045 1392 1045 1392 1106 1359.5 c 128,-1,35
 1167 1327 1167 1327 1200 1272 c 128,-1,36
 1233 1217 1233 1217 1232 1134 c 0,37,38
 1231 1070 1231 1070 1202.5 1008 c 128,-1,39
 1174 946 1174 946 1126 895 c 128,-1,40
 1078 844 1078 844 1014.5 809.5 c 128,-1,41
 951 775 951 775 881 765 c 1,42,43
 936 757 936 757 993.5 739.5 c 128,-1,44
 1051 722 1051 722 1097.5 687 c 128,-1,45
 1144 652 1144 652 1173.5 597 c 128,-1,46
 1203 542 1203 542 1202 460 c 0,47,48
 1200 354 1200 354 1152.5 269 c 128,-1,49
 1105 184 1105 184 1021 124 c 128,-1,50
 937 64 937 64 822.5 32 c 128,-1,51
 708 0 708 0 572 0 c 2,52,-1
 30 0 l 2,0,1
669 801 m 2,53,54
 701 801 701 801 739.5 806 c 128,-1,55
 778 811 778 811 816 824.5 c 128,-1,56
 854 838 854 838 890 861.5 c 128,-1,57
 926 885 926 885 953.5 921.5 c 128,-1,58
 981 958 981 958 998 1008.5 c 128,-1,59
 1015 1059 1015 1059 1016 1128 c 0,60,61
 1017 1188 1017 1188 995.5 1227 c 128,-1,62
 974 1266 974 1266 932 1289 c 128,-1,63
 890 1312 890 1312 830 1321.5 c 128,-1,64
 770 1331 770 1331 694 1331 c 2,65,-1
 583 1331 l 1,66,-1
 500 801 l 1,67,-1
 669 801 l 2,53,54
394 133 m 1,68,69
 394 121 394 121 411.5 113.5 c 128,-1,70
 429 106 429 106 452 102 c 128,-1,71
 475 98 475 98 499 97 c 128,-1,72
 523 96 523 96 536 96 c 0,73,74
 585 96 585 96 637 100 c 128,-1,75
 689 104 689 104 738 117 c 128,-1,76
 787 130 787 130 830.5 154.5 c 128,-1,77
 874 179 874 179 907 219 c 128,-1,78
 940 259 940 259 959.5 317.5 c 128,-1,79
 979 376 979 376 981 458 c 1,80,81
 981 517 981 517 963 559.5 c 128,-1,82
 945 602 945 602 916 630.5 c 128,-1,83
 887 659 887 659 851 676 c 128,-1,84
 815 693 815 693 779 701.5 c 128,-1,85
 743 710 743 710 710.5 712.5 c 128,-1,86
 678 715 678 715 658 715 c 2,87,-1
 486 715 l 1,88,-1
 394 133 l 1,68,69
EndSplineSet
EndChar

StartChar: C
Encoding: 67 67 37
Width: 1315
GlyphClass: 2
Flags: W
LayerCount: 2
Fore
SplineSet
77 609 m 0,0,1
 77 742 77 742 112 856.5 c 128,-1,2
 147 971 147 971 206.5 1064 c 128,-1,3
 266 1157 266 1157 345.5 1229 c 128,-1,4
 425 1301 425 1301 514 1350 c 128,-1,5
 603 1399 603 1399 696.5 1424 c 128,-1,6
 790 1449 790 1449 878 1449 c 256,7,8
 966 1449 966 1449 1031.5 1439.5 c 128,-1,9
 1097 1430 1097 1430 1144.5 1416.5 c 128,-1,10
 1192 1403 1192 1403 1224 1388 c 128,-1,11
 1256 1373 1256 1373 1279 1361 c 1,12,-1
 1241 1051 l 1,13,14
 1241 1039 1241 1039 1233 1031.5 c 128,-1,15
 1225 1024 1225 1024 1214.5 1019 c 128,-1,16
 1204 1014 1204 1014 1194 1012 c 128,-1,17
 1184 1010 1184 1010 1178 1010 c 0,18,19
 1164 1010 1164 1010 1151.5 1016 c 128,-1,20
 1139 1022 1139 1022 1137 1039 c 1,21,22
 1144 1202 1144 1202 1079 1277.5 c 128,-1,23
 1014 1353 1014 1353 864 1353 c 0,24,25
 808 1353 808 1353 746.5 1336 c 128,-1,26
 685 1319 685 1319 625 1281 c 128,-1,27
 565 1243 565 1243 510.5 1184 c 128,-1,28
 456 1125 456 1125 414.5 1041 c 128,-1,29
 373 957 373 957 348.5 846.5 c 128,-1,30
 324 736 324 736 324 597 c 0,31,32
 324 541 324 541 330 479.5 c 128,-1,33
 336 418 336 418 351.5 359 c 128,-1,34
 367 300 367 300 393.5 246.5 c 128,-1,35
 420 193 420 193 461 153 c 128,-1,36
 502 113 502 113 558 89 c 128,-1,37
 614 65 614 65 690 65 c 0,38,39
 768 65 768 65 828 89 c 128,-1,40
 888 113 888 113 933 154.5 c 128,-1,41
 978 196 978 196 1009 252 c 128,-1,42
 1040 308 1040 308 1061 373 c 1,43,44
 1069 393 1069 393 1077.5 399.5 c 128,-1,45
 1086 406 1086 406 1103 406 c 0,46,47
 1109 406 1109 406 1120 404 c 128,-1,48
 1131 402 1131 402 1142 398.5 c 128,-1,49
 1153 395 1153 395 1161 389 c 128,-1,50
 1169 383 1169 383 1169 375 c 2,51,-1
 1169 372 l 1,52,-1
 1106 108 l 2,53,54
 1103 97 1103 97 1072 74.5 c 128,-1,55
 1041 52 1041 52 988.5 28.5 c 128,-1,56
 936 5 936 5 864 -12.5 c 128,-1,57
 792 -30 792 -30 706 -30 c 0,58,59
 556 -30 556 -30 439 11 c 128,-1,60
 322 52 322 52 241.5 132 c 128,-1,61
 161 212 161 212 119 331.5 c 128,-1,62
 77 451 77 451 77 609 c 0,0,1
EndSplineSet
EndChar

StartChar: D
Encoding: 68 68 38
Width: 1534
GlyphClass: 2
Flags: W
LayerCount: 2
Fore
SplineSet
35 0 m 2,0,1
 26 0 26 0 20.5 6 c 128,-1,2
 15 12 15 12 12 20 c 128,-1,3
 9 28 9 28 8 36.5 c 128,-1,4
 7 45 7 45 8 51 c 0,5,6
 10 67 10 67 18 76.5 c 128,-1,7
 26 86 26 86 46 88 c 0,8,9
 70 90 70 90 96.5 94 c 128,-1,10
 123 98 123 98 145.5 105.5 c 128,-1,11
 168 113 168 113 183.5 124 c 128,-1,12
 199 135 199 135 201 152 c 2,13,-1
 373 1234 l 2,14,15
 378 1266 378 1266 365.5 1284.5 c 128,-1,16
 353 1303 353 1303 332 1313 c 128,-1,17
 311 1323 311 1323 284.5 1326 c 128,-1,18
 258 1329 258 1329 236 1331 c 0,19,20
 215 1333 215 1333 209 1339 c 128,-1,21
 203 1345 203 1345 207 1368 c 1,22,23
 207 1374 207 1374 210.5 1382.5 c 128,-1,24
 214 1391 214 1391 219.5 1399 c 128,-1,25
 225 1407 225 1407 232.5 1413 c 128,-1,26
 240 1419 240 1419 249 1419 c 2,27,-1
 859 1419 l 1,28,29
 986 1418 986 1418 1083.5 1397.5 c 128,-1,30
 1181 1377 1181 1377 1252.5 1340 c 128,-1,31
 1324 1303 1324 1303 1372 1252.5 c 128,-1,32
 1420 1202 1420 1202 1449 1142 c 128,-1,33
 1478 1082 1478 1082 1490 1014.5 c 128,-1,34
 1502 947 1502 947 1502 877 c 0,35,36
 1502 740 1502 740 1466.5 622 c 128,-1,37
 1431 504 1431 504 1370 406.5 c 128,-1,38
 1309 309 1309 309 1226 233 c 128,-1,39
 1143 157 1143 157 1048 105.5 c 128,-1,40
 953 54 953 54 850.5 27 c 128,-1,41
 748 0 748 0 648 0 c 2,42,-1
 35 0 l 2,0,1
408 153 m 1,43,44
 413 139 413 139 428.5 129 c 128,-1,45
 444 119 444 119 472.5 113 c 128,-1,46
 501 107 501 107 543 104 c 128,-1,47
 585 101 585 101 644 101 c 0,48,49
 717 101 717 101 792.5 119.5 c 128,-1,50
 868 138 868 138 938 178 c 128,-1,51
 1008 218 1008 218 1070 280 c 128,-1,52
 1132 342 1132 342 1178 429 c 128,-1,53
 1224 516 1224 516 1250.5 629 c 128,-1,54
 1277 742 1277 742 1277 884 c 0,55,56
 1277 1022 1277 1022 1244 1109 c 128,-1,57
 1211 1196 1211 1196 1147 1245.5 c 128,-1,58
 1083 1295 1083 1295 989 1313 c 128,-1,59
 895 1331 895 1331 772 1331 c 2,60,-1
 595 1331 l 1,61,-1
 408 153 l 1,43,44
EndSplineSet
EndChar

StartChar: E
Encoding: 69 69 39
Width: 1337
GlyphClass: 2
Flags: W
LayerCount: 2
Fore
SplineSet
15 0 m 1,0,1
 6 0 6 0 0.5 6 c 128,-1,2
 -5 12 -5 12 -8 20 c 128,-1,3
 -11 28 -11 28 -12 36.5 c 128,-1,4
 -13 45 -13 45 -12 51 c 0,5,6
 -10 67 -10 67 -2 76.5 c 128,-1,7
 6 86 6 86 26 88 c 0,8,9
 50 90 50 90 79.5 94 c 128,-1,10
 109 98 109 98 135.5 105.5 c 128,-1,11
 162 113 162 113 180.5 124 c 128,-1,12
 199 135 199 135 201 152 c 2,13,-1
 373 1234 l 2,14,15
 378 1266 378 1266 362.5 1284.5 c 128,-1,16
 347 1303 347 1303 322 1313 c 128,-1,17
 297 1323 297 1323 267.5 1326 c 128,-1,18
 238 1329 238 1329 216 1331 c 0,19,20
 195 1333 195 1333 189 1339 c 128,-1,21
 183 1345 183 1345 187 1368 c 1,22,23
 187 1374 187 1374 190.5 1382.5 c 128,-1,24
 194 1391 194 1391 199.5 1399 c 128,-1,25
 205 1407 205 1407 212.5 1413 c 128,-1,26
 220 1419 220 1419 229 1419 c 2,27,-1
 1268 1419 l 1,28,-1
 1244 1104 l 2,29,30
 1242 1087 1242 1087 1226 1078.5 c 128,-1,31
 1210 1070 1210 1070 1199 1070 c 0,32,33
 1183 1070 1183 1070 1170.5 1076.5 c 128,-1,34
 1158 1083 1158 1083 1158 1103 c 0,35,36
 1158 1113 1158 1113 1156 1134 c 128,-1,37
 1154 1155 1154 1155 1148 1180.5 c 128,-1,38
 1142 1206 1142 1206 1130.5 1232.5 c 128,-1,39
 1119 1259 1119 1259 1101 1281 c 128,-1,40
 1083 1303 1083 1303 1057.5 1317 c 128,-1,41
 1032 1331 1032 1331 998 1331 c 2,42,-1
 595 1331 l 1,43,-1
 506 773 l 1,44,-1
 790 773 l 1,45,46
 810 776 810 776 829.5 798 c 128,-1,47
 849 820 849 820 865 848.5 c 128,-1,48
 881 877 881 877 892.5 905 c 128,-1,49
 904 933 904 933 908 948 c 0,50,51
 913 968 913 968 930.5 974.5 c 128,-1,52
 948 981 948 981 964 981 c 0,53,54
 970 981 970 981 977 979 c 128,-1,55
 984 977 984 977 990 972.5 c 128,-1,56
 996 968 996 968 999 962 c 128,-1,57
 1002 956 1002 956 1001 947 c 2,58,-1
 931 504 l 2,59,60
 928 487 928 487 911.5 478.5 c 128,-1,61
 895 470 895 470 884 470 c 0,62,63
 876 470 876 470 867.5 471.5 c 128,-1,64
 859 473 859 473 852.5 476.5 c 128,-1,65
 846 480 846 480 841.5 486.5 c 128,-1,66
 837 493 837 493 838 503 c 1,67,68
 838 519 838 519 836 550 c 128,-1,69
 834 581 834 581 826.5 611.5 c 128,-1,70
 819 642 819 642 806 664.5 c 128,-1,71
 793 687 793 687 772 687 c 2,72,-1
 494 687 l 1,73,-1
 415 193 l 2,74,75
 410 166 410 166 415 148 c 128,-1,76
 420 130 420 130 431.5 119 c 128,-1,77
 443 108 443 108 458 103 c 128,-1,78
 473 98 473 98 490 97 c 1,79,-1
 871 97 l 2,80,81
 912 97 912 97 945.5 114.5 c 128,-1,82
 979 132 979 132 1006 159.5 c 128,-1,83
 1033 187 1033 187 1053 220 c 128,-1,84
 1073 253 1073 253 1087.5 283.5 c 128,-1,85
 1102 314 1102 314 1110.5 338.5 c 128,-1,86
 1119 363 1119 363 1123 373 c 0,87,88
 1130 392 1130 392 1144 399 c 128,-1,89
 1158 406 1158 406 1174 406 c 0,90,91
 1214 406 1214 406 1213 372 c 1,92,-1
 1144 0 l 1,93,-1
 15 0 l 1,94,-1
 15 0 l 1,0,1
EndSplineSet
EndChar

StartChar: F
Encoding: 70 70 40
Width: 1227
GlyphClass: 2
Flags: W
LayerCount: 2
Fore
SplineSet
15 0 m 1,0,1
 6 0 6 0 0.5 6 c 128,-1,2
 -5 12 -5 12 -8 20 c 128,-1,3
 -11 28 -11 28 -12 36.5 c 128,-1,4
 -13 45 -13 45 -12 51 c 0,5,6
 -10 67 -10 67 -2 76.5 c 128,-1,7
 6 86 6 86 26 88 c 0,8,9
 56 90 56 90 86 94 c 128,-1,10
 116 98 116 98 141 105.5 c 128,-1,11
 166 113 166 113 182.5 124 c 128,-1,12
 199 135 199 135 201 152 c 2,13,-1
 373 1234 l 2,14,15
 378 1266 378 1266 364 1284.5 c 128,-1,16
 350 1303 350 1303 326 1313 c 128,-1,17
 302 1323 302 1323 272.5 1326 c 128,-1,18
 243 1329 243 1329 216 1331 c 0,19,20
 195 1333 195 1333 189 1339 c 128,-1,21
 183 1345 183 1345 187 1368 c 1,22,23
 187 1374 187 1374 190.5 1382.5 c 128,-1,24
 194 1391 194 1391 199.5 1399 c 128,-1,25
 205 1407 205 1407 212.5 1413 c 128,-1,26
 220 1419 220 1419 229 1419 c 2,27,-1
 1243 1419 l 1,28,-1
 1225 1070 l 1,29,30
 1221 1053 1221 1053 1204.5 1044.5 c 128,-1,31
 1188 1036 1188 1036 1177 1036 c 0,32,33
 1161 1036 1161 1036 1150 1042.5 c 128,-1,34
 1139 1049 1139 1049 1141 1069 c 0,35,36
 1141 1079 1141 1079 1138 1102 c 128,-1,37
 1135 1125 1135 1125 1128 1154.5 c 128,-1,38
 1121 1184 1121 1184 1109 1215.5 c 128,-1,39
 1097 1247 1097 1247 1078 1272.5 c 128,-1,40
 1059 1298 1059 1298 1033 1315 c 128,-1,41
 1007 1332 1007 1332 973 1332 c 2,42,-1
 594 1332 l 1,43,-1
 502 741 l 1,44,-1
 773 741 l 1,45,46
 792 744 792 744 811 766 c 128,-1,47
 830 788 830 788 845.5 816.5 c 128,-1,48
 861 845 861 845 872.5 873 c 128,-1,49
 884 901 884 901 889 916 c 1,50,51
 894 936 894 936 911.5 942.5 c 128,-1,52
 929 949 929 949 945 949 c 0,53,54
 956 949 956 949 969.5 940.5 c 128,-1,55
 983 932 983 932 981 915 c 2,56,-1
 910 472 l 2,57,58
 909 463 909 463 904 457 c 128,-1,59
 899 451 899 451 892 446.5 c 128,-1,60
 885 442 885 442 877.5 440 c 128,-1,61
 870 438 870 438 864 438 c 0,62,63
 848 438 848 438 832.5 444.5 c 128,-1,64
 817 451 817 451 817 471 c 1,65,66
 818 487 818 487 816 518 c 128,-1,67
 814 549 814 549 807 579.5 c 128,-1,68
 800 610 800 610 787 632.5 c 128,-1,69
 774 655 774 655 753 655 c 2,70,-1
 488 655 l 1,71,-1
 415 197 l 2,72,73
 410 165 410 165 434 144 c 128,-1,74
 458 123 458 123 495.5 110.5 c 128,-1,75
 533 98 533 98 575.5 93 c 128,-1,76
 618 88 618 88 650 88 c 0,77,78
 667 88 667 88 675.5 81 c 128,-1,79
 684 74 684 74 681 51 c 0,80,81
 680 45 680 45 677.5 36.5 c 128,-1,82
 675 28 675 28 671.5 20 c 128,-1,83
 668 12 668 12 662 6 c 128,-1,84
 656 0 656 0 647 0 c 2,85,-1
 15 0 l 1,86,-1
 15 0 l 1,0,1
EndSplineSet
EndChar

StartChar: G
Encoding: 71 71 41
Width: 1485
GlyphClass: 2
Flags: W
LayerCount: 2
Fore
SplineSet
119 585 m 0,0,1
 115 727 115 727 149.5 846.5 c 128,-1,2
 184 966 184 966 246 1062 c 128,-1,3
 308 1158 308 1158 392 1230.5 c 128,-1,4
 476 1303 476 1303 569.5 1351.5 c 128,-1,5
 663 1400 663 1400 760.5 1424.5 c 128,-1,6
 858 1449 858 1449 948 1449 c 0,7,8
 1043 1449 1043 1449 1114.5 1439.5 c 128,-1,9
 1186 1430 1186 1430 1238.5 1416.5 c 128,-1,10
 1291 1403 1291 1403 1327 1388 c 128,-1,11
 1363 1373 1363 1373 1388 1361 c 1,12,-1
 1339 1051 l 1,13,14
 1339 1039 1339 1039 1332 1031.5 c 128,-1,15
 1325 1024 1325 1024 1315.5 1019 c 128,-1,16
 1306 1014 1306 1014 1296.5 1012 c 128,-1,17
 1287 1010 1287 1010 1281 1010 c 0,18,19
 1268 1010 1268 1010 1259.5 1015.5 c 128,-1,20
 1251 1021 1251 1021 1249 1035 c 1,21,-1
 1249 1039 l 1,22,23
 1246 1105 1246 1105 1230 1162.5 c 128,-1,24
 1214 1220 1214 1220 1178 1262.5 c 128,-1,25
 1142 1305 1142 1305 1084.5 1329 c 128,-1,26
 1027 1353 1027 1353 942 1353 c 0,27,28
 841 1353 841 1353 757.5 1319 c 128,-1,29
 674 1285 674 1285 608.5 1227.5 c 128,-1,30
 543 1170 543 1170 494.5 1093 c 128,-1,31
 446 1016 446 1016 415 930 c 128,-1,32
 384 844 384 844 370 753.5 c 128,-1,33
 356 663 356 663 359 579 c 0,34,35
 362 484 362 484 379 409 c 128,-1,36
 396 334 396 334 422.5 276.5 c 128,-1,37
 449 219 449 219 483 179 c 128,-1,38
 517 139 517 139 554 113.5 c 128,-1,39
 591 88 591 88 629.5 76.5 c 128,-1,40
 668 65 668 65 704 65 c 0,41,42
 782 65 782 65 839 75.5 c 128,-1,43
 896 86 896 86 935 102 c 128,-1,44
 974 118 974 118 996 136.5 c 128,-1,45
 1018 155 1018 155 1026 170 c 1,46,-1
 1078 475 l 1,47,48
 1077 500 1077 500 1059.5 515 c 128,-1,49
 1042 530 1042 530 1015.5 537.5 c 128,-1,50
 989 545 989 545 959 548 c 128,-1,51
 929 551 929 551 902 553 c 1,52,53
 872 554 872 554 871 574 c 1,54,55
 872 572 872 572 873.5 582.5 c 128,-1,56
 875 593 875 593 879 606 c 128,-1,57
 883 619 883 619 891.5 630 c 128,-1,58
 900 641 900 641 916 641 c 2,59,-1
 1428 641 l 2,60,61
 1441 641 1441 641 1447 628.5 c 128,-1,62
 1453 616 1453 616 1453 603 c 0,63,64
 1454 583 1454 583 1445 569 c 128,-1,65
 1436 555 1436 555 1413 553 c 0,66,67
 1391 551 1391 551 1369.5 547 c 128,-1,68
 1348 543 1348 543 1330.5 535.5 c 128,-1,69
 1313 528 1313 528 1301 516.5 c 128,-1,70
 1289 505 1289 505 1287 489 c 2,71,-1
 1230 123 l 1,72,73
 1218 106 1218 106 1177.5 80.5 c 128,-1,74
 1137 55 1137 55 1072.5 30 c 128,-1,75
 1008 5 1008 5 921 -12.5 c 128,-1,76
 834 -30 834 -30 731 -30 c 0,77,78
 662 -30 662 -30 591 -15.5 c 128,-1,79
 520 -1 520 -1 453 30 c 128,-1,80
 386 61 386 61 327 109.5 c 128,-1,81
 268 158 268 158 223 226 c 128,-1,82
 178 294 178 294 150 383.5 c 128,-1,83
 122 473 122 473 119 585 c 0,0,1
EndSplineSet
EndChar

StartChar: H
Encoding: 72 72 42
Width: 1669
GlyphClass: 2
Flags: W
LayerCount: 2
Fore
SplineSet
49 0 m 1,0,1
 40 0 40 0 34 6 c 128,-1,2
 28 12 28 12 24.5 20 c 128,-1,3
 21 28 21 28 19.5 36.5 c 128,-1,4
 18 45 18 45 19 51 c 0,5,6
 22 67 22 67 30 76.5 c 128,-1,7
 38 86 38 86 58 88 c 0,8,9
 82 90 82 90 107 94 c 128,-1,10
 132 98 132 98 152.5 105.5 c 128,-1,11
 173 113 173 113 186.5 124 c 128,-1,12
 200 135 200 135 203 152 c 2,13,-1
 373 1234 l 2,14,15
 379 1266 379 1266 368.5 1284.5 c 128,-1,16
 358 1303 358 1303 338.5 1313 c 128,-1,17
 319 1323 319 1323 294.5 1326 c 128,-1,18
 270 1329 270 1329 247 1331 c 0,19,20
 226 1333 226 1333 219.5 1339 c 128,-1,21
 213 1345 213 1345 216 1368 c 0,22,23
 217 1374 217 1374 220.5 1382.5 c 128,-1,24
 224 1391 224 1391 229.5 1399 c 128,-1,25
 235 1407 235 1407 242 1413 c 128,-1,26
 249 1419 249 1419 258 1419 c 2,27,-1
 753 1419 l 2,28,29
 762 1419 762 1419 767.5 1413 c 128,-1,30
 773 1407 773 1407 776 1399 c 128,-1,31
 779 1391 779 1391 779.5 1382.5 c 128,-1,32
 780 1374 780 1374 779 1368 c 0,33,34
 777 1352 777 1352 769 1342.5 c 128,-1,35
 761 1333 761 1333 741 1331 c 0,36,37
 717 1329 717 1329 690.5 1325 c 128,-1,38
 664 1321 664 1321 641.5 1313.5 c 128,-1,39
 619 1306 619 1306 604 1294.5 c 128,-1,40
 589 1283 589 1283 587 1267 c 2,41,-1
 507 773 l 1,42,-1
 1225 773 l 1,43,-1
 1298 1234 l 2,44,45
 1304 1266 1304 1266 1292 1284.5 c 128,-1,46
 1280 1303 1280 1303 1258.5 1313 c 128,-1,47
 1237 1323 1237 1323 1211 1326 c 128,-1,48
 1185 1329 1185 1329 1162 1331 c 0,49,50
 1141 1333 1141 1333 1134.5 1339 c 128,-1,51
 1128 1345 1128 1345 1131 1368 c 0,52,53
 1132 1374 1132 1374 1135.5 1382.5 c 128,-1,54
 1139 1391 1139 1391 1144.5 1399 c 128,-1,55
 1150 1407 1150 1407 1157 1413 c 128,-1,56
 1164 1419 1164 1419 1173 1419 c 2,57,-1
 1678 1419 l 2,58,59
 1687 1419 1687 1419 1692.5 1413 c 128,-1,60
 1698 1407 1698 1407 1701 1399 c 128,-1,61
 1704 1391 1704 1391 1704.5 1382.5 c 128,-1,62
 1705 1374 1705 1374 1704 1368 c 0,63,64
 1702 1352 1702 1352 1694 1342.5 c 128,-1,65
 1686 1333 1686 1333 1666 1331 c 0,66,67
 1642 1329 1642 1329 1615.5 1325 c 128,-1,68
 1589 1321 1589 1321 1566.5 1313.5 c 128,-1,69
 1544 1306 1544 1306 1529 1294.5 c 128,-1,70
 1514 1283 1514 1283 1512 1267 c 2,71,-1
 1341 185 l 2,72,73
 1335 153 1335 153 1347.5 134.5 c 128,-1,74
 1360 116 1360 116 1381 106 c 128,-1,75
 1402 96 1402 96 1428 93 c 128,-1,76
 1454 90 1454 90 1477 88 c 0,77,78
 1497 86 1497 86 1504 80 c 128,-1,79
 1511 74 1511 74 1507 51 c 0,80,81
 1506 45 1506 45 1503.5 36.5 c 128,-1,82
 1501 28 1501 28 1496 20 c 128,-1,83
 1491 12 1491 12 1484.5 6 c 128,-1,84
 1478 0 1478 0 1469 0 c 2,85,-1
 964 0 l 2,86,87
 955 0 955 0 949 6 c 128,-1,88
 943 12 943 12 939.5 20 c 128,-1,89
 936 28 936 28 934.5 36.5 c 128,-1,90
 933 45 933 45 934 51 c 0,91,92
 937 67 937 67 945 76.5 c 128,-1,93
 953 86 953 86 973 88 c 0,94,95
 997 90 997 90 1023.5 94 c 128,-1,96
 1050 98 1050 98 1072.5 105.5 c 128,-1,97
 1095 113 1095 113 1110 124 c 128,-1,98
 1125 135 1125 135 1128 152 c 2,99,-1
 1211 687 l 1,100,-1
 493 687 l 1,101,-1
 416 185 l 1,102,103
 410 153 410 153 422.5 134.5 c 128,-1,104
 435 116 435 116 456 106 c 128,-1,105
 477 96 477 96 503 93 c 128,-1,106
 529 90 529 90 552 88 c 0,107,108
 572 86 572 86 579 80 c 128,-1,109
 586 74 586 74 582 51 c 0,110,111
 581 45 581 45 578.5 36.5 c 128,-1,112
 576 28 576 28 571 20 c 128,-1,113
 566 12 566 12 559.5 6 c 128,-1,114
 553 0 553 0 544 0 c 2,115,-1
 49 0 l 1,116,-1
 49 0 l 1,0,1
EndSplineSet
EndChar

StartChar: I
Encoding: 73 73 43
Width: 799
GlyphClass: 2
Flags: W
LayerCount: 2
Fore
SplineSet
62 0 m 1,0,1
 53 0 53 0 48 6 c 128,-1,2
 43 12 43 12 41 20 c 128,-1,3
 39 28 39 28 38.5 36.5 c 128,-1,4
 38 45 38 45 39 51 c 0,5,6
 41 67 41 67 49 76.5 c 128,-1,7
 57 86 57 86 77 88 c 0,8,9
 101 90 101 90 128 94 c 128,-1,10
 155 98 155 98 177.5 105.5 c 128,-1,11
 200 113 200 113 215.5 124 c 128,-1,12
 231 135 231 135 233 152 c 2,13,-1
 404 1234 l 2,14,15
 410 1266 410 1266 398 1284.5 c 128,-1,16
 386 1303 386 1303 365 1313 c 128,-1,17
 344 1323 344 1323 318 1326 c 128,-1,18
 292 1329 292 1329 270 1331 c 0,19,20
 249 1333 249 1333 242.5 1339 c 128,-1,21
 236 1345 236 1345 241 1368 c 0,22,23
 242 1374 242 1374 246 1382.5 c 128,-1,24
 250 1391 250 1391 256 1399 c 128,-1,25
 262 1407 262 1407 269.5 1413 c 128,-1,26
 277 1419 277 1419 286 1419 c 2,27,-1
 791 1419 l 2,28,29
 800 1419 800 1419 805 1413 c 128,-1,30
 810 1407 810 1407 812 1399 c 128,-1,31
 814 1391 814 1391 814.5 1382.5 c 128,-1,32
 815 1374 815 1374 814 1368 c 0,33,34
 812 1352 812 1352 803 1342.5 c 128,-1,35
 794 1333 794 1333 774 1331 c 0,36,37
 750 1329 750 1329 723.5 1325 c 128,-1,38
 697 1321 697 1321 674.5 1313.5 c 128,-1,39
 652 1306 652 1306 636 1294.5 c 128,-1,40
 620 1283 620 1283 616 1267 c 1,41,-1
 447 185 l 2,42,43
 441 153 441 153 452.5 134.5 c 128,-1,44
 464 116 464 116 485 106 c 128,-1,45
 506 96 506 96 532 93 c 128,-1,46
 558 90 558 90 581 88 c 0,47,48
 601 86 601 86 608 80 c 128,-1,49
 615 74 615 74 610 51 c 0,50,51
 609 45 609 45 605.5 36.5 c 128,-1,52
 602 28 602 28 596.5 20 c 128,-1,53
 591 12 591 12 583.5 6 c 128,-1,54
 576 0 576 0 567 0 c 2,55,-1
 62 0 l 1,56,-1
 62 0 l 1,0,1
EndSplineSet
EndChar

StartChar: J
Encoding: 74 74 44
Width: 1061
GlyphClass: 2
Flags: W
LayerCount: 2
Fore
SplineSet
225 113 m 1,0,1
 251 90 251 90 289.5 74.5 c 128,-1,2
 328 59 328 59 380 59 c 0,3,4
 433 59 433 59 477.5 79 c 128,-1,5
 522 99 522 99 557.5 141 c 128,-1,6
 593 183 593 183 618.5 248.5 c 128,-1,7
 644 314 644 314 659 406 c 2,8,-1
 792 1248 l 2,9,10
 796 1275 796 1275 780 1290.5 c 128,-1,11
 764 1306 764 1306 737.5 1314.5 c 128,-1,12
 711 1323 711 1323 680 1326 c 128,-1,13
 649 1329 649 1329 624 1331 c 0,14,15
 607 1333 607 1333 600 1337 c 128,-1,16
 593 1341 593 1341 593 1352 c 0,17,18
 593 1356 593 1356 593.5 1359.5 c 128,-1,19
 594 1363 594 1363 595 1368 c 1,20,21
 595 1374 595 1374 598.5 1382.5 c 128,-1,22
 602 1391 602 1391 607.5 1399 c 128,-1,23
 613 1407 613 1407 620.5 1413 c 128,-1,24
 628 1419 628 1419 637 1419 c 2,25,-1
 1182 1419 l 2,26,27
 1190 1419 1190 1419 1195 1414 c 128,-1,28
 1200 1409 1200 1409 1203 1402 c 128,-1,29
 1206 1395 1206 1395 1207 1386.5 c 128,-1,30
 1208 1378 1208 1378 1208 1372 c 0,31,32
 1208 1355 1208 1355 1198 1344 c 128,-1,33
 1188 1333 1188 1333 1168 1331 c 0,34,35
 1145 1329 1145 1329 1117.5 1325 c 128,-1,36
 1090 1321 1090 1321 1065 1313.5 c 128,-1,37
 1040 1306 1040 1306 1022.5 1294.5 c 128,-1,38
 1005 1283 1005 1283 1002 1267 c 2,39,-1
 872 439 l 2,40,41
 856 341 856 341 827.5 268.5 c 128,-1,42
 799 196 799 196 760 144 c 128,-1,43
 721 92 721 92 675 58 c 128,-1,44
 629 24 629 24 579 4.5 c 128,-1,45
 529 -15 529 -15 477 -22.5 c 128,-1,46
 425 -30 425 -30 375 -30 c 0,47,48
 318 -30 318 -30 257 -9 c 128,-1,49
 196 12 196 12 146 50 c 128,-1,50
 96 88 96 88 63.5 141.5 c 128,-1,51
 31 195 31 195 31 260 c 0,52,53
 31 311 31 311 46 352.5 c 128,-1,54
 61 394 61 394 86 422 c 128,-1,55
 111 450 111 450 144 463.5 c 128,-1,56
 177 477 177 477 213 473 c 0,57,58
 222 472 222 472 233.5 469 c 128,-1,59
 245 466 245 466 255.5 459.5 c 128,-1,60
 266 453 266 453 273 443 c 128,-1,61
 280 433 280 433 280 418 c 1,62,-1
 225 113 l 1,63,-1
 225 113 l 1,0,1
EndSplineSet
EndChar

StartChar: K
Encoding: 75 75 45
Width: 1421
GlyphClass: 2
Flags: W
LayerCount: 2
Fore
SplineSet
49 0 m 2,0,1
 40 0 40 0 34.5 6 c 128,-1,2
 29 12 29 12 26 20 c 128,-1,3
 23 28 23 28 22 36.5 c 128,-1,4
 21 45 21 45 22 51 c 0,5,6
 24 67 24 67 32 76.5 c 128,-1,7
 40 86 40 86 60 88 c 0,8,9
 84 90 84 90 108.5 94 c 128,-1,10
 133 98 133 98 152.5 105.5 c 128,-1,11
 172 113 172 113 185.5 124 c 128,-1,12
 199 135 199 135 201 152 c 2,13,-1
 373 1234 l 2,14,15
 378 1266 378 1266 365.5 1284.5 c 128,-1,16
 353 1303 353 1303 332 1313 c 128,-1,17
 311 1323 311 1323 284.5 1326 c 128,-1,18
 258 1329 258 1329 236 1331 c 0,19,20
 215 1333 215 1333 209 1339 c 128,-1,21
 203 1345 203 1345 207 1368 c 1,22,23
 207 1374 207 1374 210.5 1382.5 c 128,-1,24
 214 1391 214 1391 219.5 1399 c 128,-1,25
 225 1407 225 1407 232.5 1413 c 128,-1,26
 240 1419 240 1419 249 1419 c 2,27,-1
 744 1419 l 2,28,29
 753 1419 753 1419 758 1413 c 128,-1,30
 763 1407 763 1407 766 1399 c 128,-1,31
 769 1391 769 1391 769.5 1382.5 c 128,-1,32
 770 1374 770 1374 770 1368 c 1,33,34
 767 1352 767 1352 758.5 1342.5 c 128,-1,35
 750 1333 750 1333 730 1331 c 0,36,37
 706 1329 706 1329 681 1325 c 128,-1,38
 656 1321 656 1321 636 1313.5 c 128,-1,39
 616 1306 616 1306 602 1294.5 c 128,-1,40
 588 1283 588 1283 585 1267 c 2,41,-1
 413 185 l 2,42,43
 408 153 408 153 421 134.5 c 128,-1,44
 434 116 434 116 456 106 c 128,-1,45
 478 96 478 96 504.5 93 c 128,-1,46
 531 90 531 90 554 88 c 0,47,48
 574 86 574 86 581 80 c 128,-1,49
 588 74 588 74 585 51 c 0,50,51
 584 45 584 45 580.5 36.5 c 128,-1,52
 577 28 577 28 572 20 c 128,-1,53
 567 12 567 12 560 6 c 128,-1,54
 553 0 553 0 544 0 c 2,55,-1
 49 0 l 2,0,1
1116 1276 m 2,56,57
 1132 1292 1132 1292 1125 1302 c 128,-1,58
 1118 1312 1118 1312 1099.5 1318 c 128,-1,59
 1081 1324 1081 1324 1057.5 1326 c 128,-1,60
 1034 1328 1034 1328 1018 1330 c 0,61,62
 999 1332 999 1332 995.5 1341.5 c 128,-1,63
 992 1351 992 1351 995 1367 c 1,64,65
 995 1373 995 1373 998.5 1381.5 c 128,-1,66
 1002 1390 1002 1390 1007.5 1398 c 128,-1,67
 1013 1406 1013 1406 1020.5 1412 c 128,-1,68
 1028 1418 1028 1418 1037 1418 c 2,69,-1
 1469 1418 l 2,70,71
 1478 1418 1478 1418 1483 1412 c 128,-1,72
 1488 1406 1488 1406 1491 1398 c 128,-1,73
 1494 1390 1494 1390 1494.5 1381.5 c 128,-1,74
 1495 1373 1495 1373 1495 1367 c 1,75,76
 1487 1330 1487 1330 1454 1330 c 0,77,78
 1403 1330 1403 1330 1349.5 1315.5 c 128,-1,79
 1296 1301 1296 1301 1257 1263 c 2,80,-1
 758 767 l 1,81,82
 800 736 800 736 845.5 682.5 c 128,-1,83
 891 629 891 629 937.5 566 c 128,-1,84
 984 503 984 503 1028 437.5 c 128,-1,85
 1072 372 1072 372 1111 317 c 0,86,87
 1131 290 1131 290 1158.5 252.5 c 128,-1,88
 1186 215 1186 215 1217.5 180 c 128,-1,89
 1249 145 1249 145 1283.5 119 c 128,-1,90
 1318 93 1318 93 1352 89 c 0,91,92
 1373 87 1373 87 1377.5 71 c 128,-1,93
 1382 55 1382 55 1379 32 c 0,94,95
 1377 21 1377 21 1368 10.5 c 128,-1,96
 1359 0 1359 0 1342 0 c 2,97,-1
 1130 0 l 2,98,99
 1103 0 1103 0 1083.5 6.5 c 128,-1,100
 1064 13 1064 13 1048.5 23 c 128,-1,101
 1033 33 1033 33 1021.5 45.5 c 128,-1,102
 1010 58 1010 58 1000 70 c 0,103,104
 967 112 967 112 930.5 173 c 128,-1,105
 894 234 894 234 854.5 301.5 c 128,-1,106
 815 369 815 369 774.5 437 c 128,-1,107
 734 505 734 505 694 560 c 128,-1,108
 654 615 654 615 615 651 c 128,-1,109
 576 687 576 687 541 692 c 1,110,-1
 1116 1276 l 2,56,57
EndSplineSet
EndChar

StartChar: L
Encoding: 76 76 46
Width: 1237
GlyphClass: 2
Flags: W
LayerCount: 2
Fore
SplineSet
35 0 m 1,0,1
 26 0 26 0 20.5 6 c 128,-1,2
 15 12 15 12 12 20 c 128,-1,3
 9 28 9 28 8 36.5 c 128,-1,4
 7 45 7 45 8 51 c 0,5,6
 10 67 10 67 18 76.5 c 128,-1,7
 26 86 26 86 46 88 c 0,8,9
 70 90 70 90 96.5 94 c 128,-1,10
 123 98 123 98 145.5 105.5 c 128,-1,11
 168 113 168 113 183.5 124 c 128,-1,12
 199 135 199 135 201 152 c 2,13,-1
 373 1234 l 2,14,15
 378 1266 378 1266 365.5 1284.5 c 128,-1,16
 353 1303 353 1303 332 1313 c 128,-1,17
 311 1323 311 1323 284.5 1326 c 128,-1,18
 258 1329 258 1329 236 1331 c 0,19,20
 215 1333 215 1333 209 1339 c 128,-1,21
 203 1345 203 1345 207 1368 c 1,22,23
 207 1374 207 1374 210.5 1382.5 c 128,-1,24
 214 1391 214 1391 219.5 1399 c 128,-1,25
 225 1407 225 1407 232.5 1413 c 128,-1,26
 240 1419 240 1419 249 1419 c 2,27,-1
 764 1419 l 2,28,29
 773 1419 773 1419 778 1413 c 128,-1,30
 783 1407 783 1407 786 1399 c 128,-1,31
 789 1391 789 1391 789.5 1382.5 c 128,-1,32
 790 1374 790 1374 790 1368 c 1,33,34
 787 1352 787 1352 778.5 1341.5 c 128,-1,35
 770 1331 770 1331 750 1331 c 0,36,37
 725 1331 725 1331 697.5 1326.5 c 128,-1,38
 670 1322 670 1322 645.5 1311.5 c 128,-1,39
 621 1301 621 1301 603 1283 c 128,-1,40
 585 1265 585 1265 580 1237 c 2,41,-1
 411 177 l 2,42,43
 408 154 408 154 412 139.5 c 128,-1,44
 416 125 416 125 426 116.5 c 128,-1,45
 436 108 436 108 450.5 104.5 c 128,-1,46
 465 101 465 101 482 101 c 2,47,-1
 792 101 l 2,48,49
 827 101 827 101 863.5 133.5 c 128,-1,50
 900 166 900 166 935.5 216.5 c 128,-1,51
 971 267 971 267 1004 326.5 c 128,-1,52
 1037 386 1037 386 1065 440 c 1,53,54
 1073 458 1073 458 1087 465.5 c 128,-1,55
 1101 473 1101 473 1117 473 c 0,56,57
 1136 473 1136 473 1146.5 464.5 c 128,-1,58
 1157 456 1157 456 1153 439 c 2,59,-1
 1046 0 l 1,60,-1
 35 0 l 1,61,-1
 35 0 l 1,0,1
EndSplineSet
EndChar

StartChar: M
Encoding: 77 77 47
Width: 1898
GlyphClass: 2
Flags: W
LayerCount: 2
Fore
SplineSet
-31 0 m 1,0,1
 -39 0 -39 0 -44 6 c 128,-1,2
 -49 12 -49 12 -52 20 c 128,-1,3
 -55 28 -55 28 -55.5 36.5 c 128,-1,4
 -56 45 -56 45 -55 51 c 0,5,6
 -53 67 -53 67 -45.5 76.5 c 128,-1,7
 -38 86 -38 86 -18 88 c 0,8,9
 11 90 11 90 46 93.5 c 128,-1,10
 81 97 81 97 112.5 106.5 c 128,-1,11
 144 116 144 116 168 134.5 c 128,-1,12
 192 153 192 153 198 184 c 2,13,-1
 408 1234 l 2,14,15
 414 1266 414 1266 396 1284.5 c 128,-1,16
 378 1303 378 1303 348 1312.5 c 128,-1,17
 318 1322 318 1322 283 1325.5 c 128,-1,18
 248 1329 248 1329 221 1331 c 0,19,20
 200 1333 200 1333 193.5 1339 c 128,-1,21
 187 1345 187 1345 190 1368 c 0,22,23
 191 1374 191 1374 194 1382.5 c 128,-1,24
 197 1391 197 1391 202.5 1399 c 128,-1,25
 208 1407 208 1407 216 1413 c 128,-1,26
 224 1419 224 1419 233 1419 c 2,27,-1
 747 1419 l 1,28,-1
 913 366 l 1,29,-1
 925 366 l 1,30,-1
 1377 1246 l 1,31,32
 1405 1306 1405 1306 1424 1345 c 128,-1,33
 1443 1384 1443 1384 1456 1419 c 1,34,-1
 1914 1419 l 2,35,36
 1923 1419 1923 1419 1928 1413 c 128,-1,37
 1933 1407 1933 1407 1936 1399 c 128,-1,38
 1939 1391 1939 1391 1939.5 1382.5 c 128,-1,39
 1940 1374 1940 1374 1939 1368 c 0,40,41
 1937 1352 1937 1352 1929 1342.5 c 128,-1,42
 1921 1333 1921 1333 1901 1331 c 0,43,44
 1877 1329 1877 1329 1847 1325 c 128,-1,45
 1817 1321 1817 1321 1790.5 1313.5 c 128,-1,46
 1764 1306 1764 1306 1745.5 1294.5 c 128,-1,47
 1727 1283 1727 1283 1725 1267 c 2,48,-1
 1605 185 l 2,49,50
 1601 153 1601 153 1618.5 134.5 c 128,-1,51
 1636 116 1636 116 1663 106 c 128,-1,52
 1690 96 1690 96 1720 93 c 128,-1,53
 1750 90 1750 90 1773 88 c 0,54,55
 1793 86 1793 86 1800 80 c 128,-1,56
 1807 74 1807 74 1804 51 c 0,57,58
 1803 45 1803 45 1800 36.5 c 128,-1,59
 1797 28 1797 28 1791.5 20 c 128,-1,60
 1786 12 1786 12 1779 6 c 128,-1,61
 1772 0 1772 0 1763 0 c 2,62,-1
 1188 0 l 2,63,64
 1179 0 1179 0 1173.5 6 c 128,-1,65
 1168 12 1168 12 1165 20 c 128,-1,66
 1162 28 1162 28 1161 36.5 c 128,-1,67
 1160 45 1160 45 1161 51 c 0,68,69
 1163 67 1163 67 1171 76.5 c 128,-1,70
 1179 86 1179 86 1199 88 c 0,71,72
 1223 90 1223 90 1256 94 c 128,-1,73
 1289 98 1289 98 1318.5 105.5 c 128,-1,74
 1348 113 1348 113 1369.5 124 c 128,-1,75
 1391 135 1391 135 1393 152 c 2,76,-1
 1522 1281 l 1,77,-1
 1493 1281 l 1,78,-1
 850 0 l 1,79,-1
 800 0 l 1,80,-1
 798 0 l 1,81,-1
 798 2 l 1,82,-1
 548 1281 l 1,83,-1
 512 1281 l 1,84,-1
 296 185 l 2,85,86
 290 153 290 153 306.5 134.5 c 128,-1,87
 323 116 323 116 351.5 106.5 c 128,-1,88
 380 97 380 97 413.5 93.5 c 128,-1,89
 447 90 447 90 474 88 c 0,90,91
 494 86 494 86 501 80 c 128,-1,92
 508 74 508 74 505 51 c 0,93,94
 504 45 504 45 501 36.5 c 128,-1,95
 498 28 498 28 492.5 20 c 128,-1,96
 487 12 487 12 480 6 c 128,-1,97
 473 0 473 0 464 0 c 2,98,-1
 -31 0 l 1,99,-1
 -31 0 l 1,0,1
EndSplineSet
EndChar

StartChar: N
Encoding: 78 78 48
Width: 1571
GlyphClass: 2
Flags: W
LayerCount: 2
Fore
SplineSet
-11 0 m 1,0,1
 -20 0 -20 0 -25 6 c 128,-1,2
 -30 12 -30 12 -33 20 c 128,-1,3
 -36 28 -36 28 -36.5 36.5 c 128,-1,4
 -37 45 -37 45 -36 51 c 0,5,6
 -33 67 -33 67 -24.5 76.5 c 128,-1,7
 -16 86 -16 86 4 88 c 0,8,9
 28 90 28 90 58.5 94.5 c 128,-1,10
 89 99 89 99 117.5 108 c 128,-1,11
 146 117 146 117 167.5 132.5 c 128,-1,12
 189 148 189 148 194 172 c 2,13,-1
 393 1204 l 2,14,15
 399 1236 399 1236 384 1259.5 c 128,-1,16
 369 1283 369 1283 343.5 1298 c 128,-1,17
 318 1313 318 1313 288 1321 c 128,-1,18
 258 1329 258 1329 236 1331 c 0,19,20
 215 1333 215 1333 209 1339 c 128,-1,21
 203 1345 203 1345 207 1368 c 0,22,23
 208 1374 208 1374 212 1382.5 c 128,-1,24
 216 1391 216 1391 221.5 1399 c 128,-1,25
 227 1407 227 1407 234.5 1413 c 128,-1,26
 242 1419 242 1419 251 1419 c 2,27,-1
 600 1419 l 1,28,-1
 1174 318 l 1,29,-1
 1186 318 l 1,30,-1
 1364 1234 l 2,31,32
 1370 1266 1370 1266 1351 1284.5 c 128,-1,33
 1332 1303 1332 1303 1301.5 1313 c 128,-1,34
 1271 1323 1271 1323 1237 1326 c 128,-1,35
 1203 1329 1203 1329 1181 1331 c 0,36,37
 1160 1333 1160 1333 1154 1339 c 128,-1,38
 1148 1345 1148 1345 1152 1368 c 0,39,40
 1153 1374 1153 1374 1157 1382.5 c 128,-1,41
 1161 1391 1161 1391 1166.5 1399 c 128,-1,42
 1172 1407 1172 1407 1179.5 1413 c 128,-1,43
 1187 1419 1187 1419 1196 1419 c 2,44,-1
 1671 1419 l 2,45,46
 1680 1419 1680 1419 1685 1413 c 128,-1,47
 1690 1407 1690 1407 1692.5 1399 c 128,-1,48
 1695 1391 1695 1391 1695.5 1382.5 c 128,-1,49
 1696 1374 1696 1374 1695 1368 c 0,50,51
 1692 1352 1692 1352 1683.5 1342.5 c 128,-1,52
 1675 1333 1675 1333 1655 1331 c 0,53,54
 1632 1329 1632 1329 1601 1325.5 c 128,-1,55
 1570 1322 1570 1322 1541 1312.5 c 128,-1,56
 1512 1303 1512 1303 1489.5 1284.5 c 128,-1,57
 1467 1266 1467 1266 1461 1234 c 2,58,-1
 1244 113 l 2,59,60
 1242 104 1242 104 1241.5 96.5 c 128,-1,61
 1241 89 1241 89 1240.5 81.5 c 128,-1,62
 1240 74 1240 74 1239 64 c 128,-1,63
 1238 54 1238 54 1237 40 c 0,64,65
 1235 19 1235 19 1227 5.5 c 128,-1,66
 1219 -8 1219 -8 1208.5 -16 c 128,-1,67
 1198 -24 1198 -24 1185.5 -27 c 128,-1,68
 1173 -30 1173 -30 1163 -30 c 0,69,70
 1147 -30 1147 -30 1133 -23.5 c 128,-1,71
 1119 -17 1119 -17 1113 -8 c 1,72,-1
 500 1170 l 1,73,-1
 483 1170 l 1,74,-1
 293 185 l 2,75,76
 287 153 287 153 306 134.5 c 128,-1,77
 325 116 325 116 355.5 106 c 128,-1,78
 386 96 386 96 419.5 93 c 128,-1,79
 453 90 453 90 476 88 c 0,80,81
 496 86 496 86 503 80 c 128,-1,82
 510 74 510 74 505 51 c 0,83,84
 504 45 504 45 500.5 36.5 c 128,-1,85
 497 28 497 28 492 20 c 128,-1,86
 487 12 487 12 480 6 c 128,-1,87
 473 0 473 0 464 0 c 2,88,-1
 -11 0 l 1,89,-1
 -11 0 l 1,0,1
EndSplineSet
EndChar

StartChar: O
Encoding: 79 79 49
Width: 1495
GlyphClass: 2
Flags: W
LayerCount: 2
Fore
SplineSet
114 586 m 0,0,1
 114 700 114 700 138.5 808 c 128,-1,2
 163 916 163 916 209 1011.5 c 128,-1,3
 255 1107 255 1107 321 1187.5 c 128,-1,4
 387 1268 387 1268 469.5 1326 c 128,-1,5
 552 1384 552 1384 649.5 1416.5 c 128,-1,6
 747 1449 747 1449 857 1449 c 0,7,8
 999 1449 999 1449 1105.5 1402.5 c 128,-1,9
 1212 1356 1212 1356 1283.5 1275 c 128,-1,10
 1355 1194 1355 1194 1390.5 1084.5 c 128,-1,11
 1426 975 1426 975 1426 848 c 0,12,13
 1426 735 1426 735 1401.5 626 c 128,-1,14
 1377 517 1377 517 1331 419.5 c 128,-1,15
 1285 322 1285 322 1219.5 239.5 c 128,-1,16
 1154 157 1154 157 1071.5 97.5 c 128,-1,17
 989 38 989 38 891.5 4.5 c 128,-1,18
 794 -29 794 -29 685 -29 c 0,19,20
 543 -29 543 -29 436 19 c 128,-1,21
 329 67 329 67 257.5 150.5 c 128,-1,22
 186 234 186 234 150 346 c 128,-1,23
 114 458 114 458 114 586 c 0,0,1
352 499 m 256,24,25
 352 398 352 398 370 318 c 128,-1,26
 388 238 388 238 428 181.5 c 128,-1,27
 468 125 468 125 532.5 95 c 128,-1,28
 597 65 597 65 691 65 c 0,29,30
 786 65 786 65 859.5 100.5 c 128,-1,31
 933 136 933 136 988 198 c 128,-1,32
 1043 260 1043 260 1080.5 343 c 128,-1,33
 1118 426 1118 426 1141 522 c 128,-1,34
 1164 618 1164 618 1174 721 c 128,-1,35
 1184 824 1184 824 1184 925 c 256,36,37
 1184 1026 1184 1026 1166 1106 c 128,-1,38
 1148 1186 1148 1186 1108 1241.5 c 128,-1,39
 1068 1297 1068 1297 1003.5 1326.5 c 128,-1,40
 939 1356 939 1356 845 1356 c 0,41,42
 749 1356 749 1356 675.5 1320.5 c 128,-1,43
 602 1285 602 1285 547 1224 c 128,-1,44
 492 1163 492 1163 455 1080 c 128,-1,45
 418 997 418 997 395 901.5 c 128,-1,46
 372 806 372 806 362 703 c 128,-1,47
 352 600 352 600 352 499 c 256,24,25
EndSplineSet
EndChar

StartChar: P
Encoding: 80 80 50
Width: 1249
GlyphClass: 2
Flags: W
LayerCount: 2
Fore
SplineSet
35 0 m 2,0,1
 26 0 26 0 20.5 6 c 128,-1,2
 15 12 15 12 12 20 c 128,-1,3
 9 28 9 28 8 36.5 c 128,-1,4
 7 45 7 45 8 51 c 0,5,6
 10 67 10 67 18 76.5 c 128,-1,7
 26 86 26 86 46 88 c 0,8,9
 70 90 70 90 96.5 94 c 128,-1,10
 123 98 123 98 145.5 105.5 c 128,-1,11
 168 113 168 113 183 124 c 128,-1,12
 198 135 198 135 201 152 c 2,13,-1
 373 1234 l 2,14,15
 378 1266 378 1266 366 1284.5 c 128,-1,16
 354 1303 354 1303 332.5 1313 c 128,-1,17
 311 1323 311 1323 284.5 1326 c 128,-1,18
 258 1329 258 1329 236 1331 c 0,19,20
 215 1333 215 1333 209 1339 c 128,-1,21
 203 1345 203 1345 207 1368 c 1,22,23
 207 1374 207 1374 210.5 1382.5 c 128,-1,24
 214 1391 214 1391 219.5 1399 c 128,-1,25
 225 1407 225 1407 232.5 1413 c 128,-1,26
 240 1419 240 1419 249 1419 c 2,27,-1
 731 1419 l 2,28,29
 872 1419 872 1419 969 1395.5 c 128,-1,30
 1066 1372 1066 1372 1126.5 1326 c 128,-1,31
 1187 1280 1187 1280 1214 1213 c 128,-1,32
 1241 1146 1241 1146 1241 1059 c 0,33,34
 1241 934 1241 934 1186 840 c 128,-1,35
 1131 746 1131 746 1041 682.5 c 128,-1,36
 951 619 951 619 836 587 c 128,-1,37
 721 555 721 555 602 555 c 2,38,-1
 472 555 l 1,39,-1
 413 185 l 2,40,41
 408 153 408 153 427.5 134.5 c 128,-1,42
 447 116 447 116 478 106 c 128,-1,43
 509 96 509 96 545 93 c 128,-1,44
 581 90 581 90 610 88 c 0,45,46
 630 86 630 86 637 80 c 128,-1,47
 644 74 644 74 641 51 c 0,48,49
 640 45 640 45 636.5 36.5 c 128,-1,50
 633 28 633 28 628 20 c 128,-1,51
 623 12 623 12 616 6 c 128,-1,52
 609 0 609 0 600 0 c 2,53,-1
 35 0 l 2,0,1
611 641 m 2,54,55
 693 641 693 641 766.5 667 c 128,-1,56
 840 693 840 693 895 746 c 128,-1,57
 950 799 950 799 982 880 c 128,-1,58
 1014 961 1014 961 1014 1071 c 0,59,60
 1014 1130 1014 1130 1000 1178 c 128,-1,61
 986 1226 986 1226 951 1260 c 128,-1,62
 916 1294 916 1294 856.5 1312.5 c 128,-1,63
 797 1331 797 1331 707 1331 c 2,64,-1
 594 1331 l 1,65,-1
 486 641 l 1,66,-1
 611 641 l 2,54,55
EndSplineSet
EndChar

StartChar: Q
Encoding: 81 81 51
Width: 1495
GlyphClass: 2
Flags: W
LayerCount: 2
Fore
SplineSet
546 -15 m 1,0,1
 438 7 438 7 357 61.5 c 128,-1,2
 276 116 276 116 222 195.5 c 128,-1,3
 168 275 168 275 141 375 c 128,-1,4
 114 475 114 475 114 586 c 0,5,6
 114 700 114 700 138.5 808 c 128,-1,7
 163 916 163 916 209 1011.5 c 128,-1,8
 255 1107 255 1107 321 1187.5 c 128,-1,9
 387 1268 387 1268 469.5 1326 c 128,-1,10
 552 1384 552 1384 649.5 1416.5 c 128,-1,11
 747 1449 747 1449 857 1449 c 0,12,13
 999 1449 999 1449 1105.5 1402.5 c 128,-1,14
 1212 1356 1212 1356 1283.5 1275 c 128,-1,15
 1355 1194 1355 1194 1390.5 1084.5 c 128,-1,16
 1426 975 1426 975 1426 848 c 0,17,18
 1426 743 1426 743 1405 642 c 128,-1,19
 1384 541 1384 541 1344.5 449 c 128,-1,20
 1305 357 1305 357 1248.5 277.5 c 128,-1,21
 1192 198 1192 198 1120.5 136.5 c 128,-1,22
 1049 75 1049 75 963.5 34 c 128,-1,23
 878 -7 878 -7 782 -21 c 1,24,25
 777 -51 777 -51 780 -85 c 128,-1,26
 783 -119 783 -119 798 -153.5 c 128,-1,27
 813 -188 813 -188 840.5 -219 c 128,-1,28
 868 -250 868 -250 911 -273.5 c 128,-1,29
 954 -297 954 -297 1014 -311 c 128,-1,30
 1074 -325 1074 -325 1154 -323 c 1,31,-1
 1142 -393 l 1,32,33
 1125 -401 1125 -401 1100 -406 c 0,34,35
 1079 -411 1079 -411 1048.5 -415 c 128,-1,36
 1018 -419 1018 -419 977 -419 c 0,37,38
 923 -419 923 -419 864.5 -411.5 c 128,-1,39
 806 -404 806 -404 751.5 -386 c 128,-1,40
 697 -368 697 -368 650.5 -338.5 c 128,-1,41
 604 -309 604 -309 572.5 -264.5 c 128,-1,42
 541 -220 541 -220 529 -159.5 c 128,-1,43
 517 -99 517 -99 532 -20 c 1,44,-1
 546 -15 l 1,0,1
352 499 m 256,45,46
 352 398 352 398 370 318 c 128,-1,47
 388 238 388 238 428 181.5 c 128,-1,48
 468 125 468 125 532.5 95 c 128,-1,49
 597 65 597 65 691 65 c 0,50,51
 786 65 786 65 859.5 100.5 c 128,-1,52
 933 136 933 136 988 198 c 128,-1,53
 1043 260 1043 260 1080.5 343 c 128,-1,54
 1118 426 1118 426 1141 522 c 128,-1,55
 1164 618 1164 618 1174 721 c 128,-1,56
 1184 824 1184 824 1184 925 c 256,57,58
 1184 1026 1184 1026 1166 1106 c 128,-1,59
 1148 1186 1148 1186 1108 1241.5 c 128,-1,60
 1068 1297 1068 1297 1003.5 1326.5 c 128,-1,61
 939 1356 939 1356 845 1356 c 0,62,63
 749 1356 749 1356 675.5 1320.5 c 128,-1,64
 602 1285 602 1285 547 1224 c 128,-1,65
 492 1163 492 1163 455 1080 c 128,-1,66
 418 997 418 997 395 901.5 c 128,-1,67
 372 806 372 806 362 703 c 128,-1,68
 352 600 352 600 352 499 c 256,45,46
EndSplineSet
EndChar

StartChar: R
Encoding: 82 82 52
Width: 1438
GlyphClass: 2
Flags: W
LayerCount: 2
Fore
SplineSet
15 0 m 2,0,1
 1 0 1 0 -5 14.5 c 128,-1,2
 -11 29 -11 29 -11 42 c 0,3,4
 -11 48 -11 48 -10 51 c 0,5,6
 -8 66 -8 66 -0.5 76 c 128,-1,7
 7 86 7 86 26 88 c 0,8,9
 50 90 50 90 79.5 94 c 128,-1,10
 109 98 109 98 135 105.5 c 128,-1,11
 161 113 161 113 179.5 124 c 128,-1,12
 198 135 198 135 201 152 c 2,13,-1
 375 1251 l 2,14,15
 379 1275 379 1275 368 1289 c 128,-1,16
 357 1303 357 1303 338 1310.5 c 128,-1,17
 319 1318 319 1318 296 1321.5 c 128,-1,18
 273 1325 273 1325 253 1328 c 128,-1,19
 233 1331 233 1331 219 1336 c 128,-1,20
 205 1341 205 1341 205 1352 c 0,21,22
 205 1356 205 1356 205.5 1359.5 c 128,-1,23
 206 1363 206 1363 207 1368 c 1,24,25
 207 1374 207 1374 210.5 1382.5 c 128,-1,26
 214 1391 214 1391 219.5 1399 c 128,-1,27
 225 1407 225 1407 232.5 1413 c 128,-1,28
 240 1419 240 1419 249 1419 c 2,29,-1
 703 1419 l 2,30,31
 862 1419 862 1419 971.5 1400 c 128,-1,32
 1081 1381 1081 1381 1149.5 1341 c 128,-1,33
 1218 1301 1218 1301 1250 1238 c 128,-1,34
 1282 1175 1282 1175 1285 1088 c 0,35,36
 1288 1011 1288 1011 1255.5 936.5 c 128,-1,37
 1223 862 1223 862 1159 801.5 c 128,-1,38
 1095 741 1095 741 1000.5 700.5 c 128,-1,39
 906 660 906 660 785 651 c 1,40,41
 850 633 850 633 899 606 c 128,-1,42
 948 579 948 579 985 545 c 128,-1,43
 1022 511 1022 511 1049.5 470.5 c 128,-1,44
 1077 430 1077 430 1099.5 386 c 128,-1,45
 1122 342 1122 342 1141.5 294.5 c 128,-1,46
 1161 247 1161 247 1183 199 c 0,47,48
 1197 167 1197 167 1215 147 c 128,-1,49
 1233 127 1233 127 1255.5 114.5 c 128,-1,50
 1278 102 1278 102 1305 96.5 c 128,-1,51
 1332 91 1332 91 1365 89 c 0,52,53
 1382 88 1382 88 1388.5 82 c 128,-1,54
 1395 76 1395 76 1395 63 c 0,55,56
 1394 45 1394 45 1390 31 c 0,57,58
 1386 19 1386 19 1377.5 9.5 c 128,-1,59
 1369 0 1369 0 1355 0 c 2,60,-1
 1177 0 l 2,61,62
 1106 0 1106 0 1058.5 27 c 128,-1,63
 1011 54 1011 54 978 98 c 128,-1,64
 945 142 945 142 922.5 198 c 128,-1,65
 900 254 900 254 881 312.5 c 128,-1,66
 862 371 862 371 841.5 427 c 128,-1,67
 821 483 821 483 792 527 c 128,-1,68
 763 571 763 571 721 598 c 128,-1,69
 679 625 679 625 616 625 c 2,70,-1
 483 625 l 1,71,-1
 413 185 l 2,72,73
 407 152 407 152 424 133.5 c 128,-1,74
 441 115 441 115 468 105.5 c 128,-1,75
 495 96 495 96 526 93 c 128,-1,76
 557 90 557 90 580 88 c 0,77,78
 596 86 596 86 603.5 82 c 128,-1,79
 611 78 611 78 611 66 c 0,80,81
 611 64 611 64 609.5 53.5 c 128,-1,82
 608 43 608 43 604 31 c 128,-1,83
 600 19 600 19 592 9.5 c 128,-1,84
 584 0 584 0 570 0 c 2,85,-1
 15 0 l 2,0,1
577 711 m 2,86,87
 821 711 821 711 944 811 c 128,-1,88
 1067 911 1067 911 1060 1099 c 0,89,90
 1057 1166 1057 1166 1030.5 1211 c 128,-1,91
 1004 1256 1004 1256 959 1283 c 128,-1,92
 914 1310 914 1310 854 1321 c 128,-1,93
 794 1332 794 1332 725 1332 c 2,94,-1
 595 1332 l 1,95,-1
 496 711 l 1,96,-1
 577 711 l 2,86,87
EndSplineSet
EndChar

StartChar: S
Encoding: 83 83 53
Width: 1149
GlyphClass: 2
Flags: W
LayerCount: 2
Fore
SplineSet
50 72 m 0,0,1
 62 125 62 125 72 183 c 128,-1,2
 82 241 82 241 90 295 c 128,-1,3
 98 349 98 349 102.5 395 c 128,-1,4
 107 441 107 441 109 471 c 1,5,6
 110 503 110 503 124 511.5 c 128,-1,7
 138 520 138 520 158 520 c 0,8,9
 175 520 175 520 191 509 c 128,-1,10
 207 498 207 498 207 478 c 1,11,12
 208 465 208 465 208 445 c 128,-1,13
 208 425 208 425 211 397.5 c 128,-1,14
 214 370 214 370 221 335 c 128,-1,15
 228 300 228 300 242 257 c 0,16,17
 259 203 259 203 290 165.5 c 128,-1,18
 321 128 321 128 361 104.5 c 128,-1,19
 401 81 401 81 448 70 c 128,-1,20
 495 59 495 59 544 59 c 0,21,22
 607 59 607 59 661.5 73.5 c 128,-1,23
 716 88 716 88 756 119 c 128,-1,24
 796 150 796 150 817.5 199.5 c 128,-1,25
 839 249 839 249 836 320 c 0,26,27
 834 379 834 379 806 426.5 c 128,-1,28
 778 474 778 474 736 513 c 128,-1,29
 694 552 694 552 642.5 585.5 c 128,-1,30
 591 619 591 619 542 651 c 0,31,32
 474 695 474 695 420 735.5 c 128,-1,33
 366 776 366 776 327 824 c 128,-1,34
 288 872 288 872 266 932 c 128,-1,35
 244 992 244 992 241 1075 c 0,36,37
 238 1155 238 1155 267 1223.5 c 128,-1,38
 296 1292 296 1292 353 1342 c 128,-1,39
 410 1392 410 1392 494.5 1420.5 c 128,-1,40
 579 1449 579 1449 687 1449 c 0,41,42
 725 1449 725 1449 765 1442 c 128,-1,43
 805 1435 805 1435 839.5 1425.5 c 128,-1,44
 874 1416 874 1416 900 1406 c 128,-1,45
 926 1396 926 1396 937 1391 c 1,46,47
 943 1387 943 1387 950 1387.5 c 128,-1,48
 957 1388 957 1388 962 1388 c 0,49,50
 977 1388 977 1388 987.5 1395 c 128,-1,51
 998 1402 998 1402 1007.5 1410 c 128,-1,52
 1017 1418 1017 1418 1027 1425 c 128,-1,53
 1037 1432 1037 1432 1051 1432 c 0,54,55
 1070 1432 1070 1432 1084.5 1422 c 128,-1,56
 1099 1412 1099 1412 1099 1398 c 256,57,58
 1099 1384 1099 1384 1095 1350.5 c 128,-1,59
 1091 1317 1091 1317 1086.5 1273.5 c 128,-1,60
 1082 1230 1082 1230 1077 1181 c 128,-1,61
 1072 1132 1072 1132 1071 1087 c 0,62,63
 1070 1066 1070 1066 1065.5 1054.5 c 128,-1,64
 1061 1043 1061 1043 1053.5 1037 c 128,-1,65
 1046 1031 1046 1031 1036.5 1029.5 c 128,-1,66
 1027 1028 1027 1028 1017 1028 c 0,67,68
 1001 1028 1001 1028 988 1034.5 c 128,-1,69
 975 1041 975 1041 975 1050 c 0,70,71
 972 1131 972 1131 949 1191 c 128,-1,72
 926 1251 926 1251 889 1290.5 c 128,-1,73
 852 1330 852 1330 804 1350 c 128,-1,74
 756 1370 756 1370 703 1370 c 0,75,76
 649 1370 649 1370 599.5 1355.5 c 128,-1,77
 550 1341 550 1341 513.5 1310.5 c 128,-1,78
 477 1280 477 1280 456 1233 c 128,-1,79
 435 1186 435 1186 437 1121 c 0,80,81
 438 1068 438 1068 463.5 1023.5 c 128,-1,82
 489 979 489 979 527 941.5 c 128,-1,83
 565 904 565 904 609.5 873.5 c 128,-1,84
 654 843 654 843 693 820 c 0,85,86
 754 784 754 784 815.5 744 c 128,-1,87
 877 704 877 704 926.5 651.5 c 128,-1,88
 976 599 976 599 1008 531 c 128,-1,89
 1040 463 1040 463 1043 371 c 256,90,91
 1046 279 1046 279 1010 205 c 128,-1,92
 974 131 974 131 907.5 79 c 128,-1,93
 841 27 841 27 749 -1.5 c 128,-1,94
 657 -30 657 -30 549 -30 c 0,95,96
 481 -30 481 -30 425.5 -19 c 128,-1,97
 370 -8 370 -8 327 8.5 c 128,-1,98
 284 25 284 25 252 44 c 128,-1,99
 220 63 220 63 198 78 c 0,100,101
 193 82 193 82 183 77 c 128,-1,102
 173 72 173 72 165 61 c 0,103,104
 148 39 148 39 126.5 29.5 c 128,-1,105
 105 20 105 20 90 20 c 0,106,107
 70 20 70 20 58 37 c 128,-1,108
 46 54 46 54 50 72 c 0,0,1
EndSplineSet
EndChar

StartChar: T
Encoding: 84 84 54
Width: 1268
GlyphClass: 2
Flags: W
LayerCount: 2
Fore
SplineSet
190 51 m 0,0,1
 192 67 192 67 200 76.5 c 128,-1,2
 208 86 208 86 228 88 c 0,3,4
 264 90 264 90 298.5 94.5 c 128,-1,5
 333 99 333 99 361.5 109 c 128,-1,6
 390 119 390 119 409 136.5 c 128,-1,7
 428 154 428 154 432 182 c 2,8,-1
 611 1331 l 1,9,-1
 368 1331 l 2,10,11
 340 1331 340 1331 314.5 1312.5 c 128,-1,12
 289 1294 289 1294 267.5 1264.5 c 128,-1,13
 246 1235 246 1235 228 1199 c 128,-1,14
 210 1163 210 1163 196.5 1128.5 c 128,-1,15
 183 1094 183 1094 174.5 1064.5 c 128,-1,16
 166 1035 166 1035 162 1019 c 0,17,18
 156 999 156 999 140 992.5 c 128,-1,19
 124 986 124 986 108 986 c 0,20,21
 102 986 102 986 94 988 c 128,-1,22
 86 990 86 990 79 994.5 c 128,-1,23
 72 999 72 999 67 1005 c 128,-1,24
 62 1011 62 1011 64 1020 c 0,25,26
 70 1053 70 1053 77 1095 c 128,-1,27
 84 1137 84 1137 92 1181.5 c 128,-1,28
 100 1226 100 1226 108.5 1268.5 c 128,-1,29
 117 1311 117 1311 124 1344.5 c 128,-1,30
 131 1378 131 1378 137 1398.5 c 128,-1,31
 143 1419 143 1419 147 1419 c 2,32,-1
 1267 1419 l 1,33,-1
 1261 1020 l 1,34,35
 1259 1011 1259 1011 1252 1005 c 128,-1,36
 1245 999 1245 999 1236 994.5 c 128,-1,37
 1227 990 1227 990 1218 988 c 128,-1,38
 1209 986 1209 986 1203 986 c 0,39,40
 1187 986 1187 986 1176.5 992.5 c 128,-1,41
 1166 999 1166 999 1168 1019 c 0,42,43
 1169 1035 1169 1035 1168 1064.5 c 128,-1,44
 1167 1094 1167 1094 1162 1128.5 c 128,-1,45
 1157 1163 1157 1163 1148 1199 c 128,-1,46
 1139 1235 1139 1235 1124 1264.5 c 128,-1,47
 1109 1294 1109 1294 1088 1312.5 c 128,-1,48
 1067 1331 1067 1331 1039 1331 c 2,49,-1
 818 1331 l 1,50,-1
 640 185 l 2,51,52
 635 153 635 153 655 134.5 c 128,-1,53
 675 116 675 116 706.5 106 c 128,-1,54
 738 96 738 96 775 93 c 128,-1,55
 812 90 812 90 842 88 c 0,56,57
 862 86 862 86 869 80 c 128,-1,58
 876 74 876 74 873 51 c 0,59,60
 872 45 872 45 868.5 36.5 c 128,-1,61
 865 28 865 28 860 20 c 128,-1,62
 855 12 855 12 848 6 c 128,-1,63
 841 0 841 0 832 0 c 2,64,-1
 217 0 l 2,65,66
 208 0 208 0 202.5 6 c 128,-1,67
 197 12 197 12 194 20 c 128,-1,68
 191 28 191 28 190 36.5 c 128,-1,69
 189 45 189 45 190 51 c 0,0,1
EndSplineSet
EndChar

StartChar: U
Encoding: 85 85 55
Width: 1548
GlyphClass: 2
Flags: W
LayerCount: 2
Fore
SplineSet
258 394 m 0,0,1
 256 438 256 438 259.5 480 c 128,-1,2
 263 522 263 522 268 556 c 2,3,-1
 380 1256 l 2,4,5
 384 1280 384 1280 373 1293.5 c 128,-1,6
 362 1307 362 1307 343.5 1314 c 128,-1,7
 325 1321 325 1321 302.5 1324 c 128,-1,8
 280 1327 280 1327 260.5 1329.5 c 128,-1,9
 241 1332 241 1332 227 1336.5 c 128,-1,10
 213 1341 213 1341 213 1352 c 0,11,12
 213 1356 213 1356 213.5 1359.5 c 128,-1,13
 214 1363 214 1363 215 1368 c 1,14,15
 215 1374 215 1374 218.5 1382.5 c 128,-1,16
 222 1391 222 1391 227.5 1399 c 128,-1,17
 233 1407 233 1407 240.5 1413 c 128,-1,18
 248 1419 248 1419 257 1419 c 2,19,-1
 782 1419 l 2,20,21
 796 1419 796 1419 801.5 1405 c 128,-1,22
 807 1391 807 1391 807 1378 c 1,23,24
 809 1358 809 1358 799 1345.5 c 128,-1,25
 789 1333 789 1333 768 1331 c 0,26,27
 741 1329 741 1329 711.5 1325 c 128,-1,28
 682 1321 682 1321 656.5 1313.5 c 128,-1,29
 631 1306 631 1306 613.5 1294.5 c 128,-1,30
 596 1283 596 1283 593 1267 c 2,31,-1
 481 564 l 1,32,33
 474 513 474 513 471 468.5 c 128,-1,34
 468 424 468 424 468 385 c 1,35,36
 474 221 474 221 546 143 c 128,-1,37
 618 65 618 65 756 65 c 0,38,39
 841 65 841 65 905.5 83 c 128,-1,40
 970 101 970 101 1019 133 c 128,-1,41
 1068 165 1068 165 1102.5 210.5 c 128,-1,42
 1137 256 1137 256 1160.5 310 c 128,-1,43
 1184 364 1184 364 1199.5 426 c 128,-1,44
 1215 488 1215 488 1225 554 c 2,45,-1
 1334 1254 l 2,46,47
 1337 1275 1337 1275 1319 1289 c 128,-1,48
 1301 1303 1301 1303 1274.5 1312 c 128,-1,49
 1248 1321 1248 1321 1218.5 1325 c 128,-1,50
 1189 1329 1189 1329 1170 1331 c 0,51,52
 1153 1333 1153 1333 1146 1336.5 c 128,-1,53
 1139 1340 1139 1340 1139 1352 c 0,54,55
 1139 1356 1139 1356 1139.5 1359.5 c 128,-1,56
 1140 1363 1140 1363 1141 1368 c 1,57,58
 1141 1374 1141 1374 1144.5 1382.5 c 128,-1,59
 1148 1391 1148 1391 1153.5 1399 c 128,-1,60
 1159 1407 1159 1407 1166.5 1413 c 128,-1,61
 1174 1419 1174 1419 1183 1419 c 2,62,-1
 1639 1419 l 2,63,64
 1653 1419 1653 1419 1658.5 1405 c 128,-1,65
 1664 1391 1664 1391 1664 1378 c 0,66,67
 1665 1358 1665 1358 1655.5 1345 c 128,-1,68
 1646 1332 1646 1332 1625 1331 c 0,69,70
 1586 1329 1586 1329 1552.5 1322 c 128,-1,71
 1519 1315 1519 1315 1493.5 1302.5 c 128,-1,72
 1468 1290 1468 1290 1452 1272 c 128,-1,73
 1436 1254 1436 1254 1433 1230 c 2,74,-1
 1326 556 l 1,75,76
 1305 406 1305 406 1259.5 296 c 128,-1,77
 1214 186 1214 186 1142 113.5 c 128,-1,78
 1070 41 1070 41 969.5 6 c 128,-1,79
 869 -29 869 -29 737 -29 c 0,80,81
 510 -29 510 -29 387.5 77.5 c 128,-1,82
 265 184 265 184 258 394 c 0,0,1
EndSplineSet
EndChar

StartChar: V
Encoding: 86 86 56
Width: 1366
GlyphClass: 2
Flags: W
LayerCount: 2
Fore
SplineSet
222 1254 m 2,0,1
 216 1287 216 1287 199 1302.5 c 128,-1,2
 182 1318 182 1318 161 1323.5 c 128,-1,3
 140 1329 140 1329 117 1329 c 128,-1,4
 94 1329 94 1329 76 1331 c 0,5,6
 55 1333 55 1333 49 1339 c 128,-1,7
 43 1345 43 1345 47 1368 c 0,8,9
 48 1374 48 1374 52 1382.5 c 128,-1,10
 56 1391 56 1391 62 1399 c 128,-1,11
 68 1407 68 1407 75.5 1413 c 128,-1,12
 83 1419 83 1419 91 1419 c 2,13,-1
 616 1419 l 2,14,15
 624 1419 624 1419 629.5 1413 c 128,-1,16
 635 1407 635 1407 637.5 1399 c 128,-1,17
 640 1391 640 1391 640.5 1382.5 c 128,-1,18
 641 1374 641 1374 640 1368 c 0,19,20
 637 1352 637 1352 628.5 1342.5 c 128,-1,21
 620 1333 620 1333 600 1331 c 0,22,23
 565 1329 565 1329 537 1328.5 c 128,-1,24
 509 1328 509 1328 489 1324.5 c 128,-1,25
 469 1321 469 1321 459.5 1313 c 128,-1,26
 450 1305 450 1305 453 1287 c 2,27,-1
 606 222 l 1,28,-1
 1230 1257 l 2,29,30
 1240 1275 1240 1275 1231.5 1288 c 128,-1,31
 1223 1301 1223 1301 1202 1310 c 128,-1,32
 1181 1319 1181 1319 1151 1324 c 128,-1,33
 1121 1329 1121 1329 1087 1331 c 0,34,35
 1067 1333 1067 1333 1062.5 1342.5 c 128,-1,36
 1058 1352 1058 1352 1061 1368 c 0,37,38
 1062 1374 1062 1374 1066 1382.5 c 128,-1,39
 1070 1391 1070 1391 1075.5 1399 c 128,-1,40
 1081 1407 1081 1407 1088.5 1413 c 128,-1,41
 1096 1419 1096 1419 1105 1419 c 2,42,-1
 1560 1419 l 2,43,44
 1568 1419 1568 1419 1573.5 1413 c 128,-1,45
 1579 1407 1579 1407 1581.5 1399 c 128,-1,46
 1584 1391 1584 1391 1584.5 1382.5 c 128,-1,47
 1585 1374 1585 1374 1584 1368 c 0,48,49
 1580 1345 1580 1345 1571 1339 c 128,-1,50
 1562 1333 1562 1333 1541 1331 c 0,51,52
 1522 1329 1522 1329 1500 1328.5 c 128,-1,53
 1478 1328 1478 1328 1455 1322 c 128,-1,54
 1432 1316 1432 1316 1409 1301 c 128,-1,55
 1386 1286 1386 1286 1365 1254 c 2,56,-1
 559 -18 l 1,57,-1
 446 -18 l 1,58,-1
 222 1254 l 2,0,1
EndSplineSet
EndChar

StartChar: W
Encoding: 87 87 57
Width: 1999
GlyphClass: 2
Flags: W
LayerCount: 2
Fore
SplineSet
317 1254 m 2,0,1
 314 1287 314 1287 299.5 1302.5 c 128,-1,2
 285 1318 285 1318 264.5 1324 c 128,-1,3
 244 1330 244 1330 221.5 1329.5 c 128,-1,4
 199 1329 199 1329 181 1331 c 0,5,6
 160 1333 160 1333 154 1339 c 128,-1,7
 148 1345 148 1345 152 1368 c 0,8,9
 153 1374 153 1374 157 1382.5 c 128,-1,10
 161 1391 161 1391 167 1399 c 128,-1,11
 173 1407 173 1407 180.5 1413 c 128,-1,12
 188 1419 188 1419 196 1419 c 2,13,-1
 711 1419 l 2,14,15
 720 1419 720 1419 725 1413 c 128,-1,16
 730 1407 730 1407 732.5 1399 c 128,-1,17
 735 1391 735 1391 735.5 1382.5 c 128,-1,18
 736 1374 736 1374 735 1368 c 0,19,20
 732 1352 732 1352 723.5 1341.5 c 128,-1,21
 715 1331 715 1331 695 1331 c 0,22,23
 524 1331 524 1331 531 1261 c 1,24,-1
 581 286 l 1,25,-1
 1183 1399 l 1,26,-1
 1291 1399 l 1,27,-1
 1390 281 l 1,28,-1
 1876 1267 l 1,29,30
 1892 1303 1892 1303 1853 1317 c 128,-1,31
 1814 1331 1814 1331 1737 1331 c 0,32,33
 1717 1331 1717 1331 1712.5 1341.5 c 128,-1,34
 1708 1352 1708 1352 1711 1368 c 0,35,36
 1712 1374 1712 1374 1716 1382.5 c 128,-1,37
 1720 1391 1720 1391 1725.5 1399 c 128,-1,38
 1731 1407 1731 1407 1738.5 1413 c 128,-1,39
 1746 1419 1746 1419 1755 1419 c 2,40,-1
 2200 1419 l 2,41,42
 2208 1419 2208 1419 2213.5 1413 c 128,-1,43
 2219 1407 2219 1407 2221.5 1399 c 128,-1,44
 2224 1391 2224 1391 2224.5 1382.5 c 128,-1,45
 2225 1374 2225 1374 2224 1368 c 0,46,47
 2220 1345 2220 1345 2211 1339 c 128,-1,48
 2202 1333 2202 1333 2181 1331 c 0,49,50
 2162 1329 2162 1329 2140 1329.5 c 128,-1,51
 2118 1330 2118 1330 2095.5 1324.5 c 128,-1,52
 2073 1319 2073 1319 2052 1303.5 c 128,-1,53
 2031 1288 2031 1288 2015 1254 c 1,54,-1
 1347 -18 l 1,55,-1
 1224 -18 l 1,56,-1
 1118 1053 l 1,57,-1
 534 -18 l 1,58,-1
 411 -18 l 1,59,-1
 317 1254 l 2,0,1
EndSplineSet
EndChar

StartChar: X
Encoding: 88 88 58
Width: 1454
GlyphClass: 2
Flags: W
LayerCount: 2
Fore
SplineSet
-43 0 m 1,0,1
 -51 0 -51 0 -56.5 6 c 128,-1,2
 -62 12 -62 12 -65 20 c 128,-1,3
 -68 28 -68 28 -68.5 36.5 c 128,-1,4
 -69 45 -69 45 -68 51 c 0,5,6
 -61 73 -61 73 -52.5 79.5 c 128,-1,7
 -44 86 -44 86 -22 88 c 0,8,9
 -3 90 -3 90 25 91.5 c 128,-1,10
 53 93 53 93 84.5 99.5 c 128,-1,11
 116 106 116 106 148 121 c 128,-1,12
 180 136 180 136 207 165 c 2,13,-1
 692 684 l 1,14,-1
 414 1254 l 1,15,16
 403 1284 403 1284 381.5 1299 c 128,-1,17
 360 1314 360 1314 335.5 1320.5 c 128,-1,18
 311 1327 311 1327 286.5 1328 c 128,-1,19
 262 1329 262 1329 244 1331 c 0,20,21
 223 1333 223 1333 217 1339 c 128,-1,22
 211 1345 211 1345 215 1368 c 0,23,24
 217 1374 217 1374 221.5 1382.5 c 128,-1,25
 226 1391 226 1391 232.5 1399 c 128,-1,26
 239 1407 239 1407 246.5 1413 c 128,-1,27
 254 1419 254 1419 262 1419 c 2,28,-1
 794 1419 l 2,29,30
 803 1419 803 1419 808 1413 c 128,-1,31
 813 1407 813 1407 815.5 1399 c 128,-1,32
 818 1391 818 1391 817.5 1382.5 c 128,-1,33
 817 1374 817 1374 815 1368 c 0,34,35
 812 1352 812 1352 803.5 1341.5 c 128,-1,36
 795 1331 795 1331 775 1331 c 0,37,38
 742 1331 742 1331 713.5 1330 c 128,-1,39
 685 1329 685 1329 665.5 1324.5 c 128,-1,40
 646 1320 646 1320 637.5 1311.5 c 128,-1,41
 629 1303 629 1303 635 1287 c 1,42,-1
 847 848 l 1,43,-1
 1212 1257 l 1,44,45
 1227 1272 1227 1272 1225 1285.5 c 128,-1,46
 1223 1299 1223 1299 1207.5 1309 c 128,-1,47
 1192 1319 1192 1319 1165.5 1325 c 128,-1,48
 1139 1331 1139 1331 1105 1331 c 0,49,50
 1085 1331 1085 1331 1080.5 1341.5 c 128,-1,51
 1076 1352 1076 1352 1079 1368 c 0,52,53
 1081 1374 1081 1374 1085.5 1382.5 c 128,-1,54
 1090 1391 1090 1391 1096 1399 c 128,-1,55
 1102 1407 1102 1407 1109.5 1413 c 128,-1,56
 1117 1419 1117 1419 1126 1419 c 2,57,-1
 1591 1419 l 2,58,59
 1599 1419 1599 1419 1604.5 1413 c 128,-1,60
 1610 1407 1610 1407 1612 1399 c 128,-1,61
 1614 1391 1614 1391 1614 1382.5 c 128,-1,62
 1614 1374 1614 1374 1612 1368 c 0,63,64
 1608 1345 1608 1345 1599 1339 c 128,-1,65
 1590 1333 1590 1333 1569 1331 c 0,66,67
 1550 1329 1550 1329 1524.5 1327.5 c 128,-1,68
 1499 1326 1499 1326 1470 1319 c 128,-1,69
 1441 1312 1441 1312 1410.5 1297 c 128,-1,70
 1380 1282 1380 1282 1352 1254 c 2,71,-1
 884 767 l 1,72,-1
 1167 165 l 1,73,74
 1179 135 1179 135 1202.5 120 c 128,-1,75
 1226 105 1226 105 1253 98.5 c 128,-1,76
 1280 92 1280 92 1306 91 c 128,-1,77
 1332 90 1332 90 1350 88 c 0,78,79
 1370 86 1370 86 1376.5 80 c 128,-1,80
 1383 74 1383 74 1376 51 c 0,81,82
 1375 45 1375 45 1371 36.5 c 128,-1,83
 1367 28 1367 28 1361.5 20 c 128,-1,84
 1356 12 1356 12 1348.5 6 c 128,-1,85
 1341 0 1341 0 1333 0 c 2,86,-1
 771 0 l 2,87,88
 762 0 762 0 757 6 c 128,-1,89
 752 12 752 12 749 20 c 128,-1,90
 746 28 746 28 745.5 36.5 c 128,-1,91
 745 45 745 45 746 51 c 0,92,93
 751 67 751 67 760 76.5 c 128,-1,94
 769 86 769 86 789 88 c 0,95,96
 823 90 823 90 853 91 c 128,-1,97
 883 92 883 92 904 96 c 128,-1,98
 925 100 925 100 934.5 108 c 128,-1,99
 944 116 944 116 938 132 c 2,100,-1
 728 606 l 1,101,-1
 351 162 l 2,102,103
 325 131 325 131 344.5 111.5 c 128,-1,104
 364 92 364 92 432 88 c 0,105,106
 451 86 451 86 455.5 76.5 c 128,-1,107
 460 67 460 67 455 51 c 0,108,109
 454 45 454 45 450.5 36.5 c 128,-1,110
 447 28 447 28 441 20 c 128,-1,111
 435 12 435 12 428 6 c 128,-1,112
 421 0 421 0 412 0 c 2,113,-1
 -43 0 l 1,114,-1
 -43 0 l 1,0,1
EndSplineSet
EndChar

StartChar: Y
Encoding: 89 89 59
Width: 1260
GlyphClass: 2
Flags: W
LayerCount: 2
Fore
SplineSet
246 51 m 0,0,1
 250 67 250 67 263.5 76.5 c 128,-1,2
 277 86 277 86 297 88 c 0,3,4
 322 90 322 90 351.5 90 c 128,-1,5
 381 90 381 90 406.5 95 c 128,-1,6
 432 100 432 100 451 112.5 c 128,-1,7
 470 125 470 125 475 152 c 2,8,-1
 536 534 l 1,9,-1
 280 1254 l 2,10,11
 270 1285 270 1285 255 1302 c 128,-1,12
 240 1319 240 1319 222 1327 c 128,-1,13
 204 1335 204 1335 185 1337 c 128,-1,14
 166 1339 166 1339 148 1341 c 0,15,16
 127 1343 127 1343 121 1349 c 128,-1,17
 115 1355 115 1355 120 1378 c 0,18,19
 121 1384 121 1384 124.5 1391 c 128,-1,20
 128 1398 128 1398 133.5 1404 c 128,-1,21
 139 1410 139 1410 146.5 1414.5 c 128,-1,22
 154 1419 154 1419 162 1419 c 2,23,-1
 677 1419 l 2,24,25
 686 1419 686 1419 691.5 1414.5 c 128,-1,26
 697 1410 697 1410 700 1404 c 128,-1,27
 703 1398 703 1398 703.5 1391 c 128,-1,28
 704 1384 704 1384 703 1378 c 0,29,30
 699 1362 699 1362 686.5 1346.5 c 128,-1,31
 674 1331 674 1331 654 1331 c 0,32,33
 622 1331 622 1331 592.5 1330.5 c 128,-1,34
 563 1330 563 1330 541.5 1326 c 128,-1,35
 520 1322 520 1322 508.5 1313 c 128,-1,36
 497 1304 497 1304 502 1287 c 2,37,-1
 706 639 l 1,38,-1
 1167 1258 l 2,39,40
 1179 1274 1179 1274 1181 1287.5 c 128,-1,41
 1183 1301 1183 1301 1171 1311 c 128,-1,42
 1159 1321 1159 1321 1131.5 1326 c 128,-1,43
 1104 1331 1104 1331 1058 1331 c 0,44,45
 1038 1331 1038 1331 1029 1346.5 c 128,-1,46
 1020 1362 1020 1362 1024 1378 c 0,47,48
 1026 1389 1026 1389 1037.5 1404 c 128,-1,49
 1049 1419 1049 1419 1066 1419 c 2,50,-1
 1481 1419 l 2,51,52
 1498 1419 1498 1419 1503.5 1404 c 128,-1,53
 1509 1389 1509 1389 1507 1378 c 0,54,55
 1502 1355 1502 1355 1493 1349 c 128,-1,56
 1484 1343 1484 1343 1463 1341 c 0,57,58
 1444 1339 1444 1339 1424 1337 c 128,-1,59
 1404 1335 1404 1335 1383 1326.5 c 128,-1,60
 1362 1318 1362 1318 1339.5 1301.5 c 128,-1,61
 1317 1285 1317 1285 1293 1254 c 2,62,-1
 749 567 l 1,63,-1
 685 165 l 2,64,65
 679 133 679 133 693 117.5 c 128,-1,66
 707 102 707 102 732 96 c 128,-1,67
 757 90 757 90 786.5 90 c 128,-1,68
 816 90 816 90 841 88 c 0,69,70
 861 86 861 86 872.5 80 c 128,-1,71
 884 74 884 74 879 51 c 0,72,73
 878 45 878 45 874 36.5 c 128,-1,74
 870 28 870 28 864.5 20 c 128,-1,75
 859 12 859 12 851.5 6 c 128,-1,76
 844 0 844 0 836 0 c 2,77,-1
 271 0 l 2,78,79
 262 0 262 0 257 6 c 128,-1,80
 252 12 252 12 249 20 c 128,-1,81
 246 28 246 28 245.5 36.5 c 128,-1,82
 245 45 245 45 246 51 c 0,0,1
EndSplineSet
EndChar

StartChar: Z
Encoding: 90 90 60
Width: 1233
GlyphClass: 2
Flags: W
LayerCount: 2
Fore
SplineSet
2 0 m 1,0,1
 -10 0 -10 0 -14 5 c 128,-1,2
 -18 10 -18 10 -18 24 c 2,3,-1
 -18 40 l 2,4,5
 -18 45 -18 45 -15.5 51 c 128,-1,6
 -13 57 -13 57 -6.5 66 c 128,-1,7
 0 75 0 75 11 89 c 128,-1,8
 22 103 22 103 40 123 c 1,9,-1
 1023 1331 l 1,10,-1
 540 1331 l 2,11,12
 515 1331 515 1331 487 1311.5 c 128,-1,13
 459 1292 459 1292 430.5 1261 c 128,-1,14
 402 1230 402 1230 375 1193 c 128,-1,15
 348 1156 348 1156 326.5 1121.5 c 128,-1,16
 305 1087 305 1087 290.5 1059 c 128,-1,17
 276 1031 276 1031 273 1019 c 0,18,19
 267 999 267 999 256 992.5 c 128,-1,20
 245 986 245 986 229 986 c 0,21,22
 218 986 218 986 205 994.5 c 128,-1,23
 192 1003 192 1003 195 1020 c 1,24,-1
 293 1378 l 1,25,26
 318 1417 318 1417 348 1419 c 1,27,-1
 1270 1419 l 2,28,29
 1282 1419 1282 1419 1293 1414 c 128,-1,30
 1304 1409 1304 1409 1304 1395 c 2,31,-1
 1304 1368 l 1,32,33
 1302 1360 1302 1360 1298 1354 c 128,-1,34
 1294 1348 1294 1348 1289 1340 c 1,35,-1
 260 83 l 1,36,-1
 770 83 l 2,37,38
 802 83 802 83 838 105.5 c 128,-1,39
 874 128 874 128 909 162.5 c 128,-1,40
 944 197 944 197 976 238.5 c 128,-1,41
 1008 280 1008 280 1033 318.5 c 128,-1,42
 1058 357 1058 357 1074.5 387.5 c 128,-1,43
 1091 418 1091 418 1095 430 c 0,44,45
 1101 450 1101 450 1112 456.5 c 128,-1,46
 1123 463 1123 463 1139 463 c 0,47,48
 1145 463 1145 463 1153 461 c 128,-1,49
 1161 459 1161 459 1168 454.5 c 128,-1,50
 1175 450 1175 450 1179.5 444 c 128,-1,51
 1184 438 1184 438 1183 429 c 1,52,-1
 1058 41 l 1,53,54
 1032 1 1032 1 1004 0 c 1,55,-1
 2 0 l 1,56,-1
 2 0 l 1,0,1
EndSplineSet
EndChar

StartChar: bracketleft
Encoding: 91 91 61
Width: 768
GlyphClass: 2
Flags: W
LayerCount: 2
Fore
SplineSet
364 1535 m 1,0,-1
 808 1536 l 1,1,-1
 795 1439 l 1,2,-1
 546 1439 l 1,3,-1
 279 -231 l 1,4,-1
 528 -231 l 1,5,-1
 514 -328 l 1,6,-1
 71 -327 l 1,7,-1
 364 1535 l 1,0,-1
EndSplineSet
EndChar

StartChar: bracketright
Encoding: 93 93 63
Width: 768
GlyphClass: 2
Flags: W
LayerCount: 2
Fore
SplineSet
173 -231 m 1,0,-1
 438 1439 l 1,1,-1
 189 1439 l 1,2,-1
 203 1536 l 1,3,-1
 646 1535 l 1,4,-1
 355 -327 l 1,5,-1
 -89 -328 l 1,6,-1
 -76 -231 l 1,7,-1
 173 -231 l 1,0,-1
EndSplineSet
EndChar

StartChar: asciicircum
Encoding: 94 94 64
Width: 1317
GlyphClass: 2
Flags: W
LayerCount: 2
Fore
SplineSet
743 1428 m 1,0,-1
 862 1428 l 1,1,-1
 1181 300 l 1,2,-1
 1035 300 l 1,3,-1
 780 1270 l 1,4,-1
 264 300 l 1,5,-1
 110 300 l 1,6,-1
 743 1428 l 1,0,-1
EndSplineSet
EndChar

StartChar: underscore
Encoding: 95 95 65
Width: 1317
GlyphClass: 2
Flags: W
LayerCount: 2
Fore
SplineSet
1259 -190 m 1,0,-1
 1244 -296 l 1,1,-1
 -182 -296 l 1,2,-1
 -167 -190 l 1,3,-1
 1259 -190 l 1,0,-1
EndSplineSet
EndChar

StartChar: grave
Encoding: 96 96 66
Width: 1024
GlyphClass: 2
Flags: W
LayerCount: 2
Fore
SplineSet
809 1101 m 1,0,1
 742 1170 742 1170 684.5 1218.5 c 128,-1,2
 627 1267 627 1267 582 1300.5 c 128,-1,3
 537 1334 537 1334 507.5 1354.5 c 128,-1,4
 478 1375 478 1375 468 1386 c 0,5,6
 456 1399 456 1399 448 1416 c 128,-1,7
 440 1433 440 1433 440 1452.5 c 128,-1,8
 440 1472 440 1472 449 1493 c 128,-1,9
 458 1514 458 1514 479 1534 c 0,10,11
 501 1554 501 1554 524 1561 c 128,-1,12
 547 1568 547 1568 568 1566 c 128,-1,13
 589 1564 589 1564 606.5 1554 c 128,-1,14
 624 1544 624 1544 636 1531 c 0,15,16
 646 1520 646 1520 665 1487 c 128,-1,17
 684 1454 684 1454 713 1404.5 c 128,-1,18
 742 1355 742 1355 782 1292.5 c 128,-1,19
 822 1230 822 1230 873 1159 c 1,20,-1
 809 1101 l 1,21,-1
 809 1101 l 1,0,1
EndSplineSet
EndChar

StartChar: a
Encoding: 97 97 67
Width: 1174
GlyphClass: 2
Flags: W
LayerCount: 2
Fore
SplineSet
41 271 m 0,0,1
 44 351 44 351 72.5 437.5 c 128,-1,2
 101 524 101 524 149 606 c 128,-1,3
 197 688 197 688 261.5 761.5 c 128,-1,4
 326 835 326 835 402.5 890.5 c 128,-1,5
 479 946 479 946 563.5 978.5 c 128,-1,6
 648 1011 648 1011 737 1011 c 0,7,8
 799 1011 799 1011 852 996.5 c 128,-1,9
 905 982 905 982 940 947 c 1,10,-1
 1023 994 l 1,11,12
 1040 1001 1040 1001 1048 990 c 128,-1,13
 1056 979 1056 979 1056 966 c 0,14,15
 1056 964 1056 964 1055.5 962 c 128,-1,16
 1055 960 1055 960 1055 958 c 2,17,-1
 896 183 l 2,18,19
 894 170 894 170 893 160 c 128,-1,20
 892 150 892 150 892 141 c 0,21,22
 892 112 892 112 900 100 c 128,-1,23
 908 88 908 88 921 88 c 0,24,25
 928 88 928 88 943 90.5 c 128,-1,26
 958 93 958 93 974.5 97 c 128,-1,27
 991 101 991 101 1007 104.5 c 128,-1,28
 1023 108 1023 108 1033 111 c 0,29,30
 1035 112 1035 112 1040 112 c 0,31,32
 1052 112 1052 112 1059 100 c 128,-1,33
 1066 88 1066 88 1066 74 c 0,34,35
 1066 58 1066 58 1059 52 c 0,36,37
 1053 47 1053 47 1030 34 c 128,-1,38
 1007 21 1007 21 973.5 8 c 128,-1,39
 940 -5 940 -5 900.5 -15 c 128,-1,40
 861 -25 861 -25 823 -25 c 0,41,42
 788 -25 788 -25 764.5 -13.5 c 128,-1,43
 741 -2 741 -2 726 17 c 128,-1,44
 711 36 711 36 704.5 59 c 128,-1,45
 698 82 698 82 698 106 c 0,46,47
 698 135 698 135 705 170.5 c 128,-1,48
 712 206 712 206 720.5 238 c 128,-1,49
 729 270 729 270 736.5 294 c 128,-1,50
 744 318 744 318 745 323 c 1,51,52
 727 295 727 295 702 258.5 c 128,-1,53
 677 222 677 222 645 183 c 128,-1,54
 613 144 613 144 575 106.5 c 128,-1,55
 537 69 537 69 493.5 39 c 128,-1,56
 450 9 450 9 401.5 -9 c 128,-1,57
 353 -27 353 -27 300 -27 c 0,58,59
 226 -27 226 -27 175.5 -4.5 c 128,-1,60
 125 18 125 18 94 57.5 c 128,-1,61
 63 97 63 97 50.5 151.5 c 128,-1,62
 38 206 38 206 41 271 c 0,0,1
352 93 m 0,63,64
 394 93 394 93 437.5 114.5 c 128,-1,65
 481 136 481 136 522.5 170 c 128,-1,66
 564 204 564 204 602 246 c 128,-1,67
 640 288 640 288 671.5 330 c 128,-1,68
 703 372 703 372 726 408.5 c 128,-1,69
 749 445 749 445 762 469 c 1,70,-1
 849 866 l 1,71,72
 843 882 843 882 830.5 895 c 128,-1,73
 818 908 818 908 802 917.5 c 128,-1,74
 786 927 786 927 768.5 932.5 c 128,-1,75
 751 938 751 938 736 938 c 0,76,77
 672 938 672 938 611 907.5 c 128,-1,78
 550 877 550 877 496.5 826.5 c 128,-1,79
 443 776 443 776 398 709 c 128,-1,80
 353 642 353 642 321 569.5 c 128,-1,81
 289 497 289 497 271 423 c 128,-1,82
 253 349 253 349 253 284 c 0,83,84
 253 245 253 245 256 210.5 c 128,-1,85
 259 176 259 176 269.5 150 c 128,-1,86
 280 124 280 124 299.5 108.5 c 128,-1,87
 319 93 319 93 352 93 c 0,63,64
EndSplineSet
Substitution2: "Single Substitution lookup 12 subtable" ordfeminine
Substitution2: "'aalt' Access All Alternates in Latin lookup 0 subtable" ordfeminine
EndChar

StartChar: b
Encoding: 98 98 68
Width: 1135
GlyphClass: 2
Flags: W
LayerCount: 2
Fore
SplineSet
265 1329 m 2,0,1
 272 1375 272 1375 258 1398.5 c 128,-1,2
 244 1422 244 1422 220.5 1432.5 c 128,-1,3
 197 1443 197 1443 170 1446 c 128,-1,4
 143 1449 143 1449 124 1454 c 1,5,6
 114 1459 114 1459 108.5 1467 c 128,-1,7
 103 1475 103 1475 105 1494 c 0,8,9
 107 1506 107 1506 115.5 1521.5 c 128,-1,10
 124 1537 124 1537 136 1538 c 0,11,12
 186 1541 186 1541 234.5 1543 c 128,-1,13
 283 1545 283 1545 325.5 1546 c 128,-1,14
 368 1547 368 1547 402 1547.5 c 128,-1,15
 436 1548 436 1548 457 1548 c 0,16,17
 465 1548 465 1548 475 1540 c 128,-1,18
 485 1532 485 1532 481 1508 c 2,19,-1
 425 1104 l 1,20,-1
 362 825 l 1,21,22
 397 873 397 873 439.5 908.5 c 128,-1,23
 482 944 482 944 528 967 c 128,-1,24
 574 990 574 990 622 1001.5 c 128,-1,25
 670 1013 670 1013 716 1013 c 0,26,27
 818 1013 818 1013 885.5 970.5 c 128,-1,28
 953 928 953 928 990.5 856.5 c 128,-1,29
 1028 785 1028 785 1038.5 690.5 c 128,-1,30
 1049 596 1049 596 1036 492 c 1,31,32
 1022 391 1022 391 979 297 c 128,-1,33
 936 203 936 203 868.5 130 c 128,-1,34
 801 57 801 57 710.5 13.5 c 128,-1,35
 620 -30 620 -30 512 -30 c 0,36,37
 439 -30 439 -30 368.5 -13.5 c 128,-1,38
 298 3 298 3 239 27 c 128,-1,39
 180 51 180 51 138 78 c 128,-1,40
 96 105 96 105 80 126 c 1,41,-1
 265 1329 l 2,0,1
274 183 m 1,42,43
 282 166 282 166 301 145.5 c 128,-1,44
 320 125 320 125 348 107 c 128,-1,45
 376 89 376 89 411.5 77 c 128,-1,46
 447 65 447 65 489 65 c 0,47,48
 566 65 566 65 624 98 c 128,-1,49
 682 131 682 131 723.5 188.5 c 128,-1,50
 765 246 765 246 791 324 c 128,-1,51
 817 402 817 402 830 492 c 1,52,53
 840 582 840 582 839.5 656 c 128,-1,54
 839 730 839 730 819.5 783.5 c 128,-1,55
 800 837 800 837 758 866 c 128,-1,56
 716 895 716 895 643 895 c 0,57,58
 604 895 604 895 562.5 879 c 128,-1,59
 521 863 521 863 482.5 838 c 128,-1,60
 444 813 444 813 410.5 781.5 c 128,-1,61
 377 750 377 750 355 719 c 1,62,-1
 274 183 l 1,42,43
EndSplineSet
EndChar

StartChar: c
Encoding: 99 99 69
Width: 930
GlyphClass: 2
Flags: W
LayerCount: 2
Fore
SplineSet
85 381 m 0,0,1
 85 516 85 516 130.5 631.5 c 128,-1,2
 176 747 176 747 251 832 c 128,-1,3
 326 917 326 917 422.5 965.5 c 128,-1,4
 519 1014 519 1014 621 1014 c 0,5,6
 684 1014 684 1014 738 1000.5 c 128,-1,7
 792 987 792 987 832.5 959.5 c 128,-1,8
 873 932 873 932 896 889 c 128,-1,9
 919 846 919 846 919 787 c 0,10,11
 919 756 919 756 908.5 732.5 c 128,-1,12
 898 709 898 709 882.5 693.5 c 128,-1,13
 867 678 867 678 849 670 c 128,-1,14
 831 662 831 662 815 662 c 0,15,16
 800 662 800 662 789 662.5 c 128,-1,17
 778 663 778 663 770 666.5 c 128,-1,18
 762 670 762 670 755.5 679 c 128,-1,19
 749 688 749 688 745 705 c 2,20,-1
 691 914 l 1,21,22
 681 922 681 922 657.5 927.5 c 128,-1,23
 634 933 634 933 605 933 c 0,24,25
 545 933 545 933 490 894 c 128,-1,26
 435 855 435 855 393 781.5 c 128,-1,27
 351 708 351 708 326.5 601.5 c 128,-1,28
 302 495 302 495 302 360 c 0,29,30
 302 282 302 282 316.5 227.5 c 128,-1,31
 331 173 331 173 356 139.5 c 128,-1,32
 381 106 381 106 414 90.5 c 128,-1,33
 447 75 447 75 484 75 c 0,34,35
 527 75 527 75 564 84 c 128,-1,36
 601 93 601 93 635.5 111 c 128,-1,37
 670 129 670 129 703 155 c 128,-1,38
 736 181 736 181 771 215 c 0,39,40
 776 221 776 221 781 225.5 c 128,-1,41
 786 230 786 230 793 225 c 2,42,-1
 830 192 l 2,43,44
 840 184 840 184 834 177 c 128,-1,45
 828 170 828 170 824 164 c 0,46,47
 791 121 791 121 752 86 c 128,-1,48
 713 51 713 51 667.5 25.5 c 128,-1,49
 622 0 622 0 568.5 -14 c 128,-1,50
 515 -28 515 -28 453 -28 c 0,51,52
 364 -28 364 -28 295 1 c 128,-1,53
 226 30 226 30 179.5 83.5 c 128,-1,54
 133 137 133 137 109 212.5 c 128,-1,55
 85 288 85 288 85 381 c 0,0,1
EndSplineSet
EndChar

StartChar: d
Encoding: 100 100 70
Width: 1178
GlyphClass: 2
Flags: W
LayerCount: 2
Fore
SplineSet
90 380 m 0,0,1
 90 456 90 456 105 533 c 128,-1,2
 120 610 120 610 150 680.5 c 128,-1,3
 180 751 180 751 225 812 c 128,-1,4
 270 873 270 873 330.5 918 c 128,-1,5
 391 963 391 963 466 988.5 c 128,-1,6
 541 1014 541 1014 632 1014 c 0,7,8
 782 1014 782 1014 867 970 c 1,9,-1
 878 1104 l 1,10,-1
 919 1329 l 1,11,12
 923 1360 923 1360 916.5 1380.5 c 128,-1,13
 910 1401 910 1401 895.5 1413.5 c 128,-1,14
 881 1426 881 1426 862 1432.5 c 128,-1,15
 843 1439 843 1439 823 1442.5 c 128,-1,16
 803 1446 803 1446 784.5 1448 c 128,-1,17
 766 1450 766 1450 753 1454 c 1,18,19
 743 1459 743 1459 737.5 1467 c 128,-1,20
 732 1475 732 1475 734 1494 c 0,21,22
 736 1506 736 1506 744.5 1521.5 c 128,-1,23
 753 1537 753 1537 765 1538 c 0,24,25
 815 1541 815 1541 867.5 1543 c 128,-1,26
 920 1545 920 1545 967 1546 c 128,-1,27
 1014 1547 1014 1547 1052 1547.5 c 128,-1,28
 1090 1548 1090 1548 1111 1548 c 0,29,30
 1119 1548 1119 1548 1129 1540 c 128,-1,31
 1139 1532 1139 1532 1135 1508 c 2,32,-1
 918 175 l 2,33,34
 913 139 913 139 925 123.5 c 128,-1,35
 937 108 937 108 957 104 c 128,-1,36
 977 100 977 100 1000.5 104.5 c 128,-1,37
 1024 109 1024 109 1042 112 c 0,38,39
 1059 115 1059 115 1067.5 111 c 128,-1,40
 1076 107 1076 107 1080 85 c 0,41,42
 1082 74 1082 74 1077.5 56.5 c 128,-1,43
 1073 39 1073 39 1056 34 c 1,44,45
 972 -2 972 -2 914 -12 c 128,-1,46
 856 -22 856 -22 817.5 -15.5 c 128,-1,47
 779 -9 779 -9 758 10.5 c 128,-1,48
 737 30 737 30 727.5 53.5 c 128,-1,49
 718 77 718 77 716.5 101 c 128,-1,50
 715 125 715 125 717 141 c 1,51,52
 669 63 669 63 600 17.5 c 128,-1,53
 531 -28 531 -28 444 -28 c 0,54,55
 344 -28 344 -28 276 5 c 128,-1,56
 208 38 208 38 167 94 c 128,-1,57
 126 150 126 150 108 224 c 128,-1,58
 90 298 90 298 90 380 c 0,0,1
295 370 m 0,59,60
 295 300 295 300 304 247 c 128,-1,61
 313 194 313 194 333.5 158.5 c 128,-1,62
 354 123 354 123 388 105 c 128,-1,63
 422 87 422 87 472 87 c 0,64,65
 516 87 516 87 556 105.5 c 128,-1,66
 596 124 596 124 630.5 153 c 128,-1,67
 665 182 665 182 695 217.5 c 128,-1,68
 725 253 725 253 749 286 c 1,69,-1
 841 843 l 1,70,71
 828 859 828 859 811.5 874.5 c 128,-1,72
 795 890 795 890 772 902 c 128,-1,73
 749 914 749 914 718 921.5 c 128,-1,74
 687 929 687 929 646 929 c 0,75,76
 553 929 553 929 487 882 c 128,-1,77
 421 835 421 835 378 757 c 128,-1,78
 335 679 335 679 315 578 c 128,-1,79
 295 477 295 477 295 370 c 0,59,60
EndSplineSet
EndChar

StartChar: e
Encoding: 101 101 71
Width: 967
GlyphClass: 2
Flags: W
LayerCount: 2
Fore
SplineSet
80 381 m 0,0,1
 80 516 80 516 127 631.5 c 128,-1,2
 174 747 174 747 251 832 c 128,-1,3
 328 917 328 917 426 965.5 c 128,-1,4
 524 1014 524 1014 626 1014 c 0,5,6
 710 1014 710 1014 766 994.5 c 128,-1,7
 822 975 822 975 855 944.5 c 128,-1,8
 888 914 888 914 902 876.5 c 128,-1,9
 916 839 916 839 916 804 c 0,10,11
 916 732 916 732 877.5 667 c 128,-1,12
 839 602 839 602 761.5 550 c 128,-1,13
 684 498 684 498 568 461 c 128,-1,14
 452 424 452 424 298 407 c 1,15,16
 297 396 297 396 297 384 c 128,-1,17
 297 372 297 372 297 360 c 0,18,19
 297 282 297 282 312.5 227.5 c 128,-1,20
 328 173 328 173 354 139.5 c 128,-1,21
 380 106 380 106 415 90.5 c 128,-1,22
 450 75 450 75 489 75 c 0,23,24
 535 75 535 75 575 84 c 128,-1,25
 615 93 615 93 651.5 111 c 128,-1,26
 688 129 688 129 723.5 155 c 128,-1,27
 759 181 759 181 796 215 c 1,28,29
 801 221 801 221 806 225.5 c 128,-1,30
 811 230 811 230 818 225 c 2,31,-1
 855 192 l 2,32,33
 860 188 860 188 860 184 c 128,-1,34
 860 180 860 180 858 176.5 c 128,-1,35
 856 173 856 173 853 170 c 128,-1,36
 850 167 850 167 849 164 c 1,37,38
 814 121 814 121 773 85.5 c 128,-1,39
 732 50 732 50 684 24.5 c 128,-1,40
 636 -1 636 -1 579.5 -15 c 128,-1,41
 523 -29 523 -29 458 -29 c 0,42,43
 366 -29 366 -29 295.5 0 c 128,-1,44
 225 29 225 29 177 83 c 128,-1,45
 129 137 129 137 104.5 212.5 c 128,-1,46
 80 288 80 288 80 381 c 0,0,1
303 484 m 1,47,48
 417 503 417 503 498 535.5 c 128,-1,49
 579 568 579 568 630 613 c 128,-1,50
 681 658 681 658 705 714.5 c 128,-1,51
 729 771 729 771 729 838 c 0,52,53
 729 862 729 862 720 879.5 c 128,-1,54
 711 897 711 897 695.5 909 c 128,-1,55
 680 921 680 921 660.5 927 c 128,-1,56
 641 933 641 933 620 933 c 0,57,58
 565 933 565 933 513 903 c 128,-1,59
 461 873 461 873 418.5 815 c 128,-1,60
 376 757 376 757 345.5 673.5 c 128,-1,61
 315 590 315 590 303 484 c 1,47,48
EndSplineSet
EndChar

StartChar: f
Encoding: 102 102 72
Width: 674
GlyphClass: 2
Flags: W
LayerCount: 2
Fore
SplineSet
268 892 m 1,0,-1
 105 892 l 2,1,2
 99 892 99 892 95.5 897.5 c 128,-1,3
 92 903 92 903 90 910.5 c 128,-1,4
 88 918 88 918 87.5 926.5 c 128,-1,5
 87 935 87 935 87 941 c 0,6,7
 90 960 90 960 98 969.5 c 128,-1,8
 106 979 106 979 117 984 c 1,9,-1
 280 994 l 1,10,-1
 281 994 l 1,11,-1
 293 1075 l 1,12,13
 305 1171 305 1171 340.5 1260.5 c 128,-1,14
 376 1350 376 1350 433 1419.5 c 128,-1,15
 490 1489 490 1489 566.5 1531 c 128,-1,16
 643 1573 643 1573 738 1573 c 0,17,18
 786 1573 786 1573 818 1560.5 c 128,-1,19
 850 1548 850 1548 869 1527.5 c 128,-1,20
 888 1507 888 1507 896 1481.5 c 128,-1,21
 904 1456 904 1456 903 1431 c 1,22,23
 903 1401 903 1401 888.5 1378.5 c 128,-1,24
 874 1356 874 1356 854 1340 c 128,-1,25
 834 1324 834 1324 813 1316.5 c 128,-1,26
 792 1309 792 1309 779 1309 c 0,27,28
 772 1309 772 1309 769 1312 c 1,29,-1
 679 1475 l 1,30,31
 655 1475 655 1475 628 1461.5 c 128,-1,32
 601 1448 601 1448 575 1408.5 c 128,-1,33
 549 1369 549 1369 526.5 1297 c 128,-1,34
 504 1225 504 1225 489 1107 c 2,35,-1
 474 994 l 1,36,-1
 689 994 l 1,37,38
 701 993 701 993 706 982.5 c 128,-1,39
 711 972 711 972 708 960 c 1,40,41
 706 941 706 941 696.5 919 c 128,-1,42
 687 897 687 897 676 892 c 1,43,-1
 461 892 l 1,44,-1
 336 56 l 2,45,46
 322 -39 322 -39 288.5 -129 c 128,-1,47
 255 -219 255 -219 202 -288.5 c 128,-1,48
 149 -358 149 -358 77 -400 c 128,-1,49
 5 -442 5 -442 -85 -442 c 0,50,51
 -133 -442 -133 -442 -165 -429.5 c 128,-1,52
 -197 -417 -197 -417 -216 -397.5 c 128,-1,53
 -235 -378 -235 -378 -242.5 -353 c 128,-1,54
 -250 -328 -250 -328 -250 -302 c 0,55,56
 -250 -272 -250 -272 -236.5 -251 c 128,-1,57
 -223 -230 -223 -230 -204.5 -216 c 128,-1,58
 -186 -202 -186 -202 -166.5 -196 c 128,-1,59
 -147 -190 -147 -190 -134 -190 c 0,60,61
 -127 -190 -127 -190 -122 -193 c 1,62,-1
 -46 -344 l 1,63,64
 -18 -343 -18 -343 8 -327 c 128,-1,65
 34 -311 34 -311 57.5 -270.5 c 128,-1,66
 81 -230 81 -230 101.5 -160 c 128,-1,67
 122 -90 122 -90 139 20 c 2,68,-1
 268 892 l 1,0,-1
EndSplineSet
EndChar

StartChar: g
Encoding: 103 103 73
Width: 1174
GlyphClass: 2
Flags: W
LayerCount: 2
Fore
SplineSet
4 -145 m 0,0,1
 10 -100 10 -100 27.5 -68 c 128,-1,2
 45 -36 45 -36 67.5 -13.5 c 128,-1,3
 90 9 90 9 116.5 24 c 128,-1,4
 143 39 143 39 167 50 c 1,5,6
 114 100 114 100 114 182 c 0,7,8
 114 194 114 194 115 206.5 c 128,-1,9
 116 219 116 219 118 233 c 0,10,11
 123 269 123 269 140 301.5 c 128,-1,12
 157 334 157 334 180.5 360.5 c 128,-1,13
 204 387 204 387 230.5 407 c 128,-1,14
 257 427 257 427 281 440 c 1,15,16
 230 481 230 481 201 533.5 c 128,-1,17
 172 586 172 586 172 654 c 0,18,19
 172 730 172 730 203 796 c 128,-1,20
 234 862 234 862 290.5 910.5 c 128,-1,21
 347 959 347 959 426.5 986.5 c 128,-1,22
 506 1014 506 1014 603 1014 c 0,23,24
 690 1014 690 1014 757.5 988.5 c 128,-1,25
 825 963 825 963 871 905 c 1,26,27
 883 922 883 922 903.5 941.5 c 128,-1,28
 924 961 924 961 949.5 977 c 128,-1,29
 975 993 975 993 1003 1003.5 c 128,-1,30
 1031 1014 1031 1014 1058 1014 c 0,31,32
 1090 1014 1090 1014 1115 1001 c 128,-1,33
 1140 988 1140 988 1157 967 c 128,-1,34
 1174 946 1174 946 1183 918.5 c 128,-1,35
 1192 891 1192 891 1192 861 c 0,36,37
 1192 818 1192 818 1176 797 c 128,-1,38
 1160 776 1160 776 1138 771 c 128,-1,39
 1116 766 1116 766 1093.5 775 c 128,-1,40
 1071 784 1071 784 1058 802 c 2,41,-1
 998 887 l 1,42,43
 993 890 993 890 982 888.5 c 128,-1,44
 971 887 971 887 957.5 882 c 128,-1,45
 944 877 944 877 930.5 868.5 c 128,-1,46
 917 860 917 860 908 850 c 1,47,48
 919 827 919 827 923 803.5 c 128,-1,49
 927 780 927 780 927 742 c 0,50,51
 927 665 927 665 896.5 597 c 128,-1,52
 866 529 866 529 811 478.5 c 128,-1,53
 756 428 756 428 678 398.5 c 128,-1,54
 600 369 600 369 506 369 c 0,55,56
 414 369 414 369 346 400 c 1,57,58
 318 380 318 380 294 353 c 128,-1,59
 270 326 270 326 267 300 c 0,60,61
 263 274 263 274 270.5 254 c 128,-1,62
 278 234 278 234 294.5 220.5 c 128,-1,63
 311 207 311 207 335.5 200.5 c 128,-1,64
 360 194 360 194 390 194 c 2,65,-1
 711 194 l 2,66,67
 780 194 780 194 833 184.5 c 128,-1,68
 886 175 886 175 921.5 151 c 128,-1,69
 957 127 957 127 975.5 86.5 c 128,-1,70
 994 46 994 46 994 -15 c 0,71,72
 994 -34 994 -34 992.5 -54.5 c 128,-1,73
 991 -75 991 -75 987 -98 c 0,74,75
 981 -140 981 -140 957.5 -182.5 c 128,-1,76
 934 -225 934 -225 896 -264 c 128,-1,77
 858 -303 858 -303 806.5 -337 c 128,-1,78
 755 -371 755 -371 692.5 -396.5 c 128,-1,79
 630 -422 630 -422 558 -436.5 c 128,-1,80
 486 -451 486 -451 407 -451 c 0,81,82
 310 -451 310 -451 234.5 -430.5 c 128,-1,83
 159 -410 159 -410 107 -374 c 128,-1,84
 55 -338 55 -338 28 -288.5 c 128,-1,85
 1 -239 1 -239 1 -182 c 0,86,87
 1 -165 1 -165 4 -145 c 0,0,1
524 464 m 0,88,89
 583 464 583 464 624 492 c 128,-1,90
 665 520 665 520 691 563 c 128,-1,91
 717 606 717 606 729 658.5 c 128,-1,92
 741 711 741 711 741 761 c 0,93,94
 741 798 741 798 732 828 c 128,-1,95
 723 858 723 858 704 880 c 128,-1,96
 685 902 685 902 655.5 914 c 128,-1,97
 626 926 626 926 584 926 c 0,98,99
 521 926 521 926 477.5 899.5 c 128,-1,100
 434 873 434 873 407 831 c 128,-1,101
 380 789 380 789 368 737.5 c 128,-1,102
 356 686 356 686 356 635 c 0,103,104
 356 598 356 598 365 566.5 c 128,-1,105
 374 535 374 535 394.5 512.5 c 128,-1,106
 415 490 415 490 447 477 c 128,-1,107
 479 464 479 464 524 464 c 0,88,89
192 -106 m 0,108,109
 189 -129 189 -129 189 -148 c 0,110,111
 189 -198 189 -198 207.5 -236.5 c 128,-1,112
 226 -275 226 -275 259 -301 c 128,-1,113
 292 -327 292 -327 338.5 -341 c 128,-1,114
 385 -355 385 -355 441 -355 c 0,115,116
 470 -355 470 -355 510 -351 c 128,-1,117
 550 -347 550 -347 594 -337.5 c 128,-1,118
 638 -328 638 -328 682.5 -312 c 128,-1,119
 727 -296 727 -296 763.5 -272 c 128,-1,120
 800 -248 800 -248 825.5 -215.5 c 128,-1,121
 851 -183 851 -183 858 -139 c 0,122,123
 864 -99 864 -99 851.5 -72.5 c 128,-1,124
 839 -46 839 -46 814 -30 c 128,-1,125
 789 -14 789 -14 753 -7 c 128,-1,126
 717 0 717 0 675 0 c 2,127,-1
 338 0 l 1,128,129
 311 1 311 1 287 5 c 128,-1,130
 263 9 263 9 243 16 c 1,131,132
 237 7 237 7 230 -3 c 128,-1,133
 223 -13 223 -13 216 -26.5 c 128,-1,134
 209 -40 209 -40 202.5 -59 c 128,-1,135
 196 -78 196 -78 192 -106 c 0,108,109
EndSplineSet
EndChar

StartChar: h
Encoding: 104 104 74
Width: 1151
GlyphClass: 2
Flags: W
LayerCount: 2
Fore
SplineSet
301 1329 m 1,0,1
 308 1375 308 1375 296 1398.5 c 128,-1,2
 284 1422 284 1422 263 1432.5 c 128,-1,3
 242 1443 242 1443 217 1446 c 128,-1,4
 192 1449 192 1449 173 1454 c 1,5,6
 163 1459 163 1459 157.5 1467 c 128,-1,7
 152 1475 152 1475 154 1494 c 0,8,9
 156 1506 156 1506 164.5 1521.5 c 128,-1,10
 173 1537 173 1537 185 1538 c 0,11,12
 235 1541 235 1541 282.5 1542.5 c 128,-1,13
 330 1544 330 1544 371.5 1544.5 c 128,-1,14
 413 1545 413 1545 446 1545.5 c 128,-1,15
 479 1546 479 1546 500 1546 c 0,16,17
 508 1546 508 1546 517 1538 c 128,-1,18
 526 1530 526 1530 524 1506 c 1,19,-1
 455 1104 l 1,20,-1
 383 785 l 1,21,22
 393 797 393 797 413.5 818.5 c 128,-1,23
 434 840 434 840 462 865.5 c 128,-1,24
 490 891 490 891 524.5 917.5 c 128,-1,25
 559 944 559 944 597.5 965.5 c 128,-1,26
 636 987 636 987 677 1000.5 c 128,-1,27
 718 1014 718 1014 760 1014 c 0,28,29
 814 1014 814 1014 862.5 1004.5 c 128,-1,30
 911 995 911 995 945.5 968 c 128,-1,31
 980 941 980 941 996 892.5 c 128,-1,32
 1012 844 1012 844 1001 766 c 2,33,-1
 916 175 l 2,34,35
 911 139 911 139 923 123.5 c 128,-1,36
 935 108 935 108 955 104 c 128,-1,37
 975 100 975 100 998.5 104.5 c 128,-1,38
 1022 109 1022 109 1040 112 c 0,39,40
 1057 115 1057 115 1065.5 111 c 128,-1,41
 1074 107 1074 107 1078 85 c 0,42,43
 1080 74 1080 74 1075.5 56.5 c 128,-1,44
 1071 39 1071 39 1054 34 c 1,45,46
 979 6 979 6 924.5 -4.5 c 128,-1,47
 870 -15 870 -15 832.5 -12.5 c 128,-1,48
 795 -10 795 -10 772 2.5 c 128,-1,49
 749 15 749 15 736 32 c 0,50,51
 706 72 706 72 718 142 c 1,52,-1
 811 785 l 2,53,54
 813 798 813 798 811 817 c 128,-1,55
 809 836 809 836 797.5 853.5 c 128,-1,56
 786 871 786 871 761 883.5 c 128,-1,57
 736 896 736 896 692 896 c 0,58,59
 644 896 644 896 599 877.5 c 128,-1,60
 554 859 554 859 515 831.5 c 128,-1,61
 476 804 476 804 443.5 771.5 c 128,-1,62
 411 739 411 739 387 711 c 1,63,-1
 256 0 l 1,64,-1
 69 0 l 1,65,-1
 301 1329 l 1,0,1
EndSplineSet
EndChar

StartChar: k
Encoding: 107 107 77
Width: 1081
GlyphClass: 2
Flags: W
LayerCount: 2
Fore
SplineSet
297 1329 m 1,0,1
 304 1375 304 1375 292.5 1399 c 128,-1,2
 281 1423 281 1423 259.5 1433.5 c 128,-1,3
 238 1444 238 1444 212.5 1447 c 128,-1,4
 187 1450 187 1450 168 1455 c 1,5,6
 159 1460 159 1460 153.5 1468 c 128,-1,7
 148 1476 148 1476 150 1495 c 1,8,9
 153 1507 153 1507 161.5 1522.5 c 128,-1,10
 170 1538 170 1538 182 1539 c 0,11,12
 232 1542 232 1542 279.5 1543 c 128,-1,13
 327 1544 327 1544 368 1545 c 128,-1,14
 409 1546 409 1546 442 1546 c 128,-1,15
 475 1546 475 1546 496 1546 c 0,16,17
 504 1546 504 1546 513 1538 c 128,-1,18
 522 1530 522 1530 520 1506 c 1,19,-1
 389 742 l 1,20,-1
 342 502 l 1,21,-1
 747 838 l 2,22,23
 770 856 770 856 768.5 867.5 c 128,-1,24
 767 879 767 879 752 886 c 128,-1,25
 737 893 737 893 713 896.5 c 128,-1,26
 689 900 689 900 666 903 c 0,27,28
 646 905 646 905 642.5 917.5 c 128,-1,29
 639 930 639 930 641 946 c 0,30,31
 642 952 642 952 645.5 959.5 c 128,-1,32
 649 967 649 967 654 974 c 128,-1,33
 659 981 659 981 666 985.5 c 128,-1,34
 673 990 673 990 682 990 c 2,35,-1
 1075 987 l 2,36,37
 1084 987 1084 987 1089.5 982 c 128,-1,38
 1095 977 1095 977 1098 970 c 128,-1,39
 1101 963 1101 963 1102 955.5 c 128,-1,40
 1103 948 1103 948 1102 942 c 0,41,42
 1100 924 1100 924 1090 911.5 c 128,-1,43
 1080 899 1080 899 1063 899 c 0,44,45
 1039 899 1039 899 1012 891.5 c 128,-1,46
 985 884 985 884 958.5 872 c 128,-1,47
 932 860 932 860 907.5 844.5 c 128,-1,48
 883 829 883 829 863 814 c 2,49,-1
 571 589 l 1,50,51
 603 563 603 563 636.5 514 c 128,-1,52
 670 465 670 465 705 406 c 128,-1,53
 740 347 740 347 775 284.5 c 128,-1,54
 810 222 810 222 845 170 c 0,55,56
 854 158 854 158 864 144.5 c 128,-1,57
 874 131 874 131 885.5 120.5 c 128,-1,58
 897 110 897 110 910 103.5 c 128,-1,59
 923 97 923 97 937 97 c 0,60,61
 954 98 954 98 970.5 101 c 128,-1,62
 987 104 987 104 1001 106 c 0,63,64
 1018 108 1018 108 1026.5 104 c 128,-1,65
 1035 100 1035 100 1038 78 c 0,66,67
 1040 67 1040 67 1035.5 49.5 c 128,-1,68
 1031 32 1031 32 1014 27 c 0,69,70
 941 1 941 1 891 -9 c 128,-1,71
 841 -19 841 -19 803 -17 c 0,72,73
 759 -15 759 -15 732.5 -1 c 128,-1,74
 706 13 706 13 695 33 c 0,75,76
 669 83 669 83 637.5 146 c 128,-1,77
 606 209 606 209 572 272.5 c 128,-1,78
 538 336 538 336 502.5 393.5 c 128,-1,79
 467 451 467 451 434 489 c 1,80,-1
 338 419 l 1,81,-1
 252 0 l 1,82,-1
 65 0 l 1,83,-1
 297 1329 l 1,0,1
EndSplineSet
EndChar

StartChar: l
Encoding: 108 108 78
Width: 584
GlyphClass: 2
Flags: W
LayerCount: 2
Fore
SplineSet
109 102 m 0,0,1
 109 110 109 110 109 117.5 c 128,-1,2
 109 125 109 125 110 130 c 1,3,4
 110 136 110 136 111 142 c 2,5,-1
 312 1354 l 2,6,7
 317 1381 317 1381 306.5 1396.5 c 128,-1,8
 296 1412 296 1412 278 1420.5 c 128,-1,9
 260 1429 260 1429 237.5 1433.5 c 128,-1,10
 215 1438 215 1438 195.5 1443.5 c 128,-1,11
 176 1449 176 1449 162.5 1458 c 128,-1,12
 149 1467 149 1467 149 1485 c 0,13,14
 149 1489 149 1489 151 1498 c 128,-1,15
 153 1507 153 1507 157 1515.5 c 128,-1,16
 161 1524 161 1524 167 1531 c 128,-1,17
 173 1538 173 1538 181 1538 c 0,18,19
 231 1541 231 1541 279.5 1543 c 128,-1,20
 328 1545 328 1545 370.5 1546 c 128,-1,21
 413 1547 413 1547 447 1547.5 c 128,-1,22
 481 1548 481 1548 502 1548 c 0,23,24
 510 1548 510 1548 518.5 1542 c 128,-1,25
 527 1536 527 1536 527 1518 c 0,26,27
 527 1516 527 1516 526.5 1513.5 c 128,-1,28
 526 1511 526 1511 526 1508 c 2,29,-1
 309 175 l 2,30,31
 307 160 307 160 307.5 147 c 128,-1,32
 308 134 308 134 314 124 c 128,-1,33
 320 114 320 114 332.5 108.5 c 128,-1,34
 345 103 345 103 366 103 c 256,35,36
 387 103 387 103 409.5 108 c 128,-1,37
 432 113 432 113 447 113 c 0,38,39
 456 113 456 113 464 105.5 c 128,-1,40
 472 98 472 98 472 76 c 0,41,42
 472 64 472 64 466.5 51.5 c 128,-1,43
 461 39 461 39 447 34 c 0,44,45
 378 9 378 9 323 -2 c 128,-1,46
 268 -13 268 -13 231 -13 c 0,47,48
 187 -13 187 -13 162.5 -1.5 c 128,-1,49
 138 10 138 10 126 27.5 c 128,-1,50
 114 45 114 45 111.5 65 c 128,-1,51
 109 85 109 85 109 102 c 0,0,1
EndSplineSet
EndChar

StartChar: m
Encoding: 109 109 79
Width: 1800
GlyphClass: 2
Flags: W
LayerCount: 2
Fore
SplineSet
243 778 m 2,0,1
 250 824 250 824 237.5 847.5 c 128,-1,2
 225 871 225 871 202.5 881.5 c 128,-1,3
 180 892 180 892 154.5 895 c 128,-1,4
 129 898 129 898 111 903 c 1,5,6
 101 908 101 908 96 916 c 128,-1,7
 91 924 91 924 93 943 c 0,8,9
 95 955 95 955 103 970.5 c 128,-1,10
 111 986 111 986 123 987 c 0,11,12
 172 990 172 990 217.5 992 c 128,-1,13
 263 994 263 994 302 995 c 128,-1,14
 341 996 341 996 372.5 996.5 c 128,-1,15
 404 997 404 997 425 997 c 0,16,17
 433 997 433 997 442.5 989 c 128,-1,18
 452 981 452 981 449 957 c 2,19,-1
 423 785 l 1,20,21
 433 797 433 797 453 818.5 c 128,-1,22
 473 840 473 840 500 865.5 c 128,-1,23
 527 891 527 891 560.5 917.5 c 128,-1,24
 594 944 594 944 632 965.5 c 128,-1,25
 670 987 670 987 711.5 1000.5 c 128,-1,26
 753 1014 753 1014 797 1014 c 0,27,28
 846 1014 846 1014 890 1006.5 c 128,-1,29
 934 999 934 999 968 978 c 128,-1,30
 1002 957 1002 957 1022 920 c 128,-1,31
 1042 883 1042 883 1042 824 c 1,32,33
 1069 851 1069 851 1107 884 c 128,-1,34
 1145 917 1145 917 1191 946 c 128,-1,35
 1237 975 1237 975 1288.5 994.5 c 128,-1,36
 1340 1014 1340 1014 1394 1014 c 256,37,38
 1448 1014 1448 1014 1496.5 1004.5 c 128,-1,39
 1545 995 1545 995 1579.5 968 c 128,-1,40
 1614 941 1614 941 1630 892.5 c 128,-1,41
 1646 844 1646 844 1635 766 c 1,42,-1
 1546 195 l 2,43,44
 1538 142 1538 142 1546 121 c 128,-1,45
 1554 100 1554 100 1571 100 c 0,46,47
 1585 100 1585 100 1610 104 c 128,-1,48
 1635 108 1635 108 1654 113 c 0,49,50
 1666 116 1666 116 1674 109.5 c 128,-1,51
 1682 103 1682 103 1685.5 92.5 c 128,-1,52
 1689 82 1689 82 1687.5 70.5 c 128,-1,53
 1686 59 1686 59 1680 54 c 256,54,55
 1674 49 1674 49 1657 37.5 c 128,-1,56
 1640 26 1640 26 1614.5 15 c 128,-1,57
 1589 4 1589 4 1555.5 -4.5 c 128,-1,58
 1522 -13 1522 -13 1484 -13 c 1,59,60
 1450 -14 1450 -14 1426 -8 c 128,-1,61
 1402 -2 1402 -2 1386 8.5 c 128,-1,62
 1370 19 1370 19 1360.5 33 c 128,-1,63
 1351 47 1351 47 1347 62 c 0,64,65
 1336 96 1336 96 1345 142 c 1,66,-1
 1442 762 l 2,67,68
 1444 775 1444 775 1442 794 c 128,-1,69
 1440 813 1440 813 1428.5 830.5 c 128,-1,70
 1417 848 1417 848 1392 860.5 c 128,-1,71
 1367 873 1367 873 1323 873 c 256,72,73
 1279 873 1279 873 1238 859 c 128,-1,74
 1197 845 1197 845 1160 823.5 c 128,-1,75
 1123 802 1123 802 1090.5 775 c 128,-1,76
 1058 748 1058 748 1032 722 c 1,77,-1
 922 0 l 1,78,-1
 728 0 l 1,79,-1
 846 762 l 2,80,81
 848 775 848 775 846 794 c 128,-1,82
 844 813 844 813 832.5 830.5 c 128,-1,83
 821 848 821 848 796 860.5 c 128,-1,84
 771 873 771 873 727 873 c 0,85,86
 677 873 677 873 632.5 854.5 c 128,-1,87
 588 836 588 836 549 808.5 c 128,-1,88
 510 781 510 781 478 748.5 c 128,-1,89
 446 716 446 716 421 688 c 1,90,-1
 312 0 l 1,91,-1
 120 0 l 1,92,-1
 243 778 l 2,0,1
EndSplineSet
EndChar

StartChar: n
Encoding: 110 110 80
Width: 1208
GlyphClass: 2
Flags: W
LayerCount: 2
Fore
SplineSet
261 778 m 2,0,1
 268 824 268 824 255 847.5 c 128,-1,2
 242 871 242 871 220 881.5 c 128,-1,3
 198 892 198 892 172.5 895 c 128,-1,4
 147 898 147 898 129 903 c 1,5,6
 118 908 118 908 113.5 916 c 128,-1,7
 109 924 109 924 111 943 c 0,8,9
 113 955 113 955 121 970.5 c 128,-1,10
 129 986 129 986 141 987 c 0,11,12
 190 990 190 990 235.5 992 c 128,-1,13
 281 994 281 994 320.5 995 c 128,-1,14
 360 996 360 996 392 996.5 c 128,-1,15
 424 997 424 997 445 997 c 0,16,17
 453 997 453 997 462.5 989 c 128,-1,18
 472 981 472 981 469 957 c 2,19,-1
 443 785 l 1,20,21
 456 799 456 799 478 821.5 c 128,-1,22
 500 844 500 844 528.5 869.5 c 128,-1,23
 557 895 557 895 591.5 921 c 128,-1,24
 626 947 626 947 665.5 967.5 c 128,-1,25
 705 988 705 988 749 1001 c 128,-1,26
 793 1014 793 1014 839 1014 c 0,27,28
 883 1014 883 1014 924 1004.5 c 128,-1,29
 965 995 965 995 994.5 968 c 128,-1,30
 1024 941 1024 941 1038 892.5 c 128,-1,31
 1052 844 1052 844 1043 766 c 1,32,-1
 954 195 l 2,33,34
 946 142 946 142 954 121 c 128,-1,35
 962 100 962 100 979 100 c 0,36,37
 993 100 993 100 1018 104 c 128,-1,38
 1043 108 1043 108 1062 113 c 0,39,40
 1074 116 1074 116 1082 109.5 c 128,-1,41
 1090 103 1090 103 1093 92.5 c 128,-1,42
 1096 82 1096 82 1095 70.5 c 128,-1,43
 1094 59 1094 59 1088 54 c 256,44,45
 1082 49 1082 49 1065 37.5 c 128,-1,46
 1048 26 1048 26 1022.5 15 c 128,-1,47
 997 4 997 4 963.5 -4.5 c 128,-1,48
 930 -13 930 -13 892 -13 c 1,49,50
 858 -14 858 -14 834 -8 c 128,-1,51
 810 -2 810 -2 794 8.5 c 128,-1,52
 778 19 778 19 768.5 33 c 128,-1,53
 759 47 759 47 755 62 c 0,54,55
 744 96 744 96 753 142 c 1,56,-1
 850 784 l 2,57,58
 854 811 854 811 850.5 828.5 c 128,-1,59
 847 846 847 846 836 856 c 128,-1,60
 825 866 825 866 806.5 870 c 128,-1,61
 788 874 788 874 761 874 c 0,62,63
 720 874 720 874 674 857 c 128,-1,64
 628 840 628 840 584.5 813.5 c 128,-1,65
 541 787 541 787 503.5 754 c 128,-1,66
 466 721 466 721 441 689 c 1,67,-1
 332 0 l 1,68,-1
 140 0 l 1,69,-1
 261 778 l 2,0,1
EndSplineSet
EndChar

StartChar: o
Encoding: 111 111 81
Width: 1100
GlyphClass: 2
Flags: W
LayerCount: 2
Fore
SplineSet
93 411 m 0,0,1
 91 484 91 484 106.5 557.5 c 128,-1,2
 122 631 122 631 153 698 c 128,-1,3
 184 765 184 765 229.5 822.5 c 128,-1,4
 275 880 275 880 334 923 c 128,-1,5
 393 966 393 966 465 990 c 128,-1,6
 537 1014 537 1014 620 1014 c 0,7,8
 714 1014 714 1014 785.5 982.5 c 128,-1,9
 857 951 857 951 905.5 894 c 128,-1,10
 954 837 954 837 979 758 c 128,-1,11
 1004 679 1004 679 1006 585 c 0,12,13
 1009 461 1009 461 973 350 c 128,-1,14
 937 239 937 239 869 155 c 128,-1,15
 801 71 801 71 703 21.5 c 128,-1,16
 605 -28 605 -28 482 -28 c 0,17,18
 387 -28 387 -28 315.5 4.5 c 128,-1,19
 244 37 244 37 195 95 c 128,-1,20
 146 153 146 153 120.5 233.5 c 128,-1,21
 95 314 95 314 93 411 c 0,0,1
304 348 m 0,22,23
 305 284 305 284 314 231 c 128,-1,24
 323 178 323 178 344 139.5 c 128,-1,25
 365 101 365 101 399.5 80 c 128,-1,26
 434 59 434 59 486 59 c 0,27,28
 544 59 544 59 589.5 83 c 128,-1,29
 635 107 635 107 669.5 149 c 128,-1,30
 704 191 704 191 728 248 c 128,-1,31
 752 305 752 305 766.5 370 c 128,-1,32
 781 435 781 435 786.5 505.5 c 128,-1,33
 792 576 792 576 791 646 c 0,34,35
 790 709 790 709 781 760.5 c 128,-1,36
 772 812 772 812 752 848.5 c 128,-1,37
 732 885 732 885 698 905.5 c 128,-1,38
 664 926 664 926 612 926 c 0,39,40
 554 926 554 926 508 902 c 128,-1,41
 462 878 462 878 427.5 836.5 c 128,-1,42
 393 795 393 795 368.5 739 c 128,-1,43
 344 683 344 683 329.5 619 c 128,-1,44
 315 555 315 555 308.5 485.5 c 128,-1,45
 302 416 302 416 304 348 c 0,22,23
EndSplineSet
Substitution2: "Single Substitution lookup 12 subtable" ordmasculine
Substitution2: "'aalt' Access All Alternates in Latin lookup 0 subtable" ordmasculine
EndChar

StartChar: p
Encoding: 112 112 82
Width: 1184
GlyphClass: 2
Flags: W
LayerCount: 2
Fore
SplineSet
226 778 m 1,0,1
 232 824 232 824 219 847 c 128,-1,2
 206 870 206 870 184 880.5 c 128,-1,3
 162 891 162 891 137 894 c 128,-1,4
 112 897 112 897 94 903 c 0,5,6
 84 907 84 907 79 915.5 c 128,-1,7
 74 924 74 924 76 943 c 0,8,9
 78 955 78 955 86 970.5 c 128,-1,10
 94 986 94 986 106 987 c 0,11,12
 155 990 155 990 200.5 992 c 128,-1,13
 246 994 246 994 285 995 c 128,-1,14
 324 996 324 996 355.5 996.5 c 128,-1,15
 387 997 387 997 408 997 c 0,16,17
 416 997 416 997 426 989 c 128,-1,18
 436 981 436 981 432 957 c 2,19,-1
 410 815 l 1,20,21
 441 866 441 866 480 903 c 128,-1,22
 519 940 519 940 561.5 964.5 c 128,-1,23
 604 989 604 989 647 1001 c 128,-1,24
 690 1013 690 1013 729 1013 c 0,25,26
 844 1013 844 1013 919.5 969.5 c 128,-1,27
 995 926 995 926 1036 853.5 c 128,-1,28
 1077 781 1077 781 1087.5 687 c 128,-1,29
 1098 593 1098 593 1084 492 c 256,30,31
 1070 391 1070 391 1028.5 297 c 128,-1,32
 987 203 987 203 920 131 c 128,-1,33
 853 59 853 59 762.5 15.5 c 128,-1,34
 672 -28 672 -28 560 -28 c 0,35,36
 478 -28 478 -28 411 -17 c 128,-1,37
 344 -6 344 -6 295 11 c 1,38,-1
 280 -108 l 1,39,-1
 244 -302 l 1,40,41
 242 -319 242 -319 257.5 -330 c 128,-1,42
 273 -341 273 -341 299 -348 c 128,-1,43
 325 -355 325 -355 356.5 -359 c 128,-1,44
 388 -363 388 -363 417 -366 c 0,45,46
 437 -368 437 -368 442 -377.5 c 128,-1,47
 447 -387 447 -387 445 -403 c 0,48,49
 443 -414 443 -414 432.5 -429 c 128,-1,50
 422 -444 422 -444 405 -444 c 2,51,-1
 -85 -444 l 2,52,53
 -101 -444 -101 -444 -107.5 -429 c 128,-1,54
 -114 -414 -114 -414 -112 -403 c 0,55,56
 -109 -380 -109 -380 -100.5 -374 c 128,-1,57
 -92 -368 -92 -368 -72 -366 c 0,58,59
 -53 -364 -53 -364 -31 -361 c 128,-1,60
 -9 -358 -9 -358 10.5 -348 c 128,-1,61
 30 -338 30 -338 44.5 -319.5 c 128,-1,62
 59 -301 59 -301 64 -269 c 2,63,-1
 226 778 l 1,0,1
321 158 m 1,64,65
 329 140 329 140 348.5 123 c 128,-1,66
 368 106 368 106 396.5 93.5 c 128,-1,67
 425 81 425 81 462 73.5 c 128,-1,68
 499 66 499 66 541 66 c 0,69,70
 618 66 618 66 674.5 99 c 128,-1,71
 731 132 731 132 770.5 189 c 128,-1,72
 810 246 810 246 834.5 324 c 128,-1,73
 859 402 859 402 872 492 c 0,74,75
 884 582 884 582 884 658.5 c 128,-1,76
 884 735 884 735 862 791 c 128,-1,77
 840 847 840 847 793.5 878.5 c 128,-1,78
 747 910 747 910 666 910 c 0,79,80
 632 910 632 910 595 893.5 c 128,-1,81
 558 877 558 877 523 850 c 128,-1,82
 488 823 488 823 458 790 c 128,-1,83
 428 757 428 757 408 724 c 1,84,-1
 321 158 l 1,64,65
EndSplineSet
EndChar

StartChar: q
Encoding: 113 113 83
Width: 1137
GlyphClass: 2
Flags: W
LayerCount: 2
Fore
SplineSet
90 380 m 0,0,1
 90 456 90 456 104.5 533 c 128,-1,2
 119 610 119 610 147.5 680.5 c 128,-1,3
 176 751 176 751 220 812 c 128,-1,4
 264 873 264 873 323 918 c 128,-1,5
 382 963 382 963 456.5 988.5 c 128,-1,6
 531 1014 531 1014 622 1014 c 0,7,8
 656 1014 656 1014 694 1011.5 c 128,-1,9
 732 1009 732 1009 770 1001.5 c 128,-1,10
 808 994 808 994 844.5 981 c 128,-1,11
 881 968 881 968 913 946 c 1,12,13
 937 960 937 960 960.5 978.5 c 128,-1,14
 984 997 984 997 994 1008 c 0,15,16
 1005 1021 1005 1021 1017.5 1026 c 128,-1,17
 1030 1031 1030 1031 1040 1028.5 c 128,-1,18
 1050 1026 1050 1026 1055.5 1017.5 c 128,-1,19
 1061 1009 1061 1009 1059 994 c 2,20,-1
 860 -275 l 2,21,22
 856 -305 856 -305 865.5 -322.5 c 128,-1,23
 875 -340 875 -340 891.5 -349 c 128,-1,24
 908 -358 908 -358 929 -361 c 128,-1,25
 950 -364 950 -364 969 -366 c 0,26,27
 990 -368 990 -368 996.5 -374 c 128,-1,28
 1003 -380 1003 -380 1000 -403 c 0,29,30
 998 -414 998 -414 987.5 -429 c 128,-1,31
 977 -444 977 -444 960 -444 c 2,32,-1
 495 -444 l 2,33,34
 478 -444 478 -444 471.5 -429 c 128,-1,35
 465 -414 465 -414 467 -403 c 0,36,37
 469 -387 469 -387 477 -377.5 c 128,-1,38
 485 -368 485 -368 505 -366 c 0,39,40
 533 -363 533 -363 561.5 -359 c 128,-1,41
 590 -355 590 -355 614 -348 c 128,-1,42
 638 -341 638 -341 653.5 -330 c 128,-1,43
 669 -319 669 -319 672 -302 c 2,44,-1
 718 -29 l 1,45,-1
 760 154 l 1,46,47
 735 114 735 114 698.5 80.5 c 128,-1,48
 662 47 662 47 620.5 23 c 128,-1,49
 579 -1 579 -1 535.5 -14.5 c 128,-1,50
 492 -28 492 -28 453 -28 c 0,51,52
 353 -28 353 -28 283.5 5 c 128,-1,53
 214 38 214 38 171 94 c 128,-1,54
 128 150 128 150 109 224 c 128,-1,55
 90 298 90 298 90 380 c 0,0,1
295 370 m 0,56,57
 295 300 295 300 306 247 c 128,-1,58
 317 194 317 194 342.5 158.5 c 128,-1,59
 368 123 368 123 409.5 105 c 128,-1,60
 451 87 451 87 512 87 c 0,61,62
 548 87 548 87 587.5 104.5 c 128,-1,63
 627 122 627 122 662.5 147.5 c 128,-1,64
 698 173 698 173 725 202.5 c 128,-1,65
 752 232 752 232 763 256 c 1,66,-1
 855 842 l 1,67,68
 842 858 842 858 823.5 874 c 128,-1,69
 805 890 805 890 779 902 c 128,-1,70
 753 914 753 914 720 921.5 c 128,-1,71
 687 929 687 929 646 929 c 0,72,73
 553 929 553 929 487 882 c 128,-1,74
 421 835 421 835 378 757 c 128,-1,75
 335 679 335 679 315 578 c 128,-1,76
 295 477 295 477 295 370 c 0,56,57
EndSplineSet
EndChar

StartChar: r
Encoding: 114 114 84
Width: 944
GlyphClass: 2
Flags: W
LayerCount: 2
Fore
SplineSet
267 778 m 2,0,1
 274 824 274 824 261.5 847.5 c 128,-1,2
 249 871 249 871 226.5 881.5 c 128,-1,3
 204 892 204 892 178.5 895 c 128,-1,4
 153 898 153 898 135 903 c 1,5,6
 125 908 125 908 120 916 c 128,-1,7
 115 924 115 924 117 943 c 0,8,9
 119 955 119 955 127 970.5 c 128,-1,10
 135 986 135 986 147 987 c 0,11,12
 196 990 196 990 241.5 992 c 128,-1,13
 287 994 287 994 326 995 c 128,-1,14
 365 996 365 996 396.5 996.5 c 128,-1,15
 428 997 428 997 449 997 c 0,16,17
 457 997 457 997 467 989 c 128,-1,18
 477 981 477 981 473 957 c 1,19,-1
 455 796 l 1,20,21
 472 817 472 817 505 853.5 c 128,-1,22
 538 890 538 890 582 925.5 c 128,-1,23
 626 961 626 961 679.5 987.5 c 128,-1,24
 733 1014 733 1014 790 1014 c 0,25,26
 835 1014 835 1014 865.5 1002 c 128,-1,27
 896 990 896 990 914.5 968.5 c 128,-1,28
 933 947 933 947 940.5 916.5 c 128,-1,29
 948 886 948 886 948 849 c 0,30,31
 948 814 948 814 938 780 c 128,-1,32
 928 746 928 746 909.5 719.5 c 128,-1,33
 891 693 891 693 865 677 c 128,-1,34
 839 661 839 661 808 661 c 0,35,36
 804 661 804 661 798.5 663 c 128,-1,37
 793 665 793 665 787 667 c 128,-1,38
 781 669 781 669 776 671.5 c 128,-1,39
 771 674 771 674 770 675 c 2,40,-1
 717 886 l 1,41,42
 687 886 687 886 649.5 867 c 128,-1,43
 612 848 612 848 574.5 819 c 128,-1,44
 537 790 537 790 502.5 755.5 c 128,-1,45
 468 721 468 721 445 690 c 1,46,-1
 336 0 l 1,47,-1
 144 0 l 1,48,-1
 267 778 l 2,0,1
EndSplineSet
EndChar

StartChar: s
Encoding: 115 115 85
Width: 883
GlyphClass: 2
Flags: W
LayerCount: 2
Fore
SplineSet
31 191 m 0,0,1
 31 212 31 212 39 227.5 c 128,-1,2
 47 243 47 243 60 253.5 c 128,-1,3
 73 264 73 264 89 269.5 c 128,-1,4
 105 275 105 275 122 275 c 0,5,6
 137 275 137 275 151.5 270 c 128,-1,7
 166 265 166 265 174 252 c 1,8,-1
 303 82 l 1,9,10
 313 73 313 73 323.5 68.5 c 128,-1,11
 334 64 334 64 348 62 c 128,-1,12
 362 60 362 60 382 59.5 c 128,-1,13
 402 59 402 59 431 59 c 0,14,15
 456 59 456 59 485 66 c 128,-1,16
 514 73 514 73 537.5 90 c 128,-1,17
 561 107 561 107 576 134.5 c 128,-1,18
 591 162 591 162 589 204 c 0,19,20
 587 240 587 240 568 270.5 c 128,-1,21
 549 301 549 301 519 329.5 c 128,-1,22
 489 358 489 358 450.5 385 c 128,-1,23
 412 412 412 412 372.5 440.5 c 128,-1,24
 333 469 333 469 294.5 499.5 c 128,-1,25
 256 530 256 530 225.5 565.5 c 128,-1,26
 195 601 195 601 175.5 643 c 128,-1,27
 156 685 156 685 154 735 c 0,28,29
 151 788 151 788 167.5 829.5 c 128,-1,30
 184 871 184 871 212 902 c 128,-1,31
 240 933 240 933 277 954 c 128,-1,32
 314 975 314 975 353 988 c 128,-1,33
 392 1001 392 1001 430 1007 c 128,-1,34
 468 1013 468 1013 499 1013 c 0,35,36
 579 1013 579 1013 637.5 1000 c 128,-1,37
 696 987 696 987 734.5 964 c 128,-1,38
 773 941 773 941 793 909.5 c 128,-1,39
 813 878 813 878 815 842 c 0,40,41
 816 819 816 819 808.5 800.5 c 128,-1,42
 801 782 801 782 788 769.5 c 128,-1,43
 775 757 775 757 759.5 750 c 128,-1,44
 744 743 744 743 730 743 c 0,45,46
 709 743 709 743 699.5 751 c 128,-1,47
 690 759 690 759 680 771 c 2,48,-1
 566 914 l 1,49,50
 560 918 560 918 542 927.5 c 128,-1,51
 524 937 524 937 493 937 c 0,52,53
 461 937 461 937 429.5 932 c 128,-1,54
 398 927 398 927 372.5 912.5 c 128,-1,55
 347 898 347 898 331.5 873.5 c 128,-1,56
 316 849 316 849 318 811 c 0,57,58
 320 767 320 767 354.5 727.5 c 128,-1,59
 389 688 389 688 439 649 c 128,-1,60
 489 610 489 610 547.5 569.5 c 128,-1,61
 606 529 606 529 655.5 484 c 128,-1,62
 705 439 705 439 738 386.5 c 128,-1,63
 771 334 771 334 771 271 c 0,64,65
 771 204 771 204 737 149 c 128,-1,66
 703 94 703 94 649 54.5 c 128,-1,67
 595 15 595 15 528.5 -6.5 c 128,-1,68
 462 -28 462 -28 396 -28 c 0,69,70
 313 -28 313 -28 245.5 -13.5 c 128,-1,71
 178 1 178 1 130.5 28.5 c 128,-1,72
 83 56 83 56 57 97 c 128,-1,73
 31 138 31 138 31 191 c 0,0,1
EndSplineSet
EndChar

StartChar: t
Encoding: 116 116 86
Width: 711
GlyphClass: 2
Flags: W
LayerCount: 2
Fore
SplineSet
245 892 m 1,0,-1
 120 892 l 2,1,2
 114 892 114 892 110.5 897.5 c 128,-1,3
 107 903 107 903 105 910.5 c 128,-1,4
 103 918 103 918 102.5 926.5 c 128,-1,5
 102 935 102 935 103 941 c 0,6,7
 105 960 105 960 113.5 969.5 c 128,-1,8
 122 979 122 979 133 984 c 1,9,10
 183 988 183 988 221.5 1003 c 128,-1,11
 260 1018 260 1018 292 1050.5 c 128,-1,12
 324 1083 324 1083 352.5 1135.5 c 128,-1,13
 381 1188 381 1188 412 1268 c 0,14,15
 416 1278 416 1278 423 1283 c 128,-1,16
 430 1288 430 1288 439 1289.5 c 128,-1,17
 448 1291 448 1291 457.5 1291 c 128,-1,18
 467 1291 467 1291 476 1291 c 0,19,20
 489 1291 489 1291 489.5 1282 c 128,-1,21
 490 1273 490 1273 489 1267 c 2,22,-1
 450 994 l 1,23,-1
 711 994 l 1,24,25
 723 993 723 993 727.5 982.5 c 128,-1,26
 732 972 732 972 730 960 c 0,27,28
 728 941 728 941 718 919 c 128,-1,29
 708 897 708 897 697 892 c 1,30,-1
 436 892 l 1,31,-1
 349 280 l 2,32,33
 340 216 340 216 344 178.5 c 128,-1,34
 348 141 348 141 360 121.5 c 128,-1,35
 372 102 372 102 389.5 96.5 c 128,-1,36
 407 91 407 91 426 91 c 0,37,38
 486 91 486 91 537.5 110.5 c 128,-1,39
 589 130 589 130 620 149 c 1,40,-1
 645 91 l 1,41,42
 619 66 619 66 583 44.5 c 128,-1,43
 547 23 547 23 506.5 7 c 128,-1,44
 466 -9 466 -9 424.5 -18.5 c 128,-1,45
 383 -28 383 -28 347 -28 c 0,46,47
 296 -28 296 -28 254.5 -17.5 c 128,-1,48
 213 -7 213 -7 186 21 c 128,-1,49
 159 49 159 49 148.5 98 c 128,-1,50
 138 147 138 147 148 223 c 1,51,-1
 245 892 l 1,0,-1
EndSplineSet
EndChar

StartChar: u
Encoding: 117 117 87
Width: 1178
GlyphClass: 2
Flags: W
LayerCount: 2
Fore
SplineSet
251 822 m 2,0,1
 254 844 254 844 250.5 858 c 128,-1,2
 247 872 247 872 238.5 880 c 128,-1,3
 230 888 230 888 218 891 c 128,-1,4
 206 894 206 894 193 894 c 0,5,6
 176 894 176 894 158.5 890.5 c 128,-1,7
 141 887 141 887 127 885 c 0,8,9
 110 882 110 882 98.5 886 c 128,-1,10
 87 890 87 890 83 912 c 0,11,12
 81 923 81 923 88 937.5 c 128,-1,13
 95 952 95 952 112 957 c 1,14,15
 179 982 179 982 229 994.5 c 128,-1,16
 279 1007 279 1007 316 1007 c 0,17,18
 348 1007 348 1007 370.5 1000.5 c 128,-1,19
 393 994 393 994 408.5 983 c 128,-1,20
 424 972 424 972 432.5 958.5 c 128,-1,21
 441 945 441 945 446 930 c 0,22,23
 457 896 457 896 448 852 c 1,24,-1
 360 243 l 2,25,26
 356 215 356 215 356.5 188 c 128,-1,27
 357 161 357 161 368.5 140 c 128,-1,28
 380 119 380 119 405 106 c 128,-1,29
 430 93 430 93 474 93 c 0,30,31
 517 93 517 93 555 104 c 128,-1,32
 593 115 593 115 625.5 132.5 c 128,-1,33
 658 150 658 150 685.5 170.5 c 128,-1,34
 713 191 713 191 735 210 c 1,35,-1
 840 993 l 1,36,-1
 1005 994 l 2,37,38
 1026 994 1026 994 1032.5 984 c 128,-1,39
 1039 974 1039 974 1037 958 c 2,40,-1
 925 183 l 2,41,42
 917 130 917 130 925 109 c 128,-1,43
 933 88 933 88 950 88 c 0,44,45
 964 88 964 88 983 92 c 128,-1,46
 1002 96 1002 96 1022 101 c 0,47,48
 1034 104 1034 104 1042 97.5 c 128,-1,49
 1050 91 1050 91 1053 80.5 c 128,-1,50
 1056 70 1056 70 1055 58.5 c 128,-1,51
 1054 47 1054 47 1048 42 c 256,52,53
 1042 37 1042 37 1025 25.5 c 128,-1,54
 1008 14 1008 14 982.5 3 c 128,-1,55
 957 -8 957 -8 923.5 -16.5 c 128,-1,56
 890 -25 890 -25 852 -25 c 0,57,58
 813 -25 813 -25 788 -10 c 128,-1,59
 763 5 763 5 749.5 27.5 c 128,-1,60
 736 50 736 50 732.5 77.5 c 128,-1,61
 729 105 729 105 732 131 c 1,62,63
 716 107 716 107 683.5 79 c 128,-1,64
 651 51 651 51 609 27 c 128,-1,65
 567 3 567 3 519 -12.5 c 128,-1,66
 471 -28 471 -28 424 -28 c 0,67,68
 370 -28 370 -28 318 -17.5 c 128,-1,69
 266 -7 266 -7 228.5 24 c 128,-1,70
 191 55 191 55 173 112 c 128,-1,71
 155 169 155 169 168 262 c 2,72,-1
 251 822 l 2,0,1
EndSplineSet
EndChar

StartChar: v
Encoding: 118 118 88
Width: 1102
GlyphClass: 2
Flags: W
LayerCount: 2
Fore
SplineSet
390 12 m 0,0,1
 391 20 391 20 392 32 c 0,2,3
 393 43 393 43 393 58 c 128,-1,4
 393 73 393 73 391 96 c 0,5,6
 383 195 383 195 364.5 302 c 128,-1,7
 346 409 346 409 320.5 509 c 128,-1,8
 295 609 295 609 264.5 695 c 128,-1,9
 234 781 234 781 201 840 c 0,10,11
 187 864 187 864 170 866 c 128,-1,12
 153 868 153 868 136 858.5 c 128,-1,13
 119 849 119 849 103.5 832.5 c 128,-1,14
 88 816 88 816 77 801 c 256,15,16
 66 786 66 786 56 781.5 c 128,-1,17
 46 777 46 777 30 792 c 0,18,19
 22 800 22 800 19.5 817.5 c 128,-1,20
 17 835 17 835 25 851 c 0,21,22
 49 898 49 898 76.5 929.5 c 128,-1,23
 104 961 104 961 134.5 980 c 128,-1,24
 165 999 165 999 198 1007 c 128,-1,25
 231 1015 231 1015 266 1015 c 0,26,27
 291 1015 291 1015 311.5 1010.5 c 128,-1,28
 332 1006 332 1006 350 994 c 128,-1,29
 368 982 368 982 384 960.5 c 128,-1,30
 400 939 400 939 417 905 c 1,31,32
 442 850 442 850 465.5 778.5 c 128,-1,33
 489 707 489 707 507 619 c 128,-1,34
 525 531 525 531 536.5 425.5 c 128,-1,35
 548 320 548 320 550 197 c 0,36,37
 550 188 550 188 545 173 c 128,-1,38
 540 158 540 158 533 141.5 c 128,-1,39
 526 125 526 125 520 109.5 c 128,-1,40
 514 94 514 94 511 85 c 1,41,42
 574 155 574 155 637.5 241.5 c 128,-1,43
 701 328 701 328 751 418 c 128,-1,44
 801 508 801 508 832.5 594.5 c 128,-1,45
 864 681 864 681 864 750 c 0,46,47
 864 775 864 775 860 797 c 128,-1,48
 856 819 856 819 850.5 838 c 128,-1,49
 845 857 845 857 841 873.5 c 128,-1,50
 837 890 837 890 837 906 c 0,51,52
 837 962 837 962 863 988 c 128,-1,53
 889 1014 889 1014 930 1014 c 0,54,55
 962 1014 962 1014 987 1001 c 128,-1,56
 1012 988 1012 988 1028.5 966.5 c 128,-1,57
 1045 945 1045 945 1053.5 918 c 128,-1,58
 1062 891 1062 891 1062 863 c 0,59,60
 1062 803 1062 803 1026 707.5 c 128,-1,61
 990 612 990 612 921.5 494 c 128,-1,62
 853 376 853 376 753 243 c 128,-1,63
 653 110 653 110 525 -24 c 0,64,65
 521 -28 521 -28 504.5 -29 c 128,-1,66
 488 -30 488 -30 445 -30 c 0,67,68
 422 -30 422 -30 410 -24.5 c 128,-1,69
 398 -19 398 -19 393.5 -11.5 c 128,-1,70
 389 -4 389 -4 389 2.5 c 128,-1,71
 389 9 389 9 390 12 c 0,0,1
EndSplineSet
EndChar

StartChar: w
Encoding: 119 119 89
Width: 1683
GlyphClass: 2
Flags: W
LayerCount: 2
Fore
SplineSet
390 12 m 0,0,1
 391 20 391 20 392 32 c 0,2,3
 393 43 393 43 393 58 c 128,-1,4
 393 73 393 73 391 96 c 0,5,6
 383 195 383 195 364.5 302 c 128,-1,7
 346 409 346 409 320.5 509 c 128,-1,8
 295 609 295 609 264.5 695 c 128,-1,9
 234 781 234 781 201 840 c 0,10,11
 187 864 187 864 170 866 c 128,-1,12
 153 868 153 868 136 858.5 c 128,-1,13
 119 849 119 849 103.5 832.5 c 128,-1,14
 88 816 88 816 77 801 c 256,15,16
 66 786 66 786 56 781.5 c 128,-1,17
 46 777 46 777 30 792 c 0,18,19
 22 800 22 800 19.5 817.5 c 128,-1,20
 17 835 17 835 25 851 c 0,21,22
 49 898 49 898 76.5 929.5 c 128,-1,23
 104 961 104 961 134.5 980 c 128,-1,24
 165 999 165 999 198 1007 c 128,-1,25
 231 1015 231 1015 266 1015 c 0,26,27
 291 1015 291 1015 311.5 1010.5 c 128,-1,28
 332 1006 332 1006 350 994 c 128,-1,29
 368 982 368 982 384 960.5 c 128,-1,30
 400 939 400 939 417 905 c 1,31,32
 442 850 442 850 465.5 778.5 c 128,-1,33
 489 707 489 707 507 619 c 128,-1,34
 525 531 525 531 536.5 425.5 c 128,-1,35
 548 320 548 320 550 197 c 0,36,37
 550 188 550 188 545 173 c 128,-1,38
 540 158 540 158 533 141.5 c 128,-1,39
 526 125 526 125 520 109.5 c 128,-1,40
 514 94 514 94 511 85 c 1,41,42
 567 143 567 143 623 213.5 c 128,-1,43
 679 284 679 284 727.5 358.5 c 128,-1,44
 776 433 776 433 813.5 508 c 128,-1,45
 851 583 851 583 869 650 c 1,46,47
 855 707 855 707 838.5 755 c 128,-1,48
 822 803 822 803 803 840 c 1,49,50
 789 864 789 864 772 869 c 128,-1,51
 755 874 755 874 737.5 868 c 128,-1,52
 720 862 720 862 704 848.5 c 128,-1,53
 688 835 688 835 677 820 c 256,54,55
 666 805 666 805 656.5 800.5 c 128,-1,56
 647 796 647 796 630 811 c 0,57,58
 626 815 626 815 623 822 c 128,-1,59
 620 829 620 829 618.5 837.5 c 128,-1,60
 617 846 617 846 618.5 854.5 c 128,-1,61
 620 863 620 863 625 870 c 0,62,63
 673 939 673 939 725 977 c 128,-1,64
 777 1015 777 1015 848 1015 c 0,65,66
 873 1015 873 1015 893.5 1010.5 c 128,-1,67
 914 1006 914 1006 932 994 c 128,-1,68
 950 982 950 982 966 960.5 c 128,-1,69
 982 939 982 939 999 905 c 1,70,71
 1020 850 1020 850 1040 778.5 c 128,-1,72
 1060 707 1060 707 1075.5 619 c 128,-1,73
 1091 531 1091 531 1100.5 425.5 c 128,-1,74
 1110 320 1110 320 1112 197 c 0,75,76
 1112 188 1112 188 1107 173 c 128,-1,77
 1102 158 1102 158 1095 141.5 c 128,-1,78
 1088 125 1088 125 1082 109.5 c 128,-1,79
 1076 94 1076 94 1073 85 c 1,80,81
 1136 155 1136 155 1199.5 241.5 c 128,-1,82
 1263 328 1263 328 1313 418 c 128,-1,83
 1363 508 1363 508 1394.5 594.5 c 128,-1,84
 1426 681 1426 681 1426 750 c 0,85,86
 1426 775 1426 775 1422 797 c 128,-1,87
 1418 819 1418 819 1412.5 838 c 128,-1,88
 1407 857 1407 857 1403 873.5 c 128,-1,89
 1399 890 1399 890 1399 906 c 0,90,91
 1399 962 1399 962 1425 988 c 128,-1,92
 1451 1014 1451 1014 1492 1014 c 0,93,94
 1524 1014 1524 1014 1549 1001 c 128,-1,95
 1574 988 1574 988 1590.5 966.5 c 128,-1,96
 1607 945 1607 945 1615.5 918 c 128,-1,97
 1624 891 1624 891 1624 863 c 0,98,99
 1624 803 1624 803 1589.5 707.5 c 128,-1,100
 1555 612 1555 612 1488.5 494 c 128,-1,101
 1422 376 1422 376 1323.5 243 c 128,-1,102
 1225 110 1225 110 1097 -24 c 0,103,104
 1091 -30 1091 -30 1007 -30 c 0,105,106
 984 -30 984 -30 972 -24.5 c 128,-1,107
 960 -19 960 -19 955.5 -11.5 c 128,-1,108
 951 -4 951 -4 951 2.5 c 128,-1,109
 951 9 951 9 952 12 c 0,110,111
 953 20 953 20 954 32 c 0,112,113
 955 43 955 43 955 58 c 128,-1,114
 955 73 955 73 953 96 c 0,115,116
 947 178 947 178 937 265 c 128,-1,117
 927 352 927 352 913 437 c 1,118,119
 842 328 842 328 747.5 211 c 128,-1,120
 653 94 653 94 535 -24 c 0,121,122
 529 -30 529 -30 445 -30 c 0,123,124
 422 -30 422 -30 410 -24.5 c 128,-1,125
 398 -19 398 -19 393.5 -11.5 c 128,-1,126
 389 -4 389 -4 389 2.5 c 128,-1,127
 389 9 389 9 390 12 c 0,0,1
EndSplineSet
EndChar

StartChar: x
Encoding: 120 120 90
Width: 1026
GlyphClass: 2
Flags: W
LayerCount: 2
Fore
SplineSet
-17 140 m 0,0,1
 -17 183 -17 183 -1 204 c 128,-1,2
 15 225 15 225 37 230 c 128,-1,3
 59 235 59 235 81.5 226 c 128,-1,4
 104 217 104 217 117 199 c 2,5,-1
 168 127 l 1,6,-1
 437 492 l 1,7,-1
 295 829 l 2,8,9
 289 843 289 843 276.5 849 c 128,-1,10
 264 855 264 855 248 852 c 128,-1,11
 232 849 232 849 214.5 837.5 c 128,-1,12
 197 826 197 826 181 805 c 0,13,14
 171 792 171 792 164.5 782.5 c 128,-1,15
 158 773 158 773 149 760 c 0,16,17
 139 745 139 745 129.5 740.5 c 128,-1,18
 120 736 120 736 103 751 c 0,19,20
 94 759 94 759 89.5 776.5 c 128,-1,21
 85 794 85 794 93 810 c 0,22,23
 136 904 136 904 202.5 954 c 128,-1,24
 269 1004 269 1004 346 1004 c 0,25,26
 399 1004 399 1004 433 971.5 c 128,-1,27
 467 939 467 939 489 864 c 1,28,-1
 577 603 l 1,29,-1
 762 906 l 1,30,31
 780 939 780 939 810 966.5 c 128,-1,32
 840 994 840 994 882 994 c 0,33,34
 914 994 914 994 944.5 979 c 128,-1,35
 975 964 975 964 998.5 940 c 128,-1,36
 1022 916 1022 916 1036 886.5 c 128,-1,37
 1050 857 1050 857 1050 827 c 0,38,39
 1050 784 1050 784 1034 763 c 128,-1,40
 1018 742 1018 742 996 737 c 128,-1,41
 974 732 974 732 951.5 741 c 128,-1,42
 929 750 929 750 916 768 c 2,43,-1
 865 840 l 1,44,-1
 611 518 l 1,45,-1
 770 147 l 2,46,47
 777 133 777 133 790.5 127.5 c 128,-1,48
 804 122 804 122 820.5 125 c 128,-1,49
 837 128 837 128 854 139.5 c 128,-1,50
 871 151 871 151 884 171 c 0,51,52
 894 185 894 185 901.5 194 c 128,-1,53
 909 203 909 203 918 216 c 1,54,55
 926 231 926 231 936.5 235.5 c 128,-1,56
 947 240 947 240 964 225 c 0,57,58
 972 217 972 217 976.5 199.5 c 128,-1,59
 981 182 981 182 974 166 c 0,60,61
 930 72 930 72 863.5 22 c 128,-1,62
 797 -28 797 -28 720 -28 c 0,63,64
 667 -28 667 -28 634.5 5.5 c 128,-1,65
 602 39 602 39 577 112 c 1,66,-1
 464 405 l 1,67,-1
 271 61 l 2,68,69
 252 28 252 28 222.5 0.5 c 128,-1,70
 193 -27 193 -27 151 -27 c 0,71,72
 119 -27 119 -27 88.5 -12 c 128,-1,73
 58 3 58 3 34.5 27 c 128,-1,74
 11 51 11 51 -3 80.5 c 128,-1,75
 -17 110 -17 110 -17 140 c 0,0,1
EndSplineSet
EndChar

StartChar: y
Encoding: 121 121 91
Width: 1147
GlyphClass: 2
Flags: W
LayerCount: 2
Fore
SplineSet
98 -178 m 0,0,1
 139 -178 139 -178 149 -202 c 1,2,-1
 201 -347 l 1,3,4
 217 -341 217 -341 238.5 -321.5 c 128,-1,5
 260 -302 260 -302 285 -274 c 128,-1,6
 310 -246 310 -246 335.5 -213 c 128,-1,7
 361 -180 361 -180 384.5 -147 c 128,-1,8
 408 -114 408 -114 427.5 -83 c 128,-1,9
 447 -52 447 -52 459 -28 c 1,10,11
 444 -25 444 -25 436.5 -19.5 c 128,-1,12
 429 -14 429 -14 425.5 -7.5 c 128,-1,13
 422 -1 422 -1 422 4.5 c 128,-1,14
 422 10 422 10 422 12 c 0,15,16
 423 20 423 20 424 32 c 0,17,18
 425 43 425 43 424.5 58 c 128,-1,19
 424 73 424 73 423 96 c 0,20,21
 419 169 419 169 407.5 246.5 c 128,-1,22
 396 324 396 324 380 399 c 128,-1,23
 364 474 364 474 344.5 544 c 128,-1,24
 325 614 325 614 305 672 c 128,-1,25
 285 730 285 730 266.5 773.5 c 128,-1,26
 248 817 248 817 233 840 c 1,27,28
 221 865 221 865 203.5 866.5 c 128,-1,29
 186 868 186 868 168.5 857.5 c 128,-1,30
 151 847 151 847 135 830 c 128,-1,31
 119 813 119 813 110 801 c 0,32,33
 99 786 99 786 89.5 781.5 c 128,-1,34
 80 777 80 777 63 792 c 0,35,36
 55 800 55 800 52.5 817 c 128,-1,37
 50 834 50 834 58 851 c 0,38,39
 82 898 82 898 110 929.5 c 128,-1,40
 138 961 138 961 168.5 980 c 128,-1,41
 199 999 199 999 232 1007 c 128,-1,42
 265 1015 265 1015 299 1015 c 0,43,44
 323 1015 323 1015 344 1010.5 c 128,-1,45
 365 1006 365 1006 383.5 993.5 c 128,-1,46
 402 981 402 981 418.5 959.5 c 128,-1,47
 435 938 435 938 450 905 c 1,48,49
 472 861 472 861 491 804.5 c 128,-1,50
 510 748 510 748 526 685 c 128,-1,51
 542 622 542 622 554.5 555.5 c 128,-1,52
 567 489 567 489 574.5 425 c 128,-1,53
 582 361 582 361 584.5 302.5 c 128,-1,54
 587 244 587 244 583 197 c 0,55,56
 582 188 582 188 581.5 171.5 c 128,-1,57
 581 155 581 155 579.5 136.5 c 128,-1,58
 578 118 578 118 576.5 101 c 128,-1,59
 575 84 575 84 572 75 c 1,60,61
 601 121 601 121 634 176.5 c 128,-1,62
 667 232 667 232 698.5 291.5 c 128,-1,63
 730 351 730 351 758.5 413 c 128,-1,64
 787 475 787 475 808.5 534.5 c 128,-1,65
 830 594 830 594 843 649 c 128,-1,66
 856 704 856 704 856 750 c 0,67,68
 856 774 856 774 852 795.5 c 128,-1,69
 848 817 848 817 843 836.5 c 128,-1,70
 838 856 838 856 834 872.5 c 128,-1,71
 830 889 830 889 830 904 c 0,72,73
 830 934 830 934 838.5 955 c 128,-1,74
 847 976 847 976 860 989 c 128,-1,75
 873 1002 873 1002 889.5 1008 c 128,-1,76
 906 1014 906 1014 923 1014 c 0,77,78
 956 1014 956 1014 981 1001 c 128,-1,79
 1006 988 1006 988 1022 966.5 c 128,-1,80
 1038 945 1038 945 1046 918 c 128,-1,81
 1054 891 1054 891 1054 863 c 0,82,83
 1054 786 1054 786 1018.5 683.5 c 128,-1,84
 983 581 983 581 919.5 461.5 c 128,-1,85
 856 342 856 342 767 209 c 128,-1,86
 678 76 678 76 572 -63 c 0,87,88
 560 -79 560 -79 535.5 -114 c 128,-1,89
 511 -149 511 -149 478.5 -192 c 128,-1,90
 446 -235 446 -235 406.5 -280.5 c 128,-1,91
 367 -326 367 -326 325 -363.5 c 128,-1,92
 283 -401 283 -401 240.5 -425 c 128,-1,93
 198 -449 198 -449 158 -449 c 0,94,95
 110 -449 110 -449 76 -433 c 128,-1,96
 42 -417 42 -417 21 -393 c 128,-1,97
 0 -369 0 -369 -8.5 -340 c 128,-1,98
 -17 -311 -17 -311 -14 -285 c 0,99,100
 -11 -262 -11 -262 2 -242.5 c 128,-1,101
 15 -223 15 -223 32 -208.5 c 128,-1,102
 49 -194 49 -194 67 -186 c 128,-1,103
 85 -178 85 -178 98 -178 c 0,0,1
EndSplineSet
EndChar

StartChar: z
Encoding: 122 122 92
Width: 909
GlyphClass: 2
Flags: W
LayerCount: 2
Fore
SplineSet
37 34 m 0,0,1
 38 45 38 45 41.5 52 c 128,-1,2
 45 59 45 59 51.5 68 c 128,-1,3
 58 77 58 77 68 89.5 c 128,-1,4
 78 102 78 102 93 123 c 2,5,-1
 646 911 l 1,6,-1
 366 911 l 2,7,8
 344 911 344 911 323 895.5 c 128,-1,9
 302 880 302 880 283.5 855.5 c 128,-1,10
 265 831 265 831 249.5 801 c 128,-1,11
 234 771 234 771 221.5 742.5 c 128,-1,12
 209 714 209 714 201 690 c 128,-1,13
 193 666 193 666 190 654 c 0,14,15
 185 634 185 634 170 627.5 c 128,-1,16
 155 621 155 621 139 621 c 0,17,18
 128 621 128 621 114 629.5 c 128,-1,19
 100 638 100 638 103 655 c 2,20,-1
 157 953 l 2,21,22
 160 971 160 971 177.5 982 c 128,-1,23
 195 993 195 993 210 994 c 1,24,-1
 844 994 l 2,25,26
 865 994 865 994 879.5 987.5 c 128,-1,27
 894 981 894 981 894 967 c 0,28,29
 894 949 894 949 888.5 936 c 128,-1,30
 883 923 883 923 877 915 c 2,31,-1
 283 83 l 1,32,-1
 582 83 l 2,33,34
 607 83 607 83 630 98.5 c 128,-1,35
 653 114 653 114 673.5 138.5 c 128,-1,36
 694 163 694 163 710.5 193 c 128,-1,37
 727 223 727 223 740 251.5 c 128,-1,38
 753 280 753 280 761 304 c 128,-1,39
 769 328 769 328 772 340 c 0,40,41
 777 360 777 360 787.5 366.5 c 128,-1,42
 798 373 798 373 814 373 c 0,43,44
 825 373 825 373 838 364.5 c 128,-1,45
 851 356 851 356 849 339 c 2,46,-1
 801 41 l 1,47,48
 799 21 799 21 781.5 11 c 128,-1,49
 764 1 764 1 749 0 c 1,50,-1
 68 0 l 2,51,52
 54 0 54 0 44.5 10 c 128,-1,53
 35 20 35 20 37 34 c 0,0,1
EndSplineSet
EndChar

StartChar: braceleft
Encoding: 123 123 93
Width: 881
GlyphClass: 2
Flags: W
LayerCount: 2
Fore
SplineSet
339 358 m 2,0,1
 345 399 345 399 334 434 c 128,-1,2
 323 469 323 469 297.5 494.5 c 128,-1,3
 272 520 272 520 234.5 534.5 c 128,-1,4
 197 549 197 549 150 549 c 2,5,-1
 120 549 l 1,6,-1
 136 659 l 1,7,-1
 166 659 l 2,8,9
 213 659 213 659 255.5 673.5 c 128,-1,10
 298 688 298 688 331.5 713.5 c 128,-1,11
 365 739 365 739 387.5 774 c 128,-1,12
 410 809 410 809 416 850 c 2,13,-1
 476 1237 l 2,14,15
 489 1320 489 1320 532.5 1377 c 128,-1,16
 576 1434 576 1434 633.5 1469.5 c 128,-1,17
 691 1505 691 1505 754 1520.5 c 128,-1,18
 817 1536 817 1536 870 1536 c 2,19,-1
 983 1536 l 1,20,-1
 969 1449 l 1,21,-1
 856 1449 l 2,22,23
 815 1449 815 1449 785 1433.5 c 128,-1,24
 755 1418 755 1418 734 1393 c 128,-1,25
 713 1368 713 1368 700.5 1338 c 128,-1,26
 688 1308 688 1308 683 1280 c 2,27,-1
 620 873 l 2,28,29
 610 812 610 812 578.5 766 c 128,-1,30
 547 720 547 720 499.5 687 c 128,-1,31
 452 654 452 654 392 633.5 c 128,-1,32
 332 613 332 613 266 603 c 1,33,34
 329 592 329 592 382.5 572 c 128,-1,35
 436 552 436 552 473 519.5 c 128,-1,36
 510 487 510 487 527.5 441.5 c 128,-1,37
 545 396 545 396 536 335 c 2,38,-1
 472 -72 l 2,39,40
 467 -101 467 -101 470 -130.5 c 128,-1,41
 473 -160 473 -160 486.5 -185 c 128,-1,42
 500 -210 500 -210 525.5 -225.5 c 128,-1,43
 551 -241 551 -241 592 -241 c 2,44,-1
 705 -241 l 1,45,-1
 691 -328 l 1,46,-1
 578 -328 l 2,47,48
 525 -328 525 -328 467 -312.5 c 128,-1,49
 409 -297 409 -297 362.5 -262 c 128,-1,50
 316 -227 316 -227 290 -169.5 c 128,-1,51
 264 -112 264 -112 277 -29 c 2,52,-1
 339 358 l 2,0,1
EndSplineSet
EndChar

StartChar: bar
Encoding: 124 124 94
Width: 768
GlyphClass: 2
Flags: W
LayerCount: 2
Fore
SplineSet
338 1535 m 1,0,-1
 483 1535 l 1,1,-1
 483 -367 l 1,2,-1
 338 -367 l 1,3,-1
 338 1535 l 1,0,-1
EndSplineSet
EndChar

StartChar: braceright
Encoding: 125 125 95
Width: 881
GlyphClass: 2
Flags: W
LayerCount: 2
Fore
SplineSet
243 335 m 2,0,1
 252 396 252 396 284 442 c 128,-1,2
 316 488 316 488 363.5 521 c 128,-1,3
 411 554 411 554 471 574.5 c 128,-1,4
 531 595 531 595 597 605 c 1,5,6
 534 615 534 615 480.5 635.5 c 128,-1,7
 427 656 427 656 390 688.5 c 128,-1,8
 353 721 353 721 335.5 766.5 c 128,-1,9
 318 812 318 812 327 873 c 2,10,-1
 391 1280 l 2,11,12
 395 1308 395 1308 392 1338 c 128,-1,13
 389 1368 389 1368 375.5 1393 c 128,-1,14
 362 1418 362 1418 336.5 1433.5 c 128,-1,15
 311 1449 311 1449 271 1449 c 2,16,-1
 158 1449 l 1,17,-1
 172 1536 l 1,18,-1
 285 1536 l 2,19,20
 320 1536 320 1536 358.5 1529.5 c 128,-1,21
 397 1523 397 1523 433 1508 c 128,-1,22
 469 1493 469 1493 500.5 1469.5 c 128,-1,23
 532 1446 532 1446 554 1413 c 128,-1,24
 576 1380 576 1380 585 1336 c 128,-1,25
 594 1292 594 1292 585 1237 c 2,26,-1
 524 850 l 2,27,28
 518 809 518 809 529 774 c 128,-1,29
 540 739 540 739 565.5 713.5 c 128,-1,30
 591 688 591 688 628.5 673.5 c 128,-1,31
 666 659 666 659 713 659 c 2,32,-1
 743 659 l 1,33,-1
 726 549 l 1,34,-1
 696 549 l 2,35,36
 649 549 649 549 606.5 534.5 c 128,-1,37
 564 520 564 520 531 494.5 c 128,-1,38
 498 469 498 469 475.5 434 c 128,-1,39
 453 399 453 399 447 358 c 2,40,-1
 387 -29 l 2,41,42
 378 -84 378 -84 355 -128 c 128,-1,43
 332 -172 332 -172 300 -205 c 128,-1,44
 268 -238 268 -238 229 -261.5 c 128,-1,45
 190 -285 190 -285 149.5 -300 c 128,-1,46
 109 -315 109 -315 69 -321.5 c 128,-1,47
 29 -328 29 -328 -6 -328 c 2,48,-1
 -119 -328 l 1,49,-1
 -105 -241 l 1,50,-1
 7 -241 l 2,51,52
 47 -241 47 -241 77.5 -225.5 c 128,-1,53
 108 -210 108 -210 129 -185 c 128,-1,54
 150 -160 150 -160 162 -130.5 c 128,-1,55
 174 -101 174 -101 179 -72 c 2,56,-1
 243 335 l 2,0,1
EndSplineSet
EndChar

StartChar: asciitilde
Encoding: 126 126 96
Width: 1317
GlyphClass: 2
Flags: W
LayerCount: 2
Fore
SplineSet
198 446 m 0,0,1
 184 467 184 467 197 488 c 0,2,3
 219 525 219 525 242.5 562.5 c 128,-1,4
 266 600 266 600 296 630 c 1,5,6
 327 667 327 667 372 686 c 128,-1,7
 417 705 417 705 467 705 c 0,8,9
 508 705 508 705 542 695.5 c 128,-1,10
 576 686 576 686 607.5 671.5 c 128,-1,11
 639 657 639 657 670 640.5 c 128,-1,12
 701 624 701 624 735 609 c 1,13,14
 791 581 791 581 834 576 c 128,-1,15
 877 571 877 571 909.5 579.5 c 128,-1,16
 942 588 942 588 965.5 606 c 128,-1,17
 989 624 989 624 1007.5 643.5 c 128,-1,18
 1026 663 1026 663 1040 680 c 128,-1,19
 1054 697 1054 697 1067 702 c 1,20,21
 1078 704 1078 704 1088.5 701.5 c 128,-1,22
 1099 699 1099 699 1110 684 c 0,23,24
 1124 663 1124 663 1111 642 c 0,25,26
 1089 605 1089 605 1070.5 572.5 c 128,-1,27
 1052 540 1052 540 1022 510 c 1,28,29
 1007 492 1007 492 987.5 476 c 128,-1,30
 968 460 968 460 945.5 449 c 128,-1,31
 923 438 923 438 898.5 431.5 c 128,-1,32
 874 425 874 425 851 425 c 0,33,34
 808 425 808 425 772.5 434.5 c 128,-1,35
 737 444 737 444 704.5 458.5 c 128,-1,36
 672 473 672 473 640 489.5 c 128,-1,37
 608 506 608 506 573 521 c 1,38,39
 517 549 517 549 474 554 c 128,-1,40
 431 559 431 559 398.5 550.5 c 128,-1,41
 366 542 366 542 342.5 524 c 128,-1,42
 319 506 319 506 300.5 486.5 c 128,-1,43
 282 467 282 467 268 450 c 128,-1,44
 254 433 254 433 241 428 c 1,45,46
 230 426 230 426 219.5 428.5 c 128,-1,47
 209 431 209 431 198 446 c 0,0,1
EndSplineSet
EndChar

StartChar: Aring
Encoding: 197 197 98
Width: 1374
Flags: W
LayerCount: 2
Fore
SplineSet
-102 0 m 2,0,1
 -110 0 -110 0 -115.5 6 c 128,-1,2
 -121 12 -121 12 -124 20 c 128,-1,3
 -127 28 -127 28 -128 36.5 c 128,-1,4
 -129 45 -129 45 -128 51 c 0,5,6
 -127 73 -127 73 -119 79.5 c 128,-1,7
 -111 86 -111 86 -90 88 c 0,8,9
 -71 90 -71 90 -45.5 90 c 128,-1,10
 -20 90 -20 90 7 95.5 c 128,-1,11
 34 101 34 101 58.5 116.5 c 128,-1,12
 83 132 83 132 100 165 c 2,13,-1
 737 1405 l 1,14,15
 689 1411 689 1411 650 1430 c 128,-1,16
 611 1449 611 1449 585 1479.5 c 128,-1,17
 559 1510 559 1510 547 1550.5 c 128,-1,18
 535 1591 535 1591 542 1641 c 0,19,20
 550 1696 550 1696 577.5 1739.5 c 128,-1,21
 605 1783 605 1783 645.5 1814 c 128,-1,22
 686 1845 686 1845 737.5 1861.5 c 128,-1,23
 789 1878 789 1878 845 1878 c 0,24,25
 900 1878 900 1878 947 1861 c 128,-1,26
 994 1844 994 1844 1026.5 1812.5 c 128,-1,27
 1059 1781 1059 1781 1074 1737 c 128,-1,28
 1089 1693 1089 1693 1082 1638 c 0,29,30
 1075 1589 1075 1589 1052 1549 c 128,-1,31
 1029 1509 1029 1509 995 1479.5 c 128,-1,32
 961 1450 961 1450 917.5 1431 c 128,-1,33
 874 1412 874 1412 826 1406 c 1,34,-1
 1173 165 l 1,35,36
 1181 132 1181 132 1197.5 116.5 c 128,-1,37
 1214 101 1214 101 1234 95.5 c 128,-1,38
 1254 90 1254 90 1275.5 90 c 128,-1,39
 1297 90 1297 90 1315 88 c 0,40,41
 1335 86 1335 86 1342.5 80 c 128,-1,42
 1350 74 1350 74 1348 51 c 0,43,44
 1347 45 1347 45 1344 36.5 c 128,-1,45
 1341 28 1341 28 1336 20 c 128,-1,46
 1331 12 1331 12 1324 6 c 128,-1,47
 1317 0 1317 0 1309 0 c 2,48,-1
 793 0 l 2,49,50
 784 0 784 0 778.5 6 c 128,-1,51
 773 12 773 12 769.5 20 c 128,-1,52
 766 28 766 28 764.5 36.5 c 128,-1,53
 763 45 763 45 764 51 c 0,54,55
 765 67 765 67 772.5 76.5 c 128,-1,56
 780 86 780 86 800 88 c 0,57,58
 834 90 834 90 863.5 90.5 c 128,-1,59
 893 91 893 91 913 94.5 c 128,-1,60
 933 98 933 98 942.5 106 c 128,-1,61
 952 114 952 114 948 132 c 2,62,-1
 861 492 l 1,63,-1
 396 492 l 1,64,-1
 220 132 l 2,65,66
 212 114 212 114 220.5 106 c 128,-1,67
 229 98 229 98 248.5 94.5 c 128,-1,68
 268 91 268 91 297 90.5 c 128,-1,69
 326 90 326 90 360 88 c 0,70,71
 379 86 379 86 385 76.5 c 128,-1,72
 391 67 391 67 390 51 c 0,73,74
 389 45 389 45 386 36.5 c 128,-1,75
 383 28 383 28 378 20 c 128,-1,76
 373 12 373 12 366.5 6 c 128,-1,77
 360 0 360 0 351 0 c 2,78,-1
 -102 0 l 2,0,1
792 1498 m 256,79,80
 835 1498 835 1498 865 1509.5 c 128,-1,81
 895 1521 895 1521 915 1540.5 c 128,-1,82
 935 1560 935 1560 946 1586.5 c 128,-1,83
 957 1613 957 1613 961 1642 c 256,84,85
 965 1671 965 1671 961.5 1697 c 128,-1,86
 958 1723 958 1723 943.5 1742.5 c 128,-1,87
 929 1762 929 1762 902 1773 c 128,-1,88
 875 1784 875 1784 832 1784 c 256,89,90
 789 1784 789 1784 759 1772.5 c 128,-1,91
 729 1761 729 1761 709.5 1741.5 c 128,-1,92
 690 1722 690 1722 679 1695.5 c 128,-1,93
 668 1669 668 1669 664 1640 c 256,94,95
 660 1611 660 1611 663.5 1585 c 128,-1,96
 667 1559 667 1559 681 1539.5 c 128,-1,97
 695 1520 695 1520 722 1509 c 128,-1,98
 749 1498 749 1498 792 1498 c 256,79,80
840 580 m 1,99,-1
 708 1126 l 1,100,-1
 439 580 l 1,101,-1
 840 580 l 1,99,-1
EndSplineSet
EndChar

StartChar: Ccedilla
Encoding: 199 199 99
Width: 1315
Flags: W
LayerCount: 2
Fore
SplineSet
418 -349 m 0,0,1
 431 -342 431 -342 454.5 -339.5 c 128,-1,2
 478 -337 478 -337 505.5 -335 c 128,-1,3
 533 -333 533 -333 562.5 -329 c 128,-1,4
 592 -325 592 -325 616.5 -315 c 128,-1,5
 641 -305 641 -305 658.5 -287.5 c 128,-1,6
 676 -270 676 -270 681 -239 c 0,7,8
 683 -223 683 -223 678.5 -210.5 c 128,-1,9
 674 -198 674 -198 665 -188 c 128,-1,10
 656 -178 656 -178 644 -171 c 128,-1,11
 632 -164 632 -164 619 -159 c 0,12,13
 588 -148 588 -148 548 -145 c 1,14,-1
 548 -144 l 1,15,-1
 580 -22 l 1,16,17
 338 9 338 9 207.5 168.5 c 128,-1,18
 77 328 77 328 77 609 c 0,19,20
 77 742 77 742 112 856.5 c 128,-1,21
 147 971 147 971 206.5 1064 c 128,-1,22
 266 1157 266 1157 345.5 1229 c 128,-1,23
 425 1301 425 1301 514 1350 c 128,-1,24
 603 1399 603 1399 696.5 1424 c 128,-1,25
 790 1449 790 1449 878 1449 c 256,26,27
 966 1449 966 1449 1031.5 1439.5 c 128,-1,28
 1097 1430 1097 1430 1144.5 1416.5 c 128,-1,29
 1192 1403 1192 1403 1224 1388 c 128,-1,30
 1256 1373 1256 1373 1279 1361 c 1,31,-1
 1241 1051 l 1,32,33
 1241 1039 1241 1039 1233 1031.5 c 128,-1,34
 1225 1024 1225 1024 1214.5 1019 c 128,-1,35
 1204 1014 1204 1014 1194 1012 c 128,-1,36
 1184 1010 1184 1010 1178 1010 c 0,37,38
 1164 1010 1164 1010 1151.5 1016 c 128,-1,39
 1139 1022 1139 1022 1137 1039 c 1,40,41
 1144 1202 1144 1202 1079 1277.5 c 128,-1,42
 1014 1353 1014 1353 864 1353 c 0,43,44
 808 1353 808 1353 746.5 1336 c 128,-1,45
 685 1319 685 1319 625 1281 c 128,-1,46
 565 1243 565 1243 510.5 1184 c 128,-1,47
 456 1125 456 1125 414.5 1041 c 128,-1,48
 373 957 373 957 348.5 846.5 c 128,-1,49
 324 736 324 736 324 597 c 0,50,51
 324 541 324 541 330 479.5 c 128,-1,52
 336 418 336 418 351.5 359 c 128,-1,53
 367 300 367 300 393.5 246.5 c 128,-1,54
 420 193 420 193 461 153 c 128,-1,55
 502 113 502 113 558 89 c 128,-1,56
 614 65 614 65 690 65 c 0,57,58
 768 65 768 65 828 89 c 128,-1,59
 888 113 888 113 933 154.5 c 128,-1,60
 978 196 978 196 1009 252 c 128,-1,61
 1040 308 1040 308 1061 373 c 1,62,63
 1069 393 1069 393 1077.5 399.5 c 128,-1,64
 1086 406 1086 406 1103 406 c 0,65,66
 1109 406 1109 406 1120 404 c 128,-1,67
 1131 402 1131 402 1142 398.5 c 128,-1,68
 1153 395 1153 395 1161 389 c 128,-1,69
 1169 383 1169 383 1169 375 c 2,70,-1
 1169 372 l 1,71,-1
 1106 108 l 2,72,73
 1103 97 1103 97 1072 74.5 c 128,-1,74
 1041 52 1041 52 988.5 28.5 c 128,-1,75
 936 5 936 5 864 -12.5 c 128,-1,76
 792 -30 792 -30 706 -30 c 0,77,78
 701 -30 701 -30 695.5 -29.5 c 128,-1,79
 690 -29 690 -29 685 -29 c 1,80,-1
 670 -88 l 1,81,82
 700 -99 700 -99 729.5 -117.5 c 128,-1,83
 759 -136 759 -136 781.5 -159 c 128,-1,84
 804 -182 804 -182 817 -207.5 c 128,-1,85
 830 -233 830 -233 826 -258 c 0,86,87
 819 -306 819 -306 795 -339.5 c 128,-1,88
 771 -373 771 -373 736 -394.5 c 128,-1,89
 701 -416 701 -416 657 -426 c 128,-1,90
 613 -436 613 -436 567 -436 c 0,91,92
 529 -436 529 -436 496.5 -433.5 c 128,-1,93
 464 -431 464 -431 422 -422 c 0,94,95
 411 -420 411 -420 402.5 -412 c 128,-1,96
 394 -404 394 -404 396 -393 c 0,97,98
 399 -373 399 -373 403 -364.5 c 128,-1,99
 407 -356 407 -356 418 -349 c 0,0,1
EndSplineSet
EndChar

StartChar: ccedilla
Encoding: 231 231 110
Width: 930
Flags: W
LayerCount: 2
Fore
SplineSet
323 -9 m 1,0,1
 265 9 265 9 220.5 44 c 128,-1,2
 176 79 176 79 146 129 c 128,-1,3
 116 179 116 179 100.5 242.5 c 128,-1,4
 85 306 85 306 85 381 c 0,5,6
 85 516 85 516 130.5 631.5 c 128,-1,7
 176 747 176 747 251 832 c 128,-1,8
 326 917 326 917 422.5 965.5 c 128,-1,9
 519 1014 519 1014 621 1014 c 0,10,11
 684 1014 684 1014 738 1000.5 c 128,-1,12
 792 987 792 987 832.5 959.5 c 128,-1,13
 873 932 873 932 896 889 c 128,-1,14
 919 846 919 846 919 787 c 0,15,16
 919 756 919 756 908.5 732.5 c 128,-1,17
 898 709 898 709 882.5 693.5 c 128,-1,18
 867 678 867 678 849 670 c 128,-1,19
 831 662 831 662 815 662 c 0,20,21
 800 662 800 662 789 662.5 c 128,-1,22
 778 663 778 663 770 666.5 c 128,-1,23
 762 670 762 670 755.5 679 c 128,-1,24
 749 688 749 688 745 705 c 2,25,-1
 691 914 l 1,26,27
 681 922 681 922 657.5 927.5 c 128,-1,28
 634 933 634 933 605 933 c 0,29,30
 545 933 545 933 490 894 c 128,-1,31
 435 855 435 855 393 781.5 c 128,-1,32
 351 708 351 708 326.5 601.5 c 128,-1,33
 302 495 302 495 302 360 c 0,34,35
 302 282 302 282 316.5 227.5 c 128,-1,36
 331 173 331 173 356 139.5 c 128,-1,37
 381 106 381 106 414 90.5 c 128,-1,38
 447 75 447 75 484 75 c 0,39,40
 527 75 527 75 564 84 c 128,-1,41
 601 93 601 93 635.5 111 c 128,-1,42
 670 129 670 129 703 155 c 128,-1,43
 736 181 736 181 771 215 c 0,44,45
 776 221 776 221 781 225.5 c 128,-1,46
 786 230 786 230 793 225 c 2,47,-1
 830 192 l 2,48,49
 840 184 840 184 834 177 c 128,-1,50
 828 170 828 170 824 164 c 0,51,52
 791 121 791 121 752 86 c 128,-1,53
 713 51 713 51 667.5 25.5 c 128,-1,54
 622 0 622 0 568.5 -14 c 128,-1,55
 515 -28 515 -28 453 -28 c 0,56,57
 446 -28 446 -28 439.5 -27.5 c 128,-1,58
 433 -27 433 -27 426 -27 c 1,59,-1
 410 -88 l 1,60,61
 440 -99 440 -99 469.5 -117.5 c 128,-1,62
 499 -136 499 -136 521.5 -159 c 128,-1,63
 544 -182 544 -182 557 -207.5 c 128,-1,64
 570 -233 570 -233 566 -258 c 0,65,66
 559 -306 559 -306 535 -339.5 c 128,-1,67
 511 -373 511 -373 476 -394.5 c 128,-1,68
 441 -416 441 -416 397 -426 c 128,-1,69
 353 -436 353 -436 307 -436 c 0,70,71
 269 -436 269 -436 236.5 -433.5 c 128,-1,72
 204 -431 204 -431 162 -422 c 0,73,74
 151 -420 151 -420 142.5 -412 c 128,-1,75
 134 -404 134 -404 136 -393 c 0,76,77
 139 -373 139 -373 143 -364.5 c 128,-1,78
 147 -356 147 -356 158 -349 c 0,79,80
 171 -342 171 -342 194.5 -339.5 c 128,-1,81
 218 -337 218 -337 245.5 -335 c 128,-1,82
 273 -333 273 -333 302.5 -329 c 128,-1,83
 332 -325 332 -325 356.5 -315 c 128,-1,84
 381 -305 381 -305 398.5 -287.5 c 128,-1,85
 416 -270 416 -270 421 -239 c 0,86,87
 423 -223 423 -223 418.5 -210.5 c 128,-1,88
 414 -198 414 -198 405 -188 c 128,-1,89
 396 -178 396 -178 384 -171 c 128,-1,90
 372 -164 372 -164 359 -159 c 0,91,92
 328 -148 328 -148 288 -145 c 1,93,-1
 288 -144 l 1,94,-1
 323 -9 l 1,0,1
EndSplineSet
EndChar

StartChar: dagger
Encoding: 8224 8224 129
Width: 967
GlyphClass: 2
Flags: W
LayerCount: 2
Fore
SplineSet
319 117 m 0,0,1
 320 122 320 122 327.5 162.5 c 128,-1,2
 335 203 335 203 347 266.5 c 128,-1,3
 359 330 359 330 374.5 410 c 128,-1,4
 390 490 390 490 406.5 574.5 c 128,-1,5
 423 659 423 659 439 741 c 128,-1,6
 455 823 455 823 468.5 890.5 c 128,-1,7
 482 958 482 958 491.5 1004 c 128,-1,8
 501 1050 501 1050 504 1063 c 1,9,10
 490 1060 490 1060 465.5 1055 c 128,-1,11
 441 1050 441 1050 412.5 1043 c 128,-1,12
 384 1036 384 1036 354 1029 c 128,-1,13
 324 1022 324 1022 298 1016 c 128,-1,14
 272 1010 272 1010 252.5 1006 c 128,-1,15
 233 1002 233 1002 227 1002 c 0,16,17
 202 1002 202 1002 181.5 1008 c 128,-1,18
 161 1014 161 1014 147 1026.5 c 128,-1,19
 133 1039 133 1039 127 1057.5 c 128,-1,20
 121 1076 121 1076 124 1101 c 0,21,22
 132 1151 132 1151 168 1171 c 128,-1,23
 204 1191 204 1191 254 1191 c 0,24,25
 264 1191 264 1191 297.5 1181.5 c 128,-1,26
 331 1172 331 1172 371.5 1159.5 c 128,-1,27
 412 1147 412 1147 451 1135 c 128,-1,28
 490 1123 490 1123 511 1119 c 1,29,30
 511 1134 511 1134 509 1161.5 c 128,-1,31
 507 1189 507 1189 505 1222.5 c 128,-1,32
 503 1256 503 1256 500.5 1291.5 c 128,-1,33
 498 1327 498 1327 496 1358 c 128,-1,34
 494 1389 494 1389 493.5 1411 c 128,-1,35
 493 1433 493 1433 494 1440 c 0,36,37
 501 1490 501 1490 530.5 1523.5 c 128,-1,38
 560 1557 560 1557 611 1557 c 0,39,40
 660 1557 660 1557 681 1523.5 c 128,-1,41
 702 1490 702 1490 695 1440 c 0,42,43
 694 1433 694 1433 686.5 1411 c 128,-1,44
 679 1389 679 1389 668.5 1358 c 128,-1,45
 658 1327 658 1327 645.5 1291.5 c 128,-1,46
 633 1256 633 1256 621 1222.5 c 128,-1,47
 609 1189 609 1189 599.5 1161.5 c 128,-1,48
 590 1134 590 1134 586 1119 c 1,49,50
 600 1122 600 1122 624.5 1128.5 c 128,-1,51
 649 1135 649 1135 677.5 1143 c 128,-1,52
 706 1151 706 1151 736 1159.5 c 128,-1,53
 766 1168 766 1168 792 1175 c 128,-1,54
 818 1182 818 1182 837.5 1186.5 c 128,-1,55
 857 1191 857 1191 864 1191 c 0,56,57
 913 1191 913 1191 943.5 1170.5 c 128,-1,58
 974 1150 974 1150 967 1101 c 0,59,60
 960 1051 960 1051 923 1026.5 c 128,-1,61
 886 1002 886 1002 837 1002 c 0,62,63
 826 1002 826 1002 792 1010 c 128,-1,64
 758 1018 758 1018 717 1028.5 c 128,-1,65
 676 1039 676 1039 637 1049 c 128,-1,66
 598 1059 598 1059 577 1063 c 1,67,68
 576 1050 576 1050 572.5 1004 c 128,-1,69
 569 958 569 958 563.5 890.5 c 128,-1,70
 558 823 558 823 551.5 741 c 128,-1,71
 545 659 545 659 537.5 574.5 c 128,-1,72
 530 490 530 490 523 410 c 128,-1,73
 516 330 516 330 510.5 266.5 c 128,-1,74
 505 203 505 203 501.5 162.5 c 128,-1,75
 498 122 498 122 497 117 c 0,76,77
 490 67 490 67 466 33.5 c 128,-1,78
 442 0 442 0 393 0 c 0,79,80
 368 0 368 0 352 9 c 128,-1,81
 336 18 336 18 327.5 33.5 c 128,-1,82
 319 49 319 49 317.5 70.5 c 128,-1,83
 316 92 316 92 319 117 c 0,0,1
EndSplineSet
EndChar

StartChar: degree
Encoding: 176 176 130
Width: 858
GlyphClass: 2
Flags: W
LayerCount: 2
Fore
SplineSet
458 774 m 256,0,1
 382 774 382 774 319.5 798.5 c 128,-1,2
 257 823 257 823 212.5 868 c 128,-1,3
 168 913 168 913 143.5 975.5 c 128,-1,4
 119 1038 119 1038 119 1113 c 256,5,6
 119 1188 119 1188 144 1250.5 c 128,-1,7
 169 1313 169 1313 214.5 1357 c 128,-1,8
 260 1401 260 1401 323 1425.5 c 128,-1,9
 386 1450 386 1450 462 1450 c 256,10,11
 538 1450 538 1450 600 1425.5 c 128,-1,12
 662 1401 662 1401 706 1357 c 128,-1,13
 750 1313 750 1313 774.5 1250.5 c 128,-1,14
 799 1188 799 1188 799 1113 c 256,15,16
 799 1038 799 1038 774 975.5 c 128,-1,17
 749 913 749 913 704 868 c 128,-1,18
 659 823 659 823 596.5 798.5 c 128,-1,19
 534 774 534 774 458 774 c 256,0,1
460 884 m 0,20,21
 549 884 549 884 603 941 c 128,-1,22
 657 998 657 998 657 1113 c 0,23,24
 657 1170 657 1170 642.5 1213 c 128,-1,25
 628 1256 628 1256 601.5 1284 c 128,-1,26
 575 1312 575 1312 538 1326 c 128,-1,27
 501 1340 501 1340 457 1340 c 0,28,29
 367 1340 367 1340 314 1284 c 128,-1,30
 261 1228 261 1228 261 1113 c 0,31,32
 261 1056 261 1056 275.5 1013 c 128,-1,33
 290 970 290 970 316 941.5 c 128,-1,34
 342 913 342 913 378.5 898.5 c 128,-1,35
 415 884 415 884 460 884 c 0,20,21
EndSplineSet
EndChar

StartChar: cent
Encoding: 162 162 131
Width: 1137
GlyphClass: 2
Flags: W
LayerCount: 2
Fore
SplineSet
178 381 m 0,0,1
 178 507 178 507 218 616.5 c 128,-1,2
 258 726 258 726 325 809.5 c 128,-1,3
 392 893 392 893 479.5 945.5 c 128,-1,4
 567 998 567 998 662 1010 c 1,5,-1
 693 1225 l 1,6,-1
 799 1225 l 1,7,-1
 769 1013 l 1,8,-1
 767 1011 l 1,9,10
 820 1006 820 1006 865 990 c 128,-1,11
 910 974 910 974 942.5 946.5 c 128,-1,12
 975 919 975 919 993.5 879 c 128,-1,13
 1012 839 1012 839 1012 787 c 0,14,15
 1012 756 1012 756 1001.5 732.5 c 128,-1,16
 991 709 991 709 975.5 693.5 c 128,-1,17
 960 678 960 678 942 670 c 128,-1,18
 924 662 924 662 908 662 c 0,19,20
 893 662 893 662 882 662.5 c 128,-1,21
 871 663 871 663 863 666.5 c 128,-1,22
 855 670 855 670 848.5 679 c 128,-1,23
 842 688 842 688 838 705 c 2,24,-1
 784 914 l 1,25,26
 774 922 774 922 750.5 927.5 c 128,-1,27
 727 933 727 933 698 933 c 0,28,29
 638 933 638 933 583 894 c 128,-1,30
 528 855 528 855 486 781.5 c 128,-1,31
 444 708 444 708 419.5 601.5 c 128,-1,32
 395 495 395 495 395 360 c 0,33,34
 395 282 395 282 409.5 227.5 c 128,-1,35
 424 173 424 173 449 139.5 c 128,-1,36
 474 106 474 106 507 90.5 c 128,-1,37
 540 75 540 75 577 75 c 0,38,39
 620 75 620 75 657 84 c 128,-1,40
 694 93 694 93 728.5 111 c 128,-1,41
 763 129 763 129 796 155 c 128,-1,42
 829 181 829 181 864 215 c 0,43,44
 869 221 869 221 874 225.5 c 128,-1,45
 879 230 879 230 886 225 c 2,46,-1
 923 192 l 2,47,48
 933 184 933 184 927 177 c 128,-1,49
 921 170 921 170 917 164 c 0,50,51
 854 83 854 83 772.5 32 c 128,-1,52
 691 -19 691 -19 579 -27 c 1,53,-1
 550 -228 l 1,54,-1
 444 -228 l 1,55,-1
 473 -25 l 1,56,-1
 476 -22 l 1,57,58
 403 -12 403 -12 347.5 21 c 128,-1,59
 292 54 292 54 254.5 106 c 128,-1,60
 217 158 217 158 197.5 227.5 c 128,-1,61
 178 297 178 297 178 381 c 0,0,1
EndSplineSet
EndChar

StartChar: sterling
Encoding: 163 163 132
Width: 1274
GlyphClass: 2
Flags: W
LayerCount: 2
Fore
SplineSet
55 0 m 0,0,1
 43 0 43 0 26 4.5 c 128,-1,2
 9 9 9 9 -6.5 19 c 128,-1,3
 -22 29 -22 29 -32.5 44.5 c 128,-1,4
 -43 60 -43 60 -43 82 c 0,5,6
 -43 122 -43 122 -16.5 151 c 128,-1,7
 10 180 10 180 50 199 c 128,-1,8
 90 218 90 218 135.5 226.5 c 128,-1,9
 181 235 181 235 220 233 c 1,10,11
 232 251 232 251 243.5 285.5 c 128,-1,12
 255 320 255 320 267 375 c 128,-1,13
 279 430 279 430 293.5 508 c 128,-1,14
 308 586 308 586 326 691 c 1,15,-1
 131 691 l 1,16,17
 119 692 119 692 114 702.5 c 128,-1,18
 109 713 109 713 112 725 c 1,19,20
 114 744 114 744 123.5 766 c 128,-1,21
 133 788 133 788 144 793 c 1,22,-1
 343 793 l 1,23,-1
 356 871 l 2,24,25
 378 1001 378 1001 423 1107.5 c 128,-1,26
 468 1214 468 1214 541 1290 c 128,-1,27
 614 1366 614 1366 717 1407 c 128,-1,28
 820 1448 820 1448 957 1448 c 0,29,30
 1025 1448 1025 1448 1078.5 1430 c 128,-1,31
 1132 1412 1132 1412 1168.5 1383.5 c 128,-1,32
 1205 1355 1205 1355 1224 1319 c 128,-1,33
 1243 1283 1243 1283 1243 1248 c 0,34,35
 1243 1225 1243 1225 1236 1205.5 c 128,-1,36
 1229 1186 1229 1186 1217 1171 c 128,-1,37
 1205 1156 1205 1156 1188 1147.5 c 128,-1,38
 1171 1139 1171 1139 1151 1139 c 0,39,40
 1140 1139 1140 1139 1123.5 1144 c 128,-1,41
 1107 1149 1107 1149 1099 1159 c 1,42,-1
 995 1334 l 1,43,44
 977 1346 977 1346 949.5 1351 c 128,-1,45
 922 1356 922 1356 906 1356 c 0,46,47
 838 1356 838 1356 784.5 1334.5 c 128,-1,48
 731 1313 731 1313 689.5 1260 c 128,-1,49
 648 1207 648 1207 617 1117.5 c 128,-1,50
 586 1028 586 1028 562 893 c 2,51,-1
 544 793 l 1,52,-1
 847 793 l 1,53,54
 859 792 859 792 864 781.5 c 128,-1,55
 869 771 869 771 866 759 c 1,56,57
 864 740 864 740 854.5 718 c 128,-1,58
 845 696 845 696 834 691 c 1,59,-1
 526 691 l 1,60,-1
 511 603 l 1,61,62
 497 529 497 529 474.5 464.5 c 128,-1,63
 452 400 452 400 426.5 348 c 128,-1,64
 401 296 401 296 375.5 257 c 128,-1,65
 350 218 350 218 331 196 c 1,66,67
 369 181 369 181 401.5 163.5 c 128,-1,68
 434 146 434 146 470 130 c 128,-1,69
 506 114 506 114 551 102.5 c 128,-1,70
 596 91 596 91 659 88 c 0,71,72
 731 85 731 85 798 93 c 128,-1,73
 865 101 865 101 916.5 120 c 128,-1,74
 968 139 968 139 999.5 167 c 128,-1,75
 1031 195 1031 195 1033 233 c 1,76,-1
 999 420 l 1,77,78
 1000 427 1000 427 1009.5 436.5 c 128,-1,79
 1019 446 1019 446 1033 454 c 128,-1,80
 1047 462 1047 462 1065 466.5 c 128,-1,81
 1083 471 1083 471 1102 468 c 0,82,83
 1129 465 1129 465 1151.5 449.5 c 128,-1,84
 1174 434 1174 434 1190.5 411 c 128,-1,85
 1207 388 1207 388 1216 359.5 c 128,-1,86
 1225 331 1225 331 1225 303 c 0,87,88
 1225 220 1225 220 1184 160 c 128,-1,89
 1143 100 1143 100 1076 61 c 128,-1,90
 1009 22 1009 22 923.5 3 c 128,-1,91
 838 -16 838 -16 748 -16 c 0,92,93
 666 -16 666 -16 604.5 -5 c 128,-1,94
 543 6 543 6 496.5 22.5 c 128,-1,95
 450 39 450 39 415.5 57 c 128,-1,96
 381 75 381 75 354 90 c 128,-1,97
 327 105 327 105 304 113.5 c 128,-1,98
 281 122 281 122 258 118 c 1,99,100
 250 106 250 106 229.5 86 c 128,-1,101
 209 66 209 66 181 47 c 128,-1,102
 153 28 153 28 120.5 14 c 128,-1,103
 88 0 88 0 55 0 c 0,0,1
EndSplineSet
EndChar

StartChar: section
Encoding: 167 167 133
Width: 1024
GlyphClass: 2
Flags: W
LayerCount: 2
Fore
SplineSet
125 -199 m 0,0,1
 125 -164 125 -164 143.5 -142 c 128,-1,2
 162 -120 162 -120 186 -109 c 128,-1,3
 210 -98 210 -98 232.5 -96.5 c 128,-1,4
 255 -95 255 -95 263 -101 c 1,5,-1
 343 -271 l 1,6,7
 385 -269 385 -269 420 -255 c 128,-1,8
 455 -241 455 -241 480.5 -216.5 c 128,-1,9
 506 -192 506 -192 520 -158 c 128,-1,10
 534 -124 534 -124 534 -81 c 0,11,12
 534 -49 534 -49 520 -17.5 c 128,-1,13
 506 14 506 14 482.5 46.5 c 128,-1,14
 459 79 459 79 428 113 c 128,-1,15
 397 147 397 147 363 182.5 c 128,-1,16
 329 218 329 218 294.5 257 c 128,-1,17
 260 296 260 296 229 338 c 0,18,19
 200 377 200 377 184.5 430 c 128,-1,20
 169 483 169 483 169 540 c 0,21,22
 169 595 169 595 186 643.5 c 128,-1,23
 203 692 203 692 231.5 736 c 128,-1,24
 260 780 260 780 297 820 c 128,-1,25
 334 860 334 860 375 899 c 1,26,27
 317 997 317 997 317 1108 c 0,28,29
 317 1181 317 1181 344 1243.5 c 128,-1,30
 371 1306 371 1306 419 1351.5 c 128,-1,31
 467 1397 467 1397 532.5 1423 c 128,-1,32
 598 1449 598 1449 674 1449 c 0,33,34
 722 1449 722 1449 758 1434 c 128,-1,35
 794 1419 794 1419 817.5 1394.5 c 128,-1,36
 841 1370 841 1370 853 1339.5 c 128,-1,37
 865 1309 865 1309 865 1278 c 0,38,39
 865 1244 865 1244 846 1222.5 c 128,-1,40
 827 1201 827 1201 803 1189.5 c 128,-1,41
 779 1178 779 1178 756.5 1176 c 128,-1,42
 734 1174 734 1174 726 1180 c 1,43,-1
 645 1356 l 1,44,45
 606 1354 606 1354 573.5 1339 c 128,-1,46
 541 1324 541 1324 517 1298.5 c 128,-1,47
 493 1273 493 1273 479.5 1237.5 c 128,-1,48
 466 1202 466 1202 466 1160 c 0,49,50
 466 1112 466 1112 496 1064.5 c 128,-1,51
 526 1017 526 1017 571.5 966 c 128,-1,52
 617 915 617 915 670.5 859.5 c 128,-1,53
 724 804 724 804 771 741 c 0,54,55
 800 702 800 702 815.5 649 c 128,-1,56
 831 596 831 596 831 539 c 0,57,58
 831 484 831 484 814 435.5 c 128,-1,59
 797 387 797 387 768.5 342.5 c 128,-1,60
 740 298 740 298 702.5 258 c 128,-1,61
 665 218 665 218 624 179 c 1,62,63
 653 129 653 129 668 78 c 128,-1,64
 683 27 683 27 682 -29 c 0,65,66
 681 -104 681 -104 655 -165 c 128,-1,67
 629 -226 629 -226 582 -269.5 c 128,-1,68
 535 -313 535 -313 470 -336.5 c 128,-1,69
 405 -360 405 -360 327 -360 c 0,70,71
 279 -360 279 -360 241.5 -344.5 c 128,-1,72
 204 -329 204 -329 178 -305.5 c 128,-1,73
 152 -282 152 -282 138.5 -253.5 c 128,-1,74
 125 -225 125 -225 125 -199 c 0,0,1
421 457 m 0,75,76
 453 408 453 408 491.5 360.5 c 128,-1,77
 530 313 530 313 566 265 c 1,78,79
 590 310 590 310 611 359 c 128,-1,80
 632 408 632 408 632 464 c 0,81,82
 632 516 632 516 616.5 553 c 128,-1,83
 601 590 601 590 579 622 c 0,84,85
 546 671 546 671 507 717.5 c 128,-1,86
 468 764 468 764 433 812 c 1,87,88
 408 767 408 767 388 718.5 c 128,-1,89
 368 670 368 670 368 613 c 0,90,91
 368 562 368 562 383.5 525.5 c 128,-1,92
 399 489 399 489 421 457 c 0,75,76
EndSplineSet
EndChar

StartChar: bullet
Encoding: 8226 8226 134
Width: 805
GlyphClass: 2
Flags: W
LayerCount: 2
Fore
SplineSet
357 292 m 0,0,1
 310 292 310 292 269.5 310 c 128,-1,2
 229 328 229 328 199 359.5 c 128,-1,3
 169 391 169 391 152 434.5 c 128,-1,4
 135 478 135 478 135 529 c 0,5,6
 135 585 135 585 156 637.5 c 128,-1,7
 177 690 177 690 216 731 c 128,-1,8
 255 772 255 772 309.5 797 c 128,-1,9
 364 822 364 822 431 822 c 0,10,11
 477 822 477 822 518 804 c 128,-1,12
 559 786 559 786 589 754.5 c 128,-1,13
 619 723 619 723 636.5 679 c 128,-1,14
 654 635 654 635 654 584 c 0,15,16
 654 528 654 528 633 475.5 c 128,-1,17
 612 423 612 423 573 382 c 128,-1,18
 534 341 534 341 479 316.5 c 128,-1,19
 424 292 424 292 357 292 c 0,0,1
EndSplineSet
EndChar

StartChar: paragraph
Encoding: 182 182 135
Width: 1024
GlyphClass: 2
Flags: W
LayerCount: 2
Fore
SplineSet
43 -199 m 0,0,1
 67 -197 67 -197 94.5 -194 c 128,-1,2
 122 -191 122 -191 146 -181 c 128,-1,3
 170 -171 170 -171 188.5 -152.5 c 128,-1,4
 207 -134 207 -134 213 -102 c 2,5,-1
 343 575 l 1,6,7
 273 595 273 595 221 634 c 128,-1,8
 169 673 169 673 138 727.5 c 128,-1,9
 107 782 107 782 98 851 c 128,-1,10
 89 920 89 920 104 1000 c 0,11,12
 126 1117 126 1117 179 1197 c 128,-1,13
 232 1277 232 1277 303.5 1327 c 128,-1,14
 375 1377 375 1377 459 1399 c 128,-1,15
 543 1421 543 1421 627 1421 c 2,16,-1
 842 1419 l 1,17,-1
 1150 1419 l 2,18,19
 1159 1419 1159 1419 1164 1413 c 128,-1,20
 1169 1407 1169 1407 1171.5 1399 c 128,-1,21
 1174 1391 1174 1391 1174.5 1382.5 c 128,-1,22
 1175 1374 1175 1374 1174 1368 c 0,23,24
 1170 1345 1170 1345 1161 1339 c 128,-1,25
 1152 1333 1152 1333 1131 1331 c 0,26,27
 1108 1329 1108 1329 1085.5 1326 c 128,-1,28
 1063 1323 1063 1323 1044 1313 c 128,-1,29
 1025 1303 1025 1303 1010.5 1284.5 c 128,-1,30
 996 1266 996 1266 990 1234 c 2,31,-1
 726 -135 l 2,32,33
 723 -152 723 -152 734.5 -163 c 128,-1,34
 746 -174 746 -174 766 -181.5 c 128,-1,35
 786 -189 786 -189 811 -193 c 128,-1,36
 836 -197 836 -197 860 -199 c 0,37,38
 879 -201 879 -201 883.5 -210.5 c 128,-1,39
 888 -220 888 -220 885 -236 c 0,40,41
 884 -242 884 -242 880 -250.5 c 128,-1,42
 876 -259 876 -259 870.5 -267 c 128,-1,43
 865 -275 865 -275 857.5 -281 c 128,-1,44
 850 -287 850 -287 841 -287 c 2,45,-1
 529 -287 l 1,46,-1
 836 1302 l 1,47,-1
 656 1302 l 1,48,-1
 349 -287 l 1,49,-1
 23 -287 l 2,50,51
 14 -287 14 -287 9 -281 c 128,-1,52
 4 -275 4 -275 1.5 -267 c 128,-1,53
 -1 -259 -1 -259 -1.5 -250.5 c 128,-1,54
 -2 -242 -2 -242 -1 -236 c 0,55,56
 4 -213 4 -213 12.5 -207 c 128,-1,57
 21 -201 21 -201 43 -199 c 0,0,1
EndSplineSet
EndChar

StartChar: germandbls
Encoding: 223 223 136
Width: 1110
GlyphClass: 2
Flags: W
LayerCount: 2
Fore
SplineSet
220 1061 m 2,0,1
 234 1156 234 1156 273 1246 c 128,-1,2
 312 1336 312 1336 377 1405.5 c 128,-1,3
 442 1475 442 1475 535 1517 c 128,-1,4
 628 1559 628 1559 750 1559 c 0,5,6
 819 1559 819 1559 874.5 1546 c 128,-1,7
 930 1533 930 1533 969.5 1507 c 128,-1,8
 1009 1481 1009 1481 1030 1441 c 128,-1,9
 1051 1401 1051 1401 1051 1346 c 0,10,11
 1051 1280 1051 1280 1030 1233.5 c 128,-1,12
 1009 1187 1009 1187 977.5 1152.5 c 128,-1,13
 946 1118 946 1118 909.5 1091 c 128,-1,14
 873 1064 873 1064 841.5 1037.5 c 128,-1,15
 810 1011 810 1011 789 981 c 128,-1,16
 768 951 768 951 768 911 c 0,17,18
 768 886 768 886 790 858.5 c 128,-1,19
 812 831 812 831 844.5 797.5 c 128,-1,20
 877 764 877 764 915.5 723.5 c 128,-1,21
 954 683 954 683 986.5 633.5 c 128,-1,22
 1019 584 1019 584 1041 523.5 c 128,-1,23
 1063 463 1063 463 1063 389 c 0,24,25
 1063 302 1063 302 1032.5 225.5 c 128,-1,26
 1002 149 1002 149 950 92.5 c 128,-1,27
 898 36 898 36 828.5 3.5 c 128,-1,28
 759 -29 759 -29 681 -29 c 0,29,30
 613 -29 613 -29 564.5 -15 c 128,-1,31
 516 -1 516 -1 484 22 c 128,-1,32
 452 45 452 45 437 74.5 c 128,-1,33
 422 104 422 104 422 135 c 0,34,35
 422 161 422 161 433 181 c 128,-1,36
 444 201 444 201 460 215 c 128,-1,37
 476 229 476 229 494.5 236.5 c 128,-1,38
 513 244 513 244 528 244 c 0,39,40
 548 244 548 244 561 239.5 c 128,-1,41
 574 235 574 235 576 222 c 1,42,-1
 621 89 l 1,43,44
 626 79 626 79 635 72 c 0,45,46
 643 65 643 65 655.5 60 c 128,-1,47
 668 55 668 55 687 55 c 0,48,49
 732 55 732 55 763 75 c 128,-1,50
 794 95 794 95 813.5 131 c 128,-1,51
 833 167 833 167 842 217 c 128,-1,52
 851 267 851 267 851 327 c 0,53,54
 851 388 851 388 832 435 c 128,-1,55
 813 482 813 482 784 521.5 c 128,-1,56
 755 561 755 561 722 595.5 c 128,-1,57
 689 630 689 630 660 666 c 128,-1,58
 631 702 631 702 612 742 c 128,-1,59
 593 782 593 782 593 833 c 0,60,61
 593 889 593 889 612.5 930.5 c 128,-1,62
 632 972 632 972 661.5 1007 c 128,-1,63
 691 1042 691 1042 725.5 1073.5 c 128,-1,64
 760 1105 760 1105 789.5 1141 c 128,-1,65
 819 1177 819 1177 838.5 1220.5 c 128,-1,66
 858 1264 858 1264 858 1324 c 0,67,68
 858 1395 858 1395 816.5 1434.5 c 128,-1,69
 775 1474 775 1474 709 1474 c 0,70,71
 685 1474 685 1474 658.5 1471 c 128,-1,72
 632 1468 632 1468 604 1455.5 c 128,-1,73
 576 1443 576 1443 548.5 1418.5 c 128,-1,74
 521 1394 521 1394 497 1351.5 c 128,-1,75
 473 1309 473 1309 453 1246 c 128,-1,76
 433 1183 433 1183 421 1093 c 2,77,-1
 274 0 l 1,78,-1
 66 0 l 1,79,-1
 220 1061 l 2,0,1
EndSplineSet
EndChar

